/* XPM */
static char *border_tree_floor1[] = {
/* columns rows colors chars-per-pixel */
"60 60 130 2 ",
"   c #292A29",
".  c #28332A",
"X  c #283B2B",
"o  c #37332A",
"O  c #38342A",
"+  c #36382B",
"@  c #3C3C2D",
"#  c #263131",
"$  c #2A3731",
"%  c #2B3D34",
"&  c #443C2C",
"*  c #483F2D",
"=  c #29442D",
"-  c #284B2E",
";  c #33412D",
":  c #3B422E",
">  c #28522F",
",  c #2A4B32",
"<  c #2C463A",
"1  c #2C4B3B",
"2  c #3E4E30",
"3  c #285530",
"4  c #285931",
"5  c #365234",
"6  c #31533B",
"7  c #28643C",
"8  c #4B412D",
"9  c #51452E",
"0  c #56492F",
"q  c #594B2F",
"w  c #464C35",
"e  c #504632",
"r  c #544930",
"t  c #5D4F31",
"y  c #4D513A",
"u  c #535835",
"i  c #625231",
"p  c #685633",
"a  c #6C5A35",
"s  c #6D5C39",
"d  c #725E37",
"f  c #735F38",
"g  c #4C713D",
"h  c #547038",
"j  c #54783B",
"k  c #756139",
"l  c #7B663B",
"z  c #1E4D49",
"x  c #1D5153",
"c  c #264345",
"v  c #224D4A",
"b  c #2E5442",
"n  c #2F5A45",
"m  c #2E5C48",
"M  c #365B43",
"N  c #305F48",
"B  c #276841",
"V  c #286840",
"C  c #2E6448",
"Z  c #24684C",
"A  c #2F684B",
"S  c #386243",
"D  c #31644B",
"F  c #316A4F",
"G  c #2C704A",
"H  c #397540",
"J  c #3B7D4D",
"K  c #28695E",
"L  c #326D50",
"P  c #267055",
"I  c #2F7B52",
"U  c #2C765B",
"Y  c #327253",
"T  c #317A54",
"R  c #317B5F",
"E  c #115666",
"W  c #196366",
"Q  c #156169",
"!  c #196D6B",
"~  c #1B726C",
"^  c #206663",
"/  c #247265",
"(  c #267967",
")  c #2A7D65",
"_  c #21786A",
"`  c #307E62",
"'  c #645841",
"]  c #4C7440",
"[  c #7F6F4E",
"{  c #846D3E",
"}  c #876F40",
"|  c #897142",
" . c #917949",
".. c #877551",
"X. c #977F50",
"o. c #5D833B",
"O. c #318057",
"+. c #33835B",
"@. c #3B845C",
"#. c #34885F",
"$. c #3A895D",
"%. c #3D905F",
"&. c #2D8366",
"*. c #298068",
"=. c #348761",
"-. c #368D63",
";. c #3A8E61",
":. c #4B894E",
">. c #548940",
",. c #5C8C43",
"<. c #528F4F",
"1. c #5D9647",
"2. c #5A9B4E",
"3. c #4C8750",
"4. c #458B57",
"5. c #4E8A51",
"6. c #4C9557",
"7. c #44925B",
"8. c #499458",
"9. c #529452",
"0. c #549952",
"q. c #649D47",
"w. c #6C9C41",
"e. c #619E4A",
"r. c #6EA343",
"t. c #65A048",
"y. c #70A442",
"u. c #9C8454",
"i. c #A48C5C",
"p. c #A89060",
/* pixels */
"-.-.-.-.-.-.-.-.-.-.-.-.-.-.-.-.-.-.-.-.-.-.-.-.-.-.-.-.-.-.-.-.-.-.-.-.-.-.-.-.-.-.-.-.-.-.-.-.-.-.-.-.-.-.-.-.-.-.-.-.",
"-.-.-.-.-.-.-.-.-.-.-.-.-.-.-.-.-.-.-.-.-.-.-.-.-.-.-.-.-.-.%.%.7.-.-.-.-.-.-.-.-.-.-.-.-.-.-.-.-.-.-.-.-.-.-.-.-.-.-.-.",
"-.-.-.-.-.-.-.-.-.-.-.-.-.-.-.-.-.-.-.-.-.-.-.-.-.-.-.-.-.-.y.y.r.2.-.=.-.-.-.-.-.-.-.-.-.-.-.-.-.-.-.-.-.-.-.-.-.-.-.-.",
"-.-.-.-.-.-.-.-.-.-.-.-.-.-.-.-.-.-.-.-.-.-.=.F b %                 % b F #.-.-.-.-.-.-.-.-.-.-.-.-.-.-.-.-.-.-.-.-.-.-.",
"-.-.-.-.-.-.-.-.-.-.-.-.-.-.-.-.-.-.-.-.-.N . . = - 4 4 3 6 4 4 4 3 - = . . C -.-.-.-.-.-.-.-.-.-.-.-.-.-.-.-.-.-.-.-.-.",
"-.-.-.-.-.-.-.-.-.-.-.-.-.8.8.6.8.-.=.T N   - 4 4 7 V V V V V Z V B 7 4 3 -   m U -.-.-.-.-.-.&.*.&.&.*.-.=.-.-.-.-.-.-.",
"-.-.-.-.-.-.-.-.-.-.-.-.-.q.y.r.j %       = 4 4 7 V 7 7 7 7 7 7 7 7 B B 4 4 - .     % F -.-.=.~ ~ ~ ~ ~ *.-.-.-.-.-.-.-.",
"-.-.-.-.-.-.-.-.-.-.-.-.-.0.0.2   X , > 4 4 4 V B B 4 4 > 4 4 3 4 7 7 B 7 4 4 4 - - X   < ) *.4.4.4.=.~ *.-.-.-.-.-.-.-.",
"-.-.-.-.-.-.-.-.-.-.-.-.-.-.N   > 4 4 7 7 7 7 7 B 4 4 4 4 4 4 3 4 4 4 7 7 7 7 7 7 4 4 >   z U y.y.y.9.~ ( -.-.-.-.-.-.-.",
"-.-.-.-.-.-.-.-.-.-.-.-.-.-.  = 4 7 7 V 7 V 7 7 4 4 4 4 7 V 7 7 7 4 4 4 7 7 7 7 7 7 4 4 - . <.y.y.y.5.Q ( -.-.-.-.-.-.-.",
"-.-.-.-.-.-.-.-.-.-.-.-.L %   4 4 7 V 7 7 7 4 4 4 4 7 V V 7 V V V 7 4 4 7 4 4 7 7 B 7 7 3   = o.y.y.3.E / -.-.-.-.-.-.-.",
"-.-.-.-.-.-.-.-.-.-.-.F   X 3 4 7 V V 7 4 4 4 4 4 7 7 V 7 7 4 7 7 7 7 4 4 4 4 4 7 B 7 7 4 > X   g 7.R E / -.-.-.-.-.-.-.",
"-.-.-.-.-.-.-.-.-.-.L   X 4 4 V V V V 7 4 > 4 4 7 V 7 7 4 3 4 4 7 7 7 7 4 4 4 4 7 B 7 B 7 4 4 -   L ( E / -.-.-.-.-.-.-.",
"-.-.-.-.-.-.-.-.-.-.X X 4 4 4 V V V 7 4 4 4 4 7 7 7 4 4 7 7 7 4 4 4 7 7 7 4 4 4 4 7 V B V 4 4 4 X # W ! ) -.-.-.-.-.-.-.",
"-.-.-.-.-.-.-.-.-.F   > 4 4 V V 7 7 7 4 4 4 7 V V 7 4 7 V V V V 7 4 7 7 7 7 4 4 4 7 B V V V 4 4 >   x ~ ) -.-.-.-.-.-.-.",
"-.-.-.7.y.y.y.0.-.< X 4 4 4 V V 7 7 4 4 4 4 7 V V 4 4 V V 7 V V 7 4 7 7 7 7 4 4 4 4 7 V V V 7 4 4 X < -.-.-.-.-.-.-.-.-.",
"-.-.-.%.r.r.y.0.$.  - 4 4 7 V V V 4 4 4 4 4 7 7 7 7 4 7 7 7 7 7 7 4 4 7 7 7 4 4 4 4 4 7 V V 7 4 4 -   -.-.-.-.%.%.%.-.-.",
"-.-.-.-.-.6.y.y.o.  3 4 4 V V V 7 4 4 4 4 4 7 7 7 7 4 4 7 7 7 7 4 4 7 7 7 7 4 4 4 4 4 7 V V V 4 4 3   Y -.-.2.y.y.y.%.-.",
"-.-.-.-.-.7.2.e.g   3 4 7 V V V 4 4 4 4 4 4 4 7 7 7 7 4 4 4 4 4 4 4 7 7 7 4 4 4 4 4 4 4 V V V 4 > 4   D %.7.e.y.t.e.%.-.",
"-.-.-.-.-.-.-.-.6 . 4 4 7 V V V 4 4 4 4 4 4 4 4 7 7 7 4 4 4 4 4 7 7 7 7 7 7 4 4 4 4 4 4 V V V 7 4 4 X b 0.y.y.y.7.-.-.-.",
"-.-.-.-.-.-.-.-.b . 4 4 7 7 7 7 4 4 4 4 > 4 4 4 7 V V 7 4 4 4 4 7 7 7 7 4 4 > 4 4 4 4 4 4 7 V 7 > 4 . b 8.2.2.2.%.-.-.-.",
"-.-.-.-.-.-.-.-.b . 4 4 7 V V 7 4 4 4 4 4 4 4 4 7 V V V 7 7 7 7 7 7 G 7 4 4 4 4 4 4 4 4 7 7 7 7 4 4 . b -.-.-.-.-.-.-.-.",
"-.-.-.-.-.-.-.-.6 . 4 4 7 V V V 4 4 4 4 4 4 4 4 4 7 7 V V V 7 V 7 7 7 4 4 4 4 4 4 4 4 4 7 7 O.7 4 3 . 6 -.-.-.-.-.-.-.-.",
"-.-.-.-.-.-.-.-.b . 4 4 4 V V V 4 4 4 4 4 4 4 > 4 4 7 7 V V V V 7 4 4 > 4 4 > 4 4 4 4 4 7 7 V 4 4 3 X n -.-.-.-.-.-.-.-.",
"-.-.-.-.-.-.-.-.A   3 4 4 7 V V 7 4 4 4 4 4 4 4 4 4 4 4 4 7 4 7 4 4 4 4 4 4 4 4 4 4 7 7 7 7 7 4 4 3   A -.-.-.-.-.-.-.-.",
"-.-.-.-.-.-.-.-.L   3 4 4 4 7 V V 7 4 4 4 4 4 4 4 4 4 4 4 4 4 4 4 > 4 4 4 4 4 4 4 4 7 V 7 7 4 4 4 3   Y -.-.-.-.-.-.-.-.",
"-.-.-.-.-.-.-.-.+.  - 4 4 4 4 7 V V V 7 4 4 4 4 4 4 4 4 > 4 4 4 4 4 4 4 > 4 4 7 7 7 7 V 7 7 4 4 4 -   +.-.-.-.-.-.-.-.-.",
"-.-.-.-.-.-.-.-.-.. = 4 4 3 4 4 7 V V V 7 7 7 4 4 4 4 4 4 4 4 4 4 4 4 4 4 4 7 7 7 7 7 7 4 4 4 4 4 =   -.-.-.-.-.-.-.-.-.",
";.-.-.-.-.-.-.-.-.1 X 4 4 4 4 4 7 V V 7 V V V V 4 4 4 4 4 4 4 4 4 4 4 4 7 V V V V V V 7 4 4 4 4 3 X 1 -.-.-.-.-.-.-.-.-.",
"-.-.-.-.-.-.-.-.-.G   3 4 4 4 4 4 7 V V V G V V 4 4 4 4 > 4 4 4 4 4 4 4 7 V V V V V 7 4 3 4 4 > 3   F -.-.-.-.-.-.-.-.-.",
"-.-.-.-.-.-.-.-.-.#.. = 4 4 4 4 4 7 V V 7 7 7 7 7 4 4 4 4 4 4 4 4 4 7 7 V V V V V 7 7 4 4 4 4 4 =   #.-.-.-.-.-.-.-.-.-.",
"-.-.-.-.-.-.-.-.#.#.4   > 4 4 4 4 4 V V 7 G 7 7 7 7 4 4 4 4 4 > 4 7 7 V V V V V V 7 4 4 4 3 4 3   n -.-.-.-.-.-.-.-.-.-.",
"-.-.-.-.-.-.-.-.-.-.#.. = 4 4 3 4 4 4 7 7 7 7 7 7 7 7 7 7 7 7 7 7 7 O.V 7 V V V 7 4 4 4 4 4 4 =   -.-.-.-.-.-.-.-.-.-.-.",
"-.-.-.-.-.-.-.-.-.-.-.S   = 4 4 > 4 4 4 4 7 7 7 7 7 7 O.G 7 7 7 7 7 V V 7 4 7 4 4 4 4 4 4 4 -   N -.-.-.-.-.-.-.-.-.-.-.",
"-.-.-.-.-.-.-.-.-.-.-.e.5   = 4 4 4 4 4 4 4 4 4 4 7 7 7 7 7 7 7 V 7 7 4 4 4 4 4 4 4 4 4 4 -   > -.-.-.-.-.-.-.-.-.-.-.-.",
"-.-.-.-.-.-.-.-.-.7.6.t.7 @   - 4 4 4 4 4 4 4 4 4 7 7 7 7 7 7 7 V 7 4 4 4 4 4 4 4 4 4 4 -   + 7 -.-.-.-.-.-.-.-.-.-.-.-.",
"-.-.-.-.-.-.-.-.-.2.y.>.w u.' . 4 4 > 4 4 4 4 4 4 4 4 4 4 7 7 7 4 4 4 > 4 4 4 4 3 4 4 4 . u u.w T -.-.-.-.-.-.-.-.-.-.-.",
"-.-.-.%.0.8.-.-.-.2.w.u |  .u   4 4 4 4 4 4 4 4 4 4 4 4 4 4 4 4 4 4 4 4 > 4 > 4 4 4 4 4   i  .| y =.-.-.7.0.7.-.-.-.-.-.",
";.-.-.7.y.2.-.-.-.2.h f | | k   - > 4 > 4 > 4 4 4 4 4 4 4 4 4 4 4 4 4 4 4 > 4 4 4 4 3 -   l { { f D -.-.0.y.6.-.-.-.-.-.",
"-.-.-.7.y.t.2.8.-.7.J : p l } e   X X X X .   . - > 4 4 4 4 4 4 4 4 4 - X . . X X X X   r { l a : T 7.2.q.y.6.-.-.-.-.-.",
"-.-.-.7.y.y.r.0.-.-.-.G , : 8 r &   o & o * 0 8     . X = - > ; X .     8 0 8 o & o   & 9 8 : , I -.6.y.y.y.6.-.-.-.-.-.",
"-.-.-.;.7.0.y.0.-.-.-.-.T 4 4 4 > =   & 0 i i l p & 9 &         & 9 * p l p t 0 &   = > > 3 4 T -.-.6.y.2.7.;.-.0.e.t.t.",
"-.-.-.-.-.6.y.0.-.-.-.-.=.4 4 4 - 8 t t * * t i l i 8 l p i i i l 8 p l t t * 8 q t 8 - 4 4 7 +.-.-.6.r.0.-.-.-.t.r.y.y.",
"-.-.-.-.-.-.%.-.-.-.-.-.-.7 4 4 : f { { { p * t i { * p d t i f p & l i t * p { { { k : 4 4 7 t.2.-.-.%.-.-.2.t.r.r.7.%.",
"-.-.-.-.-.-.-.-.-.-.-.-.-.A 4 4 + 8 0 p { { t 9 q a i 9 p i t p 9 i a t 8 t { { s r 8 + 4 4 7 y.t.-.-.-.-.-.2.y.r.r.%.-.",
"-.-.-.-.-.-.-.-.-.-.-.-.-.P 4 ; q p 9 9 i { d * i t 8 & * * * * & * t t & k { p 8 8 t t @ 4 O.%.-.-.-.-.-.-.-.-.-.-.-.-.",
"-.-.-.-.-.-.-.&.-.-.-.&.-.U , s { { p 0 9 p f 8 t * 0 i f { { f p q * t 8 k p 8 9 a { | s , $.%.-.-.-.-.-.-.-.-.-.-.-.-.",
"-.-.-.-.-.*.~ ~ ~ ! ~ ~ ~ 1.y p.p.u.{ i * t t * ; 0 p { { { { { { i q + 8 i t 8 p { u.p.i.y #.-.-.-.-.-.-.-.-.-.-.-.-.-.",
"-.-.-.-.*.=.` ` ` ( _ ! ! ,.[ p.i.u.| a 9 q q + = i a a p p p p a a i ; ; 0 0 9 a | u.p.p.[ +.-.-.-.-.-.-.-.-.-.-.-.-.-.",
"-.-.-.-.~ =.y.y.y.8.-.W E ,...i.| | l 8 ; - - 4 - 0 t * * 8 8 8 8 t 0 - 4 - ; ; 8 l {  .i...+.-.-.-.-.-.-.-.-.-.-.-.-.-.",
"-.-.-.&.~ ` 5.0.2.0.6.^ E 3.r l d r ; , 3 4 4 4 4 = @ t a l k d q @ - 4 4 4 4 4 3 ; r d l t +.-.-.-.-.-.-.-.-.-.-.-.-.-.",
"-.-.-.-.~ ~ ~ ) -.2.y.K E =.F c z Z V 7 4 4 4 4 4 4 : a { u.u.{ a : > 4 4 4 4 4 7 7 G D M A -.-.-.-.-.-.-.-.-.-.-.-.-.-.",
"-.-.-.-.*.*.*.&.-.7.0.` / -.-.( / *.&.O.G 7 7 4 > 4 ; a  .p.p. .a = 4 4 4 7 7 7 O.$.-.-.-.-.-.-.-.-.-.-.-.-.-.-.-.-.-.-.",
"-.-.-.-.-.-.-.-.-.-.-.-.-.-.-.-.-.-.-.-.-.O.V 7 7 4 - q {  . .{ q > 4 7 7 7 #.%.-.-.-.-.-.-.-.-.-.-.-.-.-.-.-.-.-.-.-.-.",
"-.-.-.-.-.-.-.-.-.-.-.-.-.-.-.-.-.-.-.-.-.-.-.O.G 7 7 : a { { a : 7 7 V #.-.#.-.-.-.-.-.-.-.-.-.-.-.-.-.-.-.-.-.-.-.-.-.",
"-.-.-.-.-.-.-.-.-.-.-.-.-.-.-.-.-.-.-.-.-.-.-.-.-.O.G 4 0 a a 0 3 G #.#.#.-.-.-.-.-.-.-.-.-.-.-.-.-.-.-.-.-.-.-.-.-.-.-.",
"-.-.-.-.-.-.-.-.-.-.-.-.-.-.-.-.-.-.-.-.-.-.-.-.-.-.-.O.6 8 8 6 O.-.-.-.-.-.-.-.-.-.-.-.-.-.-.-.-.-.-.-.-.-.-.-.-.-.-.-.",
"-.-.-.-.-.-.-.-.-.-.-.-.-.-.-.-.-.-.-.-.-.-.-.-.-.-.-.-.-.-.-.-.-.-.-.-.-.-.-.-.-.-.-.-.-.-.-.-.-.-.-.-.-.-.-.-.-.-.-.-.",
"-.-.-.-.-.-.-.-.-.-.-.-.-.-.-.-.-.-.-.-.-.-.-.-.-.-.-.-.-.-.-.-.-.-.-.-.-.-.-.-.-.-.-.-.-.-.-.-.-.-.-.-.-.-.-.-.-.-.-.-.",
"-.-.-.-.-.-.-.-.-.-.-.-.-.-.-.-.-.-.-.-.-.-.-.-.-.-.-.-.-.-.-.-.-.-.-.-.-.-.-.-.-.-.-.-.-.-.-.-.-.-.-.-.-.-.-.-.-.-.-.-."
};
