/* XPM */
static char * cac_back_xpm[] = {
"60 60 260 2",
"  	c #368D63",
". 	c #3D905F",
"+ 	c #3A8F60",
"@ 	c #368C64",
"# 	c #6FA442",
"$ 	c #629E4A",
"% 	c #3D9060",
"& 	c #45925C",
"* 	c #67A147",
"= 	c #44925B",
"- 	c #539953",
"; 	c #70A442",
"> 	c #4B9557",
", 	c #599B4F",
"' 	c #348A63",
") 	c #499459",
"! 	c #5E9C4C",
"~ 	c #5A9B4F",
"{ 	c #328964",
"] 	c #2C8367",
"^ 	c #69A146",
"/ 	c #4E9754",
"( 	c #298068",
"_ 	c #1A726C",
": 	c #2F8665",
"< 	c #287F67",
"[ 	c #559951",
"} 	c #41915D",
"| 	c #267867",
"1 	c #166469",
"2 	c #337C5E",
"3 	c #458B57",
"4 	c #318463",
"5 	c #297F68",
"6 	c #338A65",
"7 	c #298067",
"8 	c #468B57",
"9 	c #37845E",
"0 	c #247265",
"a 	c #105667",
"b 	c #4B8650",
"c 	c #70A342",
"d 	c #307E62",
"e 	c #1B726C",
"f 	c #509152",
"g 	c #308665",
"h 	c #257C68",
"i 	c #1E736B",
"j 	c #166769",
"k 	c #3B855D",
"l 	c #257C69",
"m 	c #549350",
"n 	c #4E8A51",
"o 	c #156069",
"p 	c #257564",
"q 	c #423A42",
"r 	c #267868",
"s 	c #4C8750",
"t 	c #115666",
"u 	c #716B6E",
"v 	c #888788",
"w 	c #217869",
"x 	c #5B974D",
"y 	c #207669",
"z 	c #3B8F60",
"A 	c #1A6365",
"B 	c #145D68",
"C 	c #65A048",
"D 	c #43925A",
"E 	c #FFFFFF",
"F 	c #A5A5A5",
"G 	c #46C500",
"H 	c #55B60E",
"I 	c #6EA343",
"J 	c #3B845C",
"K 	c #155D66",
"L 	c #619E4B",
"M 	c #287865",
"N 	c #E2E2E2",
"O 	c #ECECEC",
"P 	c #6C9431",
"Q 	c #7DE000",
"R 	c #74D801",
"S 	c #73A62C",
"T 	c #1F746A",
"U 	c #3C8F61",
"V 	c #1D6866",
"W 	c #125767",
"X 	c #318663",
"Y 	c #1A6E6B",
"Z 	c #969696",
"` 	c #798742",
" .	c #69D104",
"..	c #7ADC00",
"+.	c #115A67",
"@.	c #2F7D62",
"#.	c #CFCFCF",
"$.	c #6F7441",
"%.	c #82E300",
"&.	c #378C63",
"*.	c #474447",
"=.	c #180517",
"-.	c #5C4333",
";.	c #3D9504",
">.	c #C0F17F",
",.	c #AFE979",
"'.	c #96E72D",
").	c #48AC03",
"!.	c #3D482C",
"~.	c #6B6B6B",
"{.	c #2A1619",
"].	c #45140A",
"^.	c #691A0F",
"/.	c #0E010D",
"(.	c #656C38",
"_.	c #558926",
":.	c #5DCD02",
"<.	c #AAE48C",
"[.	c #79D731",
"}.	c #4CBB00",
"|.	c #55961A",
"1.	c #469359",
"2.	c #3A0B04",
"3.	c #992108",
"4.	c #D03934",
"5.	c #885457",
"6.	c #AA7966",
"7.	c #51AB07",
"8.	c #66D312",
"9.	c #996561",
"0.	c #4E1C14",
"a.	c #A8260E",
"b.	c #592B2C",
"c.	c #A56464",
"d.	c #C78777",
"e.	c #835748",
"f.	c #465F11",
"g.	c #73CC00",
"h.	c #447602",
"i.	c #684644",
"j.	c #B9886F",
"k.	c #B87874",
"l.	c #975556",
"m.	c #471F35",
"n.	c #B9372A",
"o.	c #290800",
"p.	c #A3745F",
"q.	c #DA9A7D",
"r.	c #D89781",
"s.	c #385213",
"t.	c #533632",
"u.	c #C07F7A",
"v.	c #E09F81",
"w.	c #C1846E",
"x.	c #0E0909",
"y.	c #150A09",
"z.	c #6B3739",
"A.	c #8D4639",
"B.	c #472527",
"C.	c #000000",
"D.	c #376606",
"E.	c #070609",
"F.	c #704B3C",
"G.	c #784546",
"H.	c #3A182B",
"I.	c #552317",
"J.	c #902417",
"K.	c #833C36",
"L.	c #A96968",
"M.	c #B7776A",
"N.	c #B06F6F",
"O.	c #893D55",
"P.	c #861D08",
"Q.	c #CB3F1C",
"R.	c #D39282",
"S.	c #DD9C82",
"T.	c #764F4C",
"U.	c #68CA04",
"V.	c #B14D34",
"W.	c #C98882",
"X.	c #87784B",
"Y.	c #869345",
"Z.	c #77A42A",
"`.	c #D4947B",
" +	c #501139",
".+	c #E3A282",
"++	c #C39275",
"@+	c #8B8D4F",
"#+	c #819B20",
"$+	c #A66A5D",
"%+	c #8B4440",
"&+	c #854444",
"*+	c #976559",
"=+	c #783D3D",
"-+	c #C38282",
";+	c #2C211F",
">+	c #A05F5F",
",+	c #BE7D7D",
"'+	c #B37474",
")+	c #592C34",
"!+	c #2C1332",
"~+	c #2C0726",
"{+	c #633C42",
"]+	c #826A82",
"^+	c #380C2C",
"/+	c #342C32",
"(+	c #9E5E5E",
"_+	c #6D324F",
":+	c #546515",
"<+	c #44935A",
"[+	c #104D61",
"}+	c #184F91",
"|+	c #0C2447",
"1+	c #0B121E",
"2+	c #52476D",
"3+	c #544D79",
"4+	c #0C1628",
"5+	c #144F7C",
"6+	c #1F7CBC",
"7+	c #0E2B56",
"8+	c #1A3C75",
"9+	c #122E5A",
"0+	c #15617E",
"a+	c #262944",
"b+	c #378D64",
"c+	c #B57878",
"d+	c #207BC3",
"e+	c #1F61BC",
"f+	c #070E0E",
"g+	c #123567",
"h+	c #2062C3",
"i+	c #183F81",
"j+	c #290D3B",
"k+	c #44935B",
"l+	c #4F9151",
"m+	c #162D61",
"n+	c #4A8E54",
"o+	c #70A443",
"p+	c #669E47",
"q+	c #368360",
"r+	c #28695E",
"s+	c #26685E",
"t+	c #579A51",
"u+	c #3C905F",
"v+	c #3C063C",
"w+	c #1F756C",
"x+	c #348B64",
"y+	c #348B63",
"z+	c #338A64",
"A+	c #247767",
"B+	c #1A6E6C",
"C+	c #3D8F5F",
"D+	c #649A46",
"E+	c #186B6A",
"F+	c #57954D",
"G+	c #1A6465",
"H+	c #659F48",
"I+	c #559651",
"J+	c #1C6B67",
"K+	c #2F7B60",
"                                                                                                                        ",
"                                                            . . . +                                                     ",
"                                                  @         # # # $                                                     ",
"                                            % & % @         $ $ # * = .                                                 ",
"                                            - ; > @           . # # # ,                         @ @ + '                 ",
"                          ) > > )       . > ! ; >             + ~ ~ , >   { ] ] ] {         ' ] ] ] ] ] {               ",
"                        @ ^ ; ; ^       / ; ; ; >                         ( _ _ _ : @       { _ _ _ _ _ <               ",
"                        @ / - ; ^ [ >   ) ; $ - }                         | 1 2 3 4 5 6   7 ] 3 8 8 9 _ <               ",
"                              # # # $ @ / ; -                             0 a b c d e 6   _ | ; ; ; f _ ( @ @           ",
"                              > >       % > }                         g h i j k / f f < l f m ; ; ; n o p               ",
"                                    q                             @   ] e e e 7 6 $ c r e ; ; ; ; ; s t 0               ",
"                                  u v                           @ g w 9 x x x k y z & A B & ) ; C D 2 t 0               ",
"                                v E F                       G H   : _ k c c I J e g @ K t   . c L @ M t 0               ",
"                        @ $     N O v                     P Q R S   _ T | 4 U + { V K W t     . X K 1 Y <               ",
"                        @     Z E N v                   `  .Q Q ..S   e e 5     ' V t t +.      @.t o _ 5               ",
"      = ; ; ; -       $ ;     #.O #.v                 $. .Q Q %.Q  .P               @ &.                                ",
"      } ^ ^ ; [ . + @ ! ^   F E N Z *.=.            -.;. .Q >.,.'.R ).!.                                    % . . .     ",
"      @   / ; # # ) @ @     F E N ~.{.].^./.        (._.).:.<.<.[.}.|.(.                                    ~ ; # # .   ",
"        @ 1.$ $ $ = @       F E N ~.2.3.4.2.      5.6.(.7.:.8.8.:.}._.9.9.                              . D ! ; C $ %   ",
"            @               F O N ~.0.a.4.^.b.  c.d.e.f.g...Q Q Q ..h.i.j.k.l.m.                        - # # # D       ",
"                            F N #.~.b.n.a.o.p.q.q.r.i.s.g.Q %.Q %.%.h.t.u.v.q.w.m.                      ) ~ ~ ~ .       ",
"                            v u x.x.].3.a.y.z.A.B.C.D...%.%.%.%.%.%.%.|.E.{.F.G.H.                                      ",
"                              I.J.n.J.].K.F.L.k.k.-.D.g...%.%.%.%.%...h.t.p.M.N.O.                                      ",
"                              o.P.Q.n.F.M.j.d.R.S.T.s.|.U...%...R 8.H D.-.w.q.d.w.M.                                    ",
"                              2.P.n.V.u.v.v.W.r.v.6.X.Y.Z.7.7.7.7.S Y.X.6.q.q.W.v.q.`.                                  ",
"                               +P.V.M.q..+q.M.d..+.+S.R.++@+@+#+@+j.R.v.v..+v.$+R.q..+w.                                ",
"                                o.A.++.+.+`.l.M.q..+r.R.v..+.+.+.+v.R.R.v.v.R.%+d..+.+r.                                ",
"                                 +e.`..+.+N.l.N.R.v.d.d.S.v..+.+.+.+d.u.r.v.W.&+L.`..+.+*+                              ",
"                                  *+q..+.+%+=+c.R.d.L.L.`.S.S.v.v.S.M.c.d.R.-+z.&+w..+.+$+                              ",
"                                  F.`.S.W.=+;+5.-+c.>+u.-+-+W.-+-+-+-+c.c.,+d.x.=+N.r..+e.                              ",
"        +                         t.'+'+&+C.=.)+$+-+-+-+-+-+-+-+-+-+-+-+,+M.K././.b.c.-+i.                              ",
"    @ @ @                         B.l.N.&+/.    )+>+,+-+W.-+-+-+-+W.r.,+L.G.!+  ~+)+c.c.                                ",
"                                    {+p.e./.      z.c.]+`.,+,+,+,+u.]+L.G. +    ^+t.p.T.                                ",
"                    @ } } +         /+P Z./.        -.l.(+>+$+>+>+c.c._+ +      !+:+Z.s.                                ",
"                      $ # %           D. .{+        /+H.b.K._+A._+b.0./+        i.|.).                                  ",
"                  <+/ C # .           ;+P i.~+    [+}+|+1+2+3+3+3+!+4+}+5+    x.9.X.s.                                  ",
"                  , ; # # .           H.6.x./.    [+6+}+7+8+8+8+8+9+5+6+0+a+    G.T.          b+                        ",
"      % - )       , ; , - +     @ (   H.c+y.=.    [+d+e+}+1+f+1+1+g+e+d+}+!+                            1.- . @         ",
"      & # ~       , # &         { e   H.c+z.{.    g+h+h+}+E.C.C.E.g+h+h+i+j+                            - # / @         ",
"      k+# * ~ 1.  D > %       l 7 l+f   /.c+H.    m+g+7+i+1+f n+  g+9+7+g+                          D ~ C ; )           ",
"      1.# # # -               _ p o+c   /.c+m.      1+1+j+  # p+  j+1+1+                @           ) # # ; >     @ @ @ ",
"        & - # -               _ i 4 q+  =.c+_+      /+*.  r+r+s+B   q q           t+$ $ $ ! ! @     / ; , & %   [ $ $ $ ",
"          > # -               _ e e w     >+>+            t a t t                 C # # ; ; ^     @ > # - @   @ $ ; ; # ",
"      @ @ + % %               { { { {   @ B.9.)+          X X X g {               u+u+* ; ; # * ~ @ + . + @ [ ^ I # & . ",
"                b+b+@ @                   x.5.)+v+                                  @ ^ ; ; ; ; $ @         ~ ; ; # .   ",
"          @       b+@ @ @ w+e _ _ _ w @   x.T.)+=.                                                              @       ",
"        @ @ x+{ y+z+{ { { M | | A+B+y     ~+)+b.m.  + C+. . . C+                                                        ",
"        @ ] _ _ _ _ _ _ _ p+; ; D+t A       ~+=.    $ I # # # * @                                                       ",
"      x+: : d d d | w Y E+p+; $ F+t G+          . = H+; ; ; $ !                                                         ",
"      : _ k c c c >   G+t D+;   g t G+@         , # # # # ; @   @                                                       ",
"      : _ @.f I+~ - / V t f ~ M p o J+          / , ~ ~ , ~                                                             ",
"      : _ e _ < ' , c r+t X   t +._ w                                                                                   ",
"      { 7 < < g   ) - K+0 '   0 p l : @                                                                                 ",
"                                    @                                                                                   ",
"                                                                                                                        ",
"                                                                                                                        ",
"                                                                                                                        ",
"                                                                                                                        ",
"                                                                                                                        ",
"                                                                                                                        "};
