/* XPM */
static char * cac_g_xpm[] = {
"60 60 268 2",
"  	c #368D63",
". 	c #3D905F",
"+ 	c #3A8F60",
"@ 	c #368C64",
"# 	c #6FA442",
"$ 	c #629E4A",
"% 	c #3D9060",
"& 	c #45925C",
"* 	c #67A147",
"= 	c #44925B",
"- 	c #539953",
"; 	c #70A442",
"> 	c #4B9557",
", 	c #599B4F",
"' 	c #348A63",
") 	c #499459",
"! 	c #5E9C4C",
"~ 	c #5A9B4F",
"{ 	c #328964",
"] 	c #2C8367",
"^ 	c #69A146",
"/ 	c #4E9754",
"( 	c #298068",
"_ 	c #1A726C",
": 	c #2F8665",
"< 	c #287F67",
"[ 	c #559951",
"} 	c #41915D",
"| 	c #267867",
"1 	c #166469",
"2 	c #337C5E",
"3 	c #458B57",
"4 	c #318463",
"5 	c #297F68",
"6 	c #338A65",
"7 	c #298067",
"8 	c #468B57",
"9 	c #37845E",
"0 	c #247265",
"a 	c #105667",
"b 	c #4B8650",
"c 	c #70A342",
"d 	c #307E62",
"e 	c #1B726C",
"f 	c #509152",
"g 	c #469359",
"h 	c #308665",
"i 	c #257C68",
"j 	c #1E736B",
"k 	c #166769",
"l 	c #3B855D",
"m 	c #257C69",
"n 	c #549350",
"o 	c #4E8A51",
"p 	c #156069",
"q 	c #257564",
"r 	c #267868",
"s 	c #4C8750",
"t 	c #115666",
"u 	c #217869",
"v 	c #5B974D",
"w 	c #207669",
"x 	c #3B8F60",
"y 	c #1A6365",
"z 	c #145D68",
"A 	c #65A048",
"B 	c #43925A",
"C 	c #208200",
"D 	c #6EA343",
"E 	c #3B845C",
"F 	c #155D66",
"G 	c #619E4B",
"H 	c #287865",
"I 	c #3C8018",
"J 	c #53AB0D",
"K 	c #74DB00",
"L 	c #2B8D00",
"M 	c #1F746A",
"N 	c #3C8F61",
"O 	c #1D6866",
"P 	c #125767",
"Q 	c #318663",
"R 	c #1A6E6B",
"S 	c #557A31",
"T 	c #63AA18",
"U 	c #69D700",
"V 	c #82E300",
"W 	c #173900",
"X 	c #115A67",
"Y 	c #2F7D62",
"Z 	c #56771B",
"` 	c #4FC100",
" .	c #59CF00",
"..	c #226300",
"+.	c #4F6947",
"@.	c #378C63",
"#.	c #623945",
"$.	c #244110",
"%.	c #59A700",
"&.	c #62D300",
"*.	c #51B300",
"=.	c #3DA900",
"-.	c #598231",
";.	c #527A64",
">.	c #311918",
",.	c #BA8971",
"'.	c #838E45",
").	c #6BCC00",
"!.	c #145100",
"~.	c #74D400",
"{.	c #4D980F",
"].	c #313131",
"^.	c #623131",
"/.	c #D6967B",
"(.	c #879245",
"_.	c #1A1211",
":.	c #76C902",
"<.	c #79D700",
"[.	c #359600",
"}.	c #120909",
"|.	c #431843",
"1.	c #B8A8A8",
"2.	c #0A0707",
"3.	c #AA7964",
"4.	c #388610",
"5.	c #8B4A49",
"6.	c #75B709",
"7.	c #72C700",
"8.	c #606060",
"9.	c #C6C6C6",
"0.	c #784B4B",
"a.	c #000000",
"b.	c #B37262",
"c.	c #D69582",
"d.	c #E3A282",
"e.	c #C38282",
"f.	c #447303",
"g.	c #E0D0D0",
"h.	c #975A59",
"i.	c #FFFFFF",
"j.	c #532A2A",
"k.	c #E09F82",
"l.	c #824141",
"m.	c #412121",
"n.	c #213900",
"o.	c #4B484B",
"p.	c #C1A0A0",
"q.	c #202020",
"r.	c #DEDEDE",
"s.	c #3E3E3E",
"t.	c #686868",
"u.	c #E2B199",
"v.	c #191919",
"w.	c #875959",
"x.	c #B87A79",
"y.	c #59322B",
"z.	c #101C00",
"A.	c #AB7272",
"B.	c #2D0E22",
"C.	c #472B27",
"D.	c #191817",
"E.	c #7B7876",
"F.	c #F8E8E0",
"G.	c #926262",
"H.	c #6C3939",
"I.	c #130400",
"J.	c #A66559",
"K.	c #543935",
"L.	c #585032",
"M.	c #2A1717",
"N.	c #6C4946",
"O.	c #CE8D82",
"P.	c #C28678",
"Q.	c #493737",
"R.	c #AD6C6C",
"S.	c #848282",
"T.	c #312121",
"U.	c #DE9D82",
"V.	c #624141",
"W.	c #B7B5B5",
"X.	c #E7E7E7",
"Y.	c #ECECEC",
"Z.	c #939393",
"`.	c #D08F82",
" +	c #A56464",
".+	c #C3866E",
"++	c #733A3A",
"@+	c #180018",
"#+	c #201110",
"$+	c #7A5151",
"%+	c #A9A9A9",
"&+	c #1D0F0F",
"*+	c #F2F2F2",
"=+	c #D1D1D1",
"-+	c #9E9E9E",
";+	c #6E5366",
">+	c #310031",
",+	c #0E4755",
"'+	c #105162",
")+	c #0F1E2E",
"!+	c #725141",
"~+	c #D7AA72",
"{+	c #B3B649",
"]+	c #44935A",
"^+	c #978D97",
"/+	c #5C5452",
"(+	c #A32100",
"_+	c #A51E0F",
":+	c #511000",
"<+	c #4E656B",
"[+	c #2C84B1",
"}+	c #0C3449",
"|+	c #A9C23D",
"1+	c #5CBC00",
"2+	c #B22D06",
"3+	c #B22810",
"4+	c #5D4772",
"5+	c #2F8D03",
"6+	c #378D64",
"7+	c #AA2408",
"8+	c #D95700",
"9+	c #DB3D39",
"0+	c #4E1B03",
"a+	c #E34141",
"b+	c #CB7151",
"c+	c #44935B",
"d+	c #4F9151",
"e+	c #404040",
"f+	c #3D8259",
"g+	c #290800",
"h+	c #8E1C00",
"i+	c #70A443",
"j+	c #4C864F",
"k+	c #3A0C00",
"l+	c #6D1600",
"m+	c #368360",
"n+	c #509755",
"o+	c #397A58",
"p+	c #552400",
"q+	c #BC4300",
"r+	c #4F1E31",
"s+	c #407D54",
"t+	c #D14F00",
"u+	c #1A6465",
"v+	c #3A1525",
"w+	c #592D2D",
"x+	c #541348",
"y+	c #B73900",
"z+	c #3C905F",
"A+	c #1F756C",
"B+	c #4C091E",
"C+	c #862400",
"D+	c #AA4900",
"E+	c #348B64",
"F+	c #348B63",
"G+	c #338A64",
"H+	c #247767",
"I+	c #1A6E6C",
"J+	c #3D8F5F",
"K+	c #669E47",
"L+	c #649A46",
"M+	c #186B6A",
"N+	c #57954D",
"O+	c #659F48",
"P+	c #559651",
"Q+	c #1C6B67",
"R+	c #28695E",
"S+	c #2F7B60",
"                                                                                                                        ",
"                                                            . . . +                                                     ",
"                                                  @         # # # $                                                     ",
"                                            % & % @         $ $ # * = .                                                 ",
"                                            - ; > @           . # # # ,                         @ @ + '                 ",
"                          ) > > )       . > ! ; >             + ~ ~ , >   { ] ] ] {         ' ] ] ] ] ] {               ",
"                        @ ^ ; ; ^       / ; ; ; >                         ( _ _ _ : @       { _ _ _ _ _ <               ",
"                        @ / - ; ^ [ >   ) ; $ - }                         | 1 2 3 4 5 6   7 ] 3 8 8 9 _ <               ",
"                              # # # $ @ / ; -                             0 a b c d e 6   _ | ; ; ; f _ ( @ @           ",
"                              > > > g   % > }                         h i j k l / f f < m f n ; ; ; o p q               ",
"                                    @ @ @ @                       @   ] e e e 7 6 $ c r e ; ; ; ; ; s t 0               ",
"                                                                @ h u 9 v v v l w x & y z & ) ; A B 2 t 0               ",
"                            @                             C C C   : _ l c c D E e h @ F t   . c G @ H t 0               ",
"                        @ $ ^ ^ $ @                   I J K K L   : _ M | 4 N + { O F P t     . Q F 1 R <               ",
"                        @ ^ ; ; * @               S T U K V K W   h e e e 5     ' O t t X       Y t p _ 5               ",
"      = ; ; ; -       $ ; ; ;                   Z `  .V V V V ..+.                  @ @.                                ",
"      } ^ ^ ; [ . + @ ! ^ ^ ^               #.$.%.K &.&.&.U *.*.*.=.-.;.                                    % . . .     ",
"      @   / ; # # ) @ @                   >.,.'.T ).K  . . .!.~.V U  .*.*.{.                                ~ ; # # .   ",
"        @ g $ $ $ = @                   ].^././.(.T ).).).)._.:.V V V V K <.[.                          . B ! ; A $ %   ",
"            @                     }.|.  1.2.3././.(.4.4.4.4.5.6.7.7.<.V V V V C                         - # # # B       ",
"                                  8.9.2.0.a.a.^.b.c.d.d.d.d.e._.a.a.f.V V V V C                         ) ~ ~ ~ .       ",
"                                  8.g.h.d.i.9.].j.b.k.d.d.d./._.^.l.m.a.n.V V a.                                        ",
"                                  o.p.5./.q.r.s.2.t.u.d.d.d.9.v.w.x.x.h.y.z.z.A.B.                                      ",
"                                    ].>.h.3.u.,.C.D.E.F.F.F.].a.G.e.e.x.w.}.G.e.H.                                      ",
"                                    a.I.l.J.K.L._.M.K.8.8.8.2.N.x.O.c.c.P.0.Q.e.R.                                      ",
"                                    v.8.m.1.S.t.q.K.5.T.m.m.#.x.O.U.d.d.k.P.V.V.x.T.                                    ",
"                                    ].W.o.X.Y.Z.N.w.A.h.5.h.e.R./.d.d.d.d.d.`.a.h.M.                                    ",
"                                      Z.Z.Z.Z.Q.w.e.x. +5.e.e.H..+d.d.d.d.d.d.a.++_.                                    ",
"                                      @+}.a.a.w.A.A.h.++5.e.e._.3.d.d.d.d.d.d.a.^.B.                                    ",
"                    a.a.                  a.a.a.a.a.a.#+5.e.e._.G.c.d.d.d.d.d.a.a.                                      ",
"        +           q.i.a.a.a.                      >.l.l.l.e.5.#+$+e.O.d.d.d.a.a.                                      ",
"    @ @ @           q.i.r.W.%+o.                      }.&+l.5.l.++T.N.e.`.d.d.a.a.                                      ",
"                      s.i.*+=+-+;+>+                    + #+#+++l.>.V.O.U.U.O.a.                                        ",
"                    @ a.i.i.Y.=+-+E.                      a.a.M.>.}.N.U.d./.e.a.                                        ",
"                      $ S.Y.i.Y.=+9.%+8.8.8.                a.,+'+)+!+d.~+{+#.                                          ",
"                  ]+/ A # ^+X.i.Y.=+9.9.9.9./+o.v.@ : (+_+] :+<+[+}+L.{+|+1+a.                                          ",
"                  , ; # # . ^+X.i.Y.=+=+9.9.9.9.t.].y.(+2+3+(+3+4+)+f.V ~.5+>+                6+                        ",
"      % - )       , ; , - +   ^+r.Y.i.i.9.9.=+W.%+%+3.7+8+9+7+9+3+0+Z K %.@+                            g - . @         ",
"      & # ~       , # &         a.<+i.i.i.i.i.s.a.a.:+3+9+(+a+a+3+b+(.[.5+@+                            - # / @         ",
"      c+# * ~ g   B > %       m 7 d+a.v.i.i.i.e+f+f a.g+h+a.(+(+g+$+P.$+a.a.a.a.a.                  B ~ A ; )           ",
"      g # # # -               _ q i+c c q.q.q.2.j+; k+l+}.a.I.I.a.y. +$+&+++++++++B.@+@+@           ) # # ; >     @ @ @ ",
"        & - # -               _ j 4 m+& n+$ o+t j+; p+q+l+a.a.a.a.}.M.#+2.#+#+#+++H.^.^.r+>+>+>+>+>+/ ; , & %   [ $ $ $ ",
"          > # -               _ e e u @ / ; s+t j+# p+t+h+a.a t t u+            v+>.>.w+H.j.w+$+$+$+x+# - @   @ $ ; ; # ",
"      @ @ + % %               { { { {   @ N ' Q + . p+8+y+:+Q Q h {               z+z+r+m.m.j. +G.e.T.. + @ [ ^ D # & . ",
"                6+6+@ @                             0+t+8+y+a.                      @ ^ ; ; ; j.j.$+x+      ~ ; ; # .   ",
"          @       6+@ @ @ A+e _ _ _ u @             B+C+D+D+a.                                >+>+>+            @       ",
"        @ @ E+{ F+G+{ { { H | | H+I+w               + @+@+@+@+J+                                                        ",
"        @ ] _ _ _ _ _ _ _ K+; ; L+t y               $ D # # # * @                                                       ",
"      E+: : d d d | u R M+K+; $ N+t u+          . = O+; ; ; $ !                                                         ",
"      : _ l c c c >   u+t L+;   h t u+@         , # # # # ; @   @                                                       ",
"      : _ Y f P+~ - / O t f ~ H q p Q+          / , ~ ~ , ~                                                             ",
"      : _ e _ < ' , c R+t Q   t X _ u                                                                                   ",
"      { 7 < < h   ) - S+0 '   0 q m : @                                                                                 ",
"                                    @                                                                                   ",
"                                                                                                                        ",
"                                                                                                                        ",
"                                                                                                                        ",
"                                                                                                                        ",
"                                                                                                                        ",
"                                                                                                                        "};
