/* XPM */
static char * cac_d_xpm[] = {
"60 60 258 2",
"  	c #368D63",
". 	c #3D905F",
"+ 	c #3A8F60",
"@ 	c #368C64",
"# 	c #6FA442",
"$ 	c #629E4A",
"% 	c #3D9060",
"& 	c #45925C",
"* 	c #67A147",
"= 	c #44925B",
"- 	c #539953",
"; 	c #70A442",
"> 	c #4B9557",
", 	c #599B4F",
"' 	c #348A63",
") 	c #499459",
"! 	c #5E9C4C",
"~ 	c #5A9B4F",
"{ 	c #328964",
"] 	c #2C8367",
"^ 	c #69A146",
"/ 	c #4E9754",
"( 	c #298068",
"_ 	c #1A726C",
": 	c #2F8665",
"< 	c #287F67",
"[ 	c #559951",
"} 	c #41915D",
"| 	c #267867",
"1 	c #166469",
"2 	c #337C5E",
"3 	c #458B57",
"4 	c #318463",
"5 	c #297F68",
"6 	c #338A65",
"7 	c #298067",
"8 	c #468B57",
"9 	c #37845E",
"0 	c #247265",
"a 	c #105667",
"b 	c #4B8650",
"c 	c #70A342",
"d 	c #307E62",
"e 	c #1B726C",
"f 	c #509152",
"g 	c #469359",
"h 	c #308665",
"i 	c #257C68",
"j 	c #1E736B",
"k 	c #166769",
"l 	c #3B855D",
"m 	c #257C69",
"n 	c #549350",
"o 	c #4E8A51",
"p 	c #156069",
"q 	c #257564",
"r 	c #267868",
"s 	c #4C8750",
"t 	c #115666",
"u 	c #217869",
"v 	c #5B974D",
"w 	c #207669",
"x 	c #3B8F60",
"y 	c #1A6365",
"z 	c #145D68",
"A 	c #65A048",
"B 	c #43925A",
"C 	c #208200",
"D 	c #6EA343",
"E 	c #3B845C",
"F 	c #155D66",
"G 	c #619E4B",
"H 	c #287865",
"I 	c #359700",
"J 	c #75DB00",
"K 	c #56A616",
"L 	c #387918",
"M 	c #1F746A",
"N 	c #3C8F61",
"O 	c #1D6866",
"P 	c #125767",
"Q 	c #318663",
"R 	c #1A6E6B",
"S 	c #2B490C",
"T 	c #82E300",
"U 	c #78DB00",
"V 	c #6ACB00",
"W 	c #64A025",
"X 	c #527431",
"Y 	c #115A67",
"Z 	c #2F7D62",
"` 	c #4A5829",
" .	c #307600",
"..	c #53C500",
"+.	c #378C63",
"@.	c #4F8A25",
"#.	c #43A800",
"$.	c #52B400",
"%.	c #62D300",
"&.	c #499200",
"*.	c #6BAF0C",
"=.	c #1D6100",
"-.	c #59CF00",
";.	c #6CD800",
">.	c #8F8E4F",
",.	c #A8755F",
"'.	c #3B1727",
").	c #281B18",
"!.	c #9A9651",
"~.	c #DDA67A",
"{.	c #C28C74",
"].	c #633231",
"^.	c #35302D",
"/.	c #2C8E00",
"(.	c #78D100",
"_.	c #72C700",
":.	c #805142",
"<.	c #388610",
"[.	c #A19557",
"}.	c #DB9A82",
"|.	c #CD8D7A",
"1.	c #906753",
"2.	c #161616",
"3.	c #B8B6B6",
"4.	c #371737",
"5.	c #0B090B",
"6.	c #355803",
"7.	c #000000",
"8.	c #CC8B82",
"9.	c #E3A282",
"0.	c #A46358",
"a.	c #522929",
"b.	c #0A0404",
"c.	c #100808",
"d.	c #824141",
"e.	c #DEDEDE",
"f.	c #313131",
"g.	c #101C00",
"h.	c #422121",
"i.	c #494949",
"j.	c #D4D4D4",
"k.	c #F2F2F2",
"l.	c #ECE8E8",
"m.	c #404040",
"n.	c #9C6464",
"o.	c #A56464",
"p.	c #B47878",
"q.	c #8A788A",
"r.	c #764949",
"s.	c #CEB8AD",
"t.	c #554C4B",
"u.	c #625A59",
"v.	c #C5C5C5",
"w.	c #C6BAB7",
"x.	c #69473B",
"y.	c #BC7C7C",
"z.	c #946362",
"A.	c #C38282",
"B.	c #7A5151",
"C.	c #F8E8E0",
"D.	c #543C31",
"E.	c #DAA991",
"F.	c #995857",
"G.	c #221111",
"H.	c #2F2D2D",
"I.	c #B27272",
"J.	c #493131",
"K.	c #D59482",
"L.	c #AA7171",
"M.	c #5A3939",
"N.	c #606060",
"O.	c #552531",
"P.	c #8A5151",
"Q.	c #3B2723",
"R.	c #6A6A6A",
"S.	c #908888",
"T.	c #B19090",
"U.	c #492927",
"V.	c #854C4C",
"W.	c #1B1310",
"X.	c #A9A9A9",
"Y.	c #311818",
"Z.	c #AD7466",
"`.	c #929292",
" +	c #733939",
".+	c #6B4747",
"++	c #180018",
"@+	c #682C4F",
"#+	c #212121",
"$+	c #FFFFFF",
"%+	c #783C3C",
"&+	c #685868",
"*+	c #E6E6E6",
"=+	c #6B3535",
"-+	c #310031",
";+	c #190C09",
">+	c #746B74",
",+	c #7B757B",
"'+	c #624141",
")+	c #B3C341",
"!+	c #0C3D49",
"~+	c #105162",
"{+	c #44935A",
"]+	c #B9BC4C",
"^+	c #47461E",
"/+	c #3280A8",
"(+	c #575756",
"_+	c #4C0C0F",
":+	c #A32000",
"<+	c #202849",
"[+	c #724162",
"}+	c #B0270E",
"|+	c #B63400",
"1+	c #378D64",
"2+	c #6BC300",
"3+	c #581504",
"4+	c #B82B16",
"5+	c #D93C37",
"6+	c #E35D08",
"7+	c #AB2607",
"8+	c #39AB00",
"9+	c #289200",
"0+	c #C36141",
"a+	c #E34141",
"b+	c #260800",
"c+	c #44935B",
"d+	c #871D00",
"e+	c #140500",
"f+	c #7C1800",
"g+	c #C84700",
"h+	c #341300",
"i+	c #579A51",
"j+	c #430C2B",
"k+	c #407D54",
"l+	c #4C864F",
"m+	c #DD5B00",
"n+	c #391800",
"o+	c #3C905F",
"p+	c #5B1E4C",
"q+	c #E36100",
"r+	c #1F756C",
"s+	c #AA4900",
"t+	c #348B64",
"u+	c #348B63",
"v+	c #338A64",
"w+	c #247767",
"x+	c #1A6E6C",
"y+	c #3D8F5F",
"z+	c #669E47",
"A+	c #649A46",
"B+	c #186B6A",
"C+	c #57954D",
"D+	c #1A6465",
"E+	c #659F48",
"F+	c #559651",
"G+	c #1C6B67",
"H+	c #28695E",
"I+	c #2F7B60",
"                                                                                                                        ",
"                                                            . . . +                                                     ",
"                                                  @         # # # $                                                     ",
"                                            % & % @         $ $ # * = .                                                 ",
"                                            - ; > @           . # # # ,                         @ @ + '                 ",
"                          ) > > )       . > ! ; >             + ~ ~ , >   { ] ] ] {         ' ] ] ] ] ] {               ",
"                        @ ^ ; ; ^       / ; ; ; >                         ( _ _ _ : @       { _ _ _ _ _ <               ",
"                        @ / - ; ^ [ >   ) ; $ - }                         | 1 2 3 4 5 6   7 ] 3 8 8 9 _ <               ",
"                              # # # $ @ / ; -                             0 a b c d e 6   _ | ; ; ; f _ ( @ @           ",
"                              > > > g   % > }                         h i j k l / f f < m f n ; ; ; o p q               ",
"                                    @ @ @ @                       @   ] e e e 7 6 $ c r e ; ; ; ; ; s t 0               ",
"                                                                @ h u 9 v v v l w x & y z & ) ; A B 2 t 0               ",
"                            @                         C C C       : _ l c c D E e h @ F t   . c G @ H t 0               ",
"                        @ $ ^ ^ $ @                   I J J K L   : _ M | 4 N + { O F P t     . Q F 1 R <               ",
"                        @ ^ ; ; * @                   S T U U V W X   e e 5     ' O t t Y       Z t p _ 5               ",
"      = ; ; ; -       $ ; ; ;                       `  .T T T T ....`               @ +.                                ",
"      } ^ ^ ; [ . + @ ! ^ ^ ^                   @.#.$.$.$.%.%.%.%.U &.S                                     % . . .     ",
"      @   / ; # # ) @ @                   #.#...%.J T *.=.%.-.-.U ;.W >.,.'.                                ~ ; # # .   ",
"        @ g $ $ $ = @                   I T T T T T T *.).V %.V V K !.~.{.].^.                          . B ! ; A $ %   ",
"            @                         /.T T T T (._._.*.:.<.<.<.<.[.}.|.1.2.3.  4.5.                    - # # # B       ",
"                                      /.T T T T 6.7.7.'.8.9.9.9.9.8.0.a.b.c.d.7.e.f.                    ) ~ ~ ~ .       ",
"                                      g.T T g.7.a.d.].h.9.9.9.9.9.0.h.i.j.k.9.d.l.m.                                    ",
"                                      n.g.g.].o.p.q.r.^.s.9.9.9.s.t.b.u.v.^.9.d.w.f.                                    ",
"                                    x.y.z.7.n.y.A.A.B.5.i.C.C.C.u.2.D.{.E.,.F.G.H.                                      ",
"                                    I.p.J.B.|.K.K.8.L.M.5.N.N.N.M.G.).D.x.0.d.7.7.                                      ",
"                                  O.L.t.x.K.9.9.9.}.8.L.M.h.h.h.P.Q.H.R.S.T.h.R.5.                                      ",
"                                  U.V.W.8.9.9.9.9.9.|.y.q.F.d.F.p.B.u.X.l.j.i.v.2.                                      ",
"                                  Y.].W.9.9.9.9.9.~.Z.d.|.y.d.I.y.A.B.t.`.`.`.`.4.                                      ",
"                                  '.a.W.9.9.9.9.9.9.1.'.y.|.d. +n.L.L..+7.7.++++                                        ",
"                                    7.W.9.9.9.9.9.}.V.Y.8.A.d.c.7.7.7.7.7.++                  7.7.                      ",
"        +                           7.W.9.9.9.8.A.@+Y.P.y.d.d.d.G.                      7.7.#+$+7.                      ",
"    @ @ @                           7.G.9.9.8.A.M.U.%+d.:.d.c.c.                      &+X.3.*+$+7.                      ",
"                                      W.8.9.}.8.J.Q.d.=+G.G.                      -+&+X.j.k.*+m.                        ",
"                    @ } } +           W.A.9.9.}.D.;+Y.G.7.7.@                   >+,+X.j.k.$+e.7.                        ",
"                      $ # %             '+)+~.9.M.!+~+!+5.                N.N.N.3.v.j.k.$+e.,+                          ",
"                  {+/ A # .             7.;.]+]+^+!+/+(+_+  :+:+    #+i.R.v.v.v.v.j.k.$+e.q.                            ",
"                  , ; # # .             -+/.J T 6.<+[+}+:+}+|+:+U.f.,+v.v.3.v.j.j.k.$+e.q.    1+                        ",
"      % - )       , ; , - +     @ ( ( ( 7 7.2+J 6.3+4+5+}+5+6+7+{.X.X.3.v.j.v.$+$+*+e.,+                g - . @         ",
"      & # ~       , # &         { e e e _ 7.8+9+!.0+4+a+5+:+a+7+b+7.7.N.$+$+$+$+$+m.7.                  - # / @         ",
"      c+# * ~ g   B > %       m 7   7.7.7.7.7.z.A.M._+:+d+7.:+e+7.    N.$+$+$+7.7.                  B ~ A ; )           ",
"      g # # # -               ++++'. + + + +b.z.o.h.b.e+c.7.e+f+b+    5.#+#+#+          @           ) # # ; >     @ @ @ ",
"        & - # -   -+-+-+-+-+O.].].=+=+G.W.G.7.).).c.7.7.7.7.f+g+h+                i+$ $ $ ! ! @     / ; , & %   [ $ $ $ ",
"          > #     B.B.B.a.a.%+a.Y.Y.j+@ / ; k+t l+# =   F 7.:+m+n+                A # # ; ; ^     @ > # - @   @ $ ; ; # ",
"      @ @ + %   J.y.o.0.h.h.'.          @ N ' Q + .       3+g+m+n+                o+o+* ; ; # * ~ @ + . + @ [ ^ D # & . ",
"                p+.+a.a.                                e+|+q+g+h+                  @ ^ ; ; ; ; $ @         ~ ; ; # .   ",
"          @       -+-+-+@ r+e _ _ _ u @                 e+s+s+f+j+                                              @       ",
"        @ @ t+{ u+v+{ { { H | | w+x+w               + y+++++++++                                                        ",
"        @ ] _ _ _ _ _ _ _ z+; ; A+t y               $ D # # # * @                                                       ",
"      t+: : d d d | u R B+z+; $ C+t D+          . = E+; ; ; $ !                                                         ",
"      : _ l c c c >   D+t A+;   h t D+@         , # # # # ; @   @                                                       ",
"      : _ Z f F+~ - / O t f ~ H q p G+          / , ~ ~ , ~                                                             ",
"      : _ e _ < ' , c H+t Q   t Y _ u                                                                                   ",
"      { 7 < < h   ) - I+0 '   0 q m : @                                                                                 ",
"                                    @                                                                                   ",
"                                                                                                                        ",
"                                                                                                                        ",
"                                                                                                                        ",
"                                                                                                                        ",
"                                                                                                                        ",
"                                                                                                                        "};
