/* XPM */
static char * face3_xpm[] = {
"60 60 273 2",
"  	c #368D63",
". 	c #3D905F",
"+ 	c #3A8F60",
"@ 	c #368C64",
"# 	c #6FA442",
"$ 	c #629E4A",
"% 	c #3D9060",
"& 	c #45925C",
"* 	c #67A147",
"= 	c #44925B",
"- 	c #539953",
"; 	c #70A442",
"> 	c #4B9557",
", 	c #599B4F",
"' 	c #348A63",
") 	c #499459",
"! 	c #5E9C4C",
"~ 	c #80807D",
"{ 	c #7EAC88",
"] 	c #64A974",
"^ 	c #78AB81",
"/ 	c #848484",
"( 	c #2C8367",
"_ 	c #328964",
": 	c #69A146",
"< 	c #4E9754",
"[ 	c #000001",
"} 	c #031207",
"| 	c #117B29",
"1 	c #0E6B24",
"2 	c #1A726C",
"3 	c #2F8665",
"4 	c #287F67",
"5 	c #559951",
"6 	c #070A05",
"7 	c #031809",
"8 	c #178129",
"9 	c #337C5E",
"0 	c #458B57",
"a 	c #318463",
"b 	c #297F68",
"c 	c #338A65",
"d 	c #298067",
"e 	c #468B57",
"f 	c #37845E",
"g 	c #073412",
"h 	c #41A429",
"i 	c #3A9927",
"j 	c #307E62",
"k 	c #1B726C",
"l 	c #267867",
"m 	c #509152",
"n 	c #298068",
"o 	c #469359",
"p 	c #257C69",
"q 	c #549350",
"r 	c #4E8A51",
"s 	c #156069",
"t 	c #257564",
"u 	c #333334",
"v 	c #175225",
"w 	c #0D6321",
"x 	c #1B8429",
"y 	c #2D4F2E",
"z 	c #267868",
"A 	c #4C8750",
"B 	c #115666",
"C 	c #247265",
"D 	c #1A1A1A",
"E 	c #0B551C",
"F 	c #1A6365",
"G 	c #145D68",
"H 	c #65A048",
"I 	c #43925A",
"J 	c #0A4616",
"K 	c #1C7A25",
"L 	c #2B9229",
"M 	c #258D29",
"N 	c #13591C",
"O 	c #70A342",
"P 	c #619E4B",
"Q 	c #287865",
"R 	c #262627",
"S 	c #318663",
"T 	c #155D66",
"U 	c #166469",
"V 	c #1A6E6B",
"W 	c #458B27",
"X 	c #5F9830",
"Y 	c #6EAD25",
"Z 	c #7ABF1D",
"` 	c #358A27",
" .	c #2F7D62",
"..	c #828939",
"+.	c #A47B41",
"@.	c #C4AA29",
"#.	c #FFFE00",
"$.	c #AD883A",
"%.	c #A8813E",
"&.	c #9A773C",
"*.	c #F1EC08",
"=.	c #A98047",
"-.	c #649731",
";.	c #29671B",
">.	c #41915D",
",.	c #469426",
"'.	c #A87C40",
").	c #F6F207",
"!.	c #B4912F",
"~.	c #9C724E",
"{.	c #CAB226",
"].	c #966C48",
"^.	c #BFA22E",
"/.	c #697B37",
"(.	c #5A9B4F",
"_.	c #BDA076",
":.	c #BA9767",
"<.	c #C8B08D",
"[.	c #EACDA4",
"}.	c #A98669",
"|.	c #673A1D",
"1.	c #5B351A",
"2.	c #5F4C22",
"3.	c #C7994A",
"4.	c #D4A34F",
"5.	c #DAC325",
"6.	c #EDE50D",
"7.	c #E5D816",
"8.	c #E3B945",
"9.	c #E9C935",
"0.	c #B89733",
"a.	c #DAC91A",
"b.	c #EBD328",
"c.	c #DEB740",
"d.	c #8E6238",
"e.	c #D0B595",
"f.	c #DAC2A3",
"g.	c #C6A479",
"h.	c #B9946D",
"i.	c #AC8558",
"j.	c #A37B3A",
"k.	c #C09C76",
"l.	c #D5B48B",
"m.	c #B38C66",
"n.	c #683A20",
"o.	c #734120",
"p.	c #DEAC52",
"q.	c #F4E41B",
"r.	c #F1DC23",
"s.	c #DFD117",
"t.	c #784724",
"u.	c #B6905A",
"v.	c #895B2F",
"w.	c #CCAA82",
"x.	c #DCBC93",
"y.	c #E5CD25",
"z.	c #CCB42B",
"A.	c #BE9249",
"B.	c #D3BC26",
"C.	c #976937",
"D.	c #855734",
"E.	c #B89D82",
"F.	c #FFE6BD",
"G.	c #F2D6AD",
"H.	c #D6B584",
"I.	c #B28C56",
"J.	c #A47B57",
"K.	c #AB8B75",
"L.	c #987B6A",
"M.	c #BEA480",
"N.	c #E3C599",
"O.	c #C6A534",
"P.	c #B68844",
"Q.	c #C8B213",
"R.	c #F6DAAB",
"S.	c #C9B6A9",
"T.	c #C99B4C",
"U.	c #AC854C",
"V.	c #7B4B29",
"W.	c #9A7554",
"X.	c #CAB491",
"Y.	c #7C4C26",
"Z.	c #7A4A1E",
"`.	c #DCAF48",
" +	c #D9A750",
".+	c #81541D",
"++	c #99E3FF",
"@+	c #00BAFF",
"#+	c #26C4D9",
"$+	c #AB8D13",
"%+	c #D9F526",
"&+	c #E5C79D",
"*+	c #DBBB8B",
"=+	c #002534",
"-+	c #F7DDB3",
";+	c #D8D406",
">+	c #262601",
",+	c #DFC192",
"'+	c #26170B",
")+	c #93672F",
"!+	c #EFD3A7",
"~+	c #161A11",
"{+	c #6E502E",
"]+	c #512E17",
"^+	c #4B4B4C",
"/+	c #482917",
"(+	c #0C0C0D",
"_+	c #44935A",
":+	c #3B261A",
"<+	c #378D64",
"[+	c #51522B",
"}+	c #3A6225",
"|+	c #505053",
"1+	c #44935B",
"2+	c #1B2D40",
"3+	c #90AEA1",
"4+	c #93C49F",
"5+	c #5A6C48",
"6+	c #332C25",
"7+	c #3B4517",
"8+	c #4F7628",
"9+	c #699555",
"0+	c #6B8D68",
"a+	c #737373",
"b+	c #2B1914",
"c+	c #2B241D",
"d+	c #070C12",
"e+	c #315273",
"f+	c #EBECEC",
"g+	c #FFFFFF",
"h+	c #0D420D",
"i+	c #B0B2AA",
"j+	c #4A2920",
"k+	c #A8A8AA",
"l+	c #B5B5B5",
"m+	c #1F6417",
"n+	c #2B4413",
"o+	c #838B7B",
"p+	c #583120",
"q+	c #0E0907",
"r+	c #6A4A22",
"s+	c #2A7427",
"t+	c #1C8127",
"u+	c #6EA343",
"v+	c #24541E",
"w+	c #2E731D",
"x+	c #6A8752",
"y+	c #17120D",
"z+	c #2F821F",
"A+	c #348B64",
"B+	c #348B63",
"C+	c #338A64",
"D+	c #246F27",
"E+	c #0B3711",
"F+	c #669E47",
"G+	c #05290E",
"H+	c #217869",
"I+	c #186B6A",
"J+	c #308665",
"K+	c #2D8828",
"L+	c #3B855D",
"M+	c #1A6465",
"N+	c #649A46",
"O+	c #559651",
"P+	c #1D6866",
"Q+	c #180D0A",
"R+	c #122A12",
"S+	c #536457",
"T+	c #28695E",
"U+	c #115A67",
"V+	c #2F7B60",
"W+	c #160D07",
"X+	c #282826",
"                                                                                                                        ",
"                                                            . . . +                                                     ",
"                                                  @         # # # $                                                     ",
"                                            % & % @         $ $ # * = .                                                 ",
"                                            - ; > @           . # # # ,                         @ @ + '                 ",
"                          ) > > )       . > ! ;   ~ { ] ] ] ] ] ] ] ] ] ^ / ( ( ( _         ' ( ( ( ( ( _               ",
"                        @ : ; ; :       < ; ; ;   [ } | | | | | | | | 1 [ [   2 2 3 @       _ 2 2 2 2 2 4               ",
"                        @ < - ; : 5 >   ) ; $ -   6 7 8 | | 8 | 8 | | 1 6 6   9 0 a b c   d ( 0 e e f 2 4               ",
"                              # # # $ @ < ;   [ g | 8 h h h h h h h h i | | 6 [   j k c   2 l ; ; ; m 2 n @ @           ",
"                              > > > o   % >   [ g | 8 h h h h h h h h i | | 6 [   m m 4 p m q ; ; ; r s t               ",
"                                    @ @   u v w 1 | | x x x 8 x 8 8 x 8 | | w w y u   z k ; ; ; ; ; A B C               ",
"                                        D [ E | | | | | | | | | | 8 | | | | | | g [   F G & ) ; H I 9 B C               ",
"                            @           v J K L M L L L L L L L L L L L L L M L N J y       . O P @ Q B C               ",
"                        @ $ : : $   [ [ 1 | L h h h h h h h h h h h h h h h h h M | J [ R     . S T U V 4               ",
"                        @ : ; ; *   [ [ K M W X Y Z Z Z Z X X X X Y Z Y X X X X ` M E [ R        .B s 2 b               ",
"      = ; ; ; -       $ ; ; ;       [ [ i h ..+.@.#.#.#.#.$.%.%.&.@.#.*.=.+.+.+.-.h ;.[ R                               ",
"      >.: : ; 5 . + @ ! : : :       [ 6 ,.h ..'.@.#.#.).).!.%.%.~.{.#.*.%.%.+.+.-.,.;.[ R                   % . . .     ",
"      @   < ; # # ) @ @         [ 7 | | ].%.~.%.^.#.*.+.+.).#.@.+.{.#.#.#.#.$.'.+.+./.| 1 [ [               (.; # # .   ",
"        @ o $ $ $ = @           [ } | | &.%.%.%.{.#.*.+.+.).#.@.+.@.#.#.#.#.$.+.+.+./.| 1 [ [           . I ! ; H $ %   ",
"            @         _.:.<.[.}.|.1.2.2.3.4.5.6.7.8.9.6.6.0.0.a.6.b.8.c.0.!.7.6.@.+.d.2.2.1.1.e.f.g.h.f.- # # # I       ",
"                      i.j.k.l.m.n.o.o.o.4.p.q.#.r.p.8.#.#.$.'.s.#.q.p.4.+.+.).#.@.+.d.o.o.o.t.g.l.u.+.<.) (.(.(..       ",
"                      ].v.w.[.x.k.h.d.d.y.r.5.z.5.r.b.{.{.j.+.7.#.7.A.u.k.k.{.z.B.a.^.v.C.k.k.[.[.i.D.E.                ",
"                      D.|.w.F.F.F.G.j.j.).#.@.+.{.#.*.+.+.'.+.s.#.a.+.'.l.H.%.+.s.#.a.+.I.F.F.F.F.J.o.K.                ",
"                      K.L.M.l.N.G.N.C.C.s.7.O.P.B.#.).^.O.P.P.{.Q.@.I.:.N.N.=.+.5.q.B.+.I.G.R.x.l.K.J.S.                ",
"                            n.~.l.g.o.o.&.=.T.p.9.#.#.#.#.8.p.C.n.~.l.x.F.F.U.+.T.p.3.+.U.l.w.D.n.                      ",
"                            V.W.X._.Y.Z.&.'.4.p.9.#.).#.).`. +C..+~.x.x.F.F.I.+.3. +3.%.U.X.X.D.V.                      ",
"                              ++@+#+#.#..+n.$.p.p.p.4.'.'.t.o.m.H.[.F.F.F.F.l.l.].n.$+#.%+@+@+                          ",
"                              ++@+#+#.#..+t.P.p.p.p.4.+.+.t.n.m.l.&+F.F.F.F.*+l.].t.$+#.%+@+@+                          ",
"                                =+y #.#.j.j.g.R.H.P.'.Y.Y.h._.&+-+x.u.u.u.u.D.D.C.C.@.#.;+=+=+                          ",
"                                [ >+#.#.$.+.,+F.*++.&.o.o.g.l.G.F.*++.+.+.+.t.o.d.+.@.#.;+[ [                           ",
"        +                       [ '+b.b.)+v.g.[.,+H.w.k.k.[.!+-+F.!+H.H.H.H.i.i.].v.!.b.{.[ [                           ",
"    @ @ @                       [ ~+`.p.t.n.m.l.[.F.F.F.F.F.F.F.F.F.F.F.F.F.x.l.].o.C.p.A.[ [                           ",
"                                    &.j.1.1.].h.g.N.N.N.N.F.F.F.F.G.N.N.N.N.h.h.{+]+t.&.&.^+^+                          ",
"                    @ >.>.+         [ [ [ [ /+o.v.+.+.+.+.-+F.F.F.*+j.+.+.+.t.o.'+[ [ [ R                               ",
"                      $ # %         (+(+[ [ ]+o.d.=.=.=.=.-+F.F.F.,+=.=.=.=.{+o.'+[ 6 (+u                               ",
"                  _+< H # .               [ {+j.g.F.F.F.F.F.F.F.F.F.F.F.F.F.U.%.:+[                                     ",
"                  , ; # # .               [ {+j.g.F.F.F.F.F.F.F.F.F.F.F.F.F.U.%.:+[           <+                        ",
"      % - )       , ; , - +     @       N w [+Z.v.].].x.,+x.,+x.x.x.,+l.D.].V.Y.}+w v u |+              o - . @         ",
"      & # (.      , # &         _   [ [ 1 | [+o.o.|.D.l.l.l.l.l.l.l.l.g.n.o.o.t.}+| J [ R               - # < @         ",
"      1+# * (.o   I > %             =+2+3+4+5+6+7+}+8+9+9+9+9+9+9+9+9+9+}+}+7+7+0+4+a+b+c+          I (.H ; )           ",
"      o # # # -                 [ d+e+e+f+g+9+h+E | | | | | | | | | | | | | h+h+i+g+i+j+/+[ [       ) # # ; >     @ @ @ ",
"        & - # -                 b+c+|+|+k+l+5+6+m+| | | | | | | | | | | | | n+n+o+i+L.p+j+'+'+      < ; , & %   5 $ $ $ ",
"          > # -             [ '+n.o.o.o.q+[ /+r+[+| | | | | | | | | | | | | r+o.'+[ b+o.o.n.t.q+[   > # - @   @ $ ; ; # ",
"      @ @ + % %             [ b+V.o.V.V.6 [ ]+r+[+K | K s+8 t+t+t+K | | | | r+o.'+6 b+V.V.t.t.q+[   + . + @ 5 : u+# & . ",
"                <+<+@ @     [ [+l.x.F.F.v+h+w+h W o.o.o.n.*.#.#.#.Q.o.o.o.o.,.h m+h+x+F.-+l.l.y+[           (.; ; # .   ",
"          @       <+@ @ @   [ [+l.x.F.F.v+h+z+h 8+|.Z.|.|.*.#.#.#.Q.o.o.o.n.,.h ;.h+x+F.-+l.l.y+[               @       ",
"        @ @ A+_ B+C+_ _ _ _ _ ; c+c+6+6+} } N x ` ,.,.s+s+i i ,.i ` D+s+,.,.x M E+6 ~+6+6+c+c+                          ",
"        @ ( 2 2 2 2 2 2 2 F+; ; [ [ [ [ [ [ E 8 x h i | | | | | | | | K h h 8 | G+[ [ [ [ [ [                           ",
"      A+3 3 j j j l H+V I+F+; ; J+J+J+J+(+[ G+E+N M M L L L K+L L L L L M M J g } 6 u                                   ",
"      3 2 L+O O O >   M+B N+;   J+B M+@ D [ [ [ g | K h h h h h h h h i | | 6 [ [ [                                     ",
"      3 2  .m O+(.- < P+B m (.Q t s     6+'+Q+Q+R+E N w+w+w+w+w+w+w+w+w+E E ~+Q+y+'+S+                                  ",
"      3 2 k 2 4 ' , O T+B S   B U+  [ [ |.|.p+j+b+[ [ [ [ [ [ [ [ [ [ [ [ [ j+j+n.t./+[                                 ",
"      _ d 4 4 J+  ) - V+C '   C t   [ [ |.t.1.j+b+6 [ [ [ (+(+(+(+6 [ [ [ [ /+j+n.|./+[                                 ",
"                                    [ [ |.o.o.o.p+j+:+[ [           [ q+j+j+n.t.o.o./+[                                 ",
"                                    [ [ |.o.o.o.n.j+:+[ [           [ q+j+j+n.o.o.|./+[                                 ",
"                                        c+W+W+W+W+q+X+                  q+W+W+W+W+W+                                    ",
"                                        D [ [ [ [ [ R                   [ [ [ [ [ [                                     ",
"                                                                                                                        ",
"                                                                                                                        ",
"                                                                                                                        "};
