/* XPM */
static char * face1_cac_xpm[] = {
"60 60 279 2",
"  	c #368D63",
". 	c #3D905F",
"+ 	c #3A8F60",
"@ 	c #368C64",
"# 	c #6FA442",
"$ 	c #629E4A",
"% 	c #3D9060",
"& 	c #45925C",
"* 	c #67A147",
"= 	c #44925B",
"- 	c #539953",
"; 	c #70A442",
"> 	c #4B9557",
", 	c #599B4F",
"' 	c #348A63",
") 	c #499459",
"! 	c #5E9C4C",
"~ 	c #5A9B4F",
"{ 	c #328964",
"] 	c #2C8367",
"^ 	c #69A146",
"/ 	c #4E9754",
"( 	c #298068",
"_ 	c #1A726C",
": 	c #2F8665",
"< 	c #287F67",
"[ 	c #559951",
"} 	c #41915D",
"| 	c #267867",
"1 	c #166469",
"2 	c #337C5E",
"3 	c #458B57",
"4 	c #318463",
"5 	c #297F68",
"6 	c #338A65",
"7 	c #298067",
"8 	c #468B57",
"9 	c #37845E",
"0 	c #247265",
"a 	c #105667",
"b 	c #4B8650",
"c 	c #70A342",
"d 	c #307E62",
"e 	c #1B726C",
"f 	c #509152",
"g 	c #469359",
"h 	c #208200",
"i 	c #308665",
"j 	c #257C68",
"k 	c #1E736B",
"l 	c #166769",
"m 	c #3B855D",
"n 	c #257C69",
"o 	c #000000",
"p 	c #4E8A51",
"q 	c #156069",
"r 	c #257564",
"s 	c #4FB000",
"t 	c #78D200",
"u 	c #82E300",
"v 	c #329400",
"w 	c #2B8C00",
"x 	c #267868",
"y 	c #181010",
"z 	c #824141",
"A 	c #351B1B",
"B 	c #4C8750",
"C 	c #115666",
"D 	c #595249",
"E 	c #92914F",
"F 	c #82AD16",
"G 	c #5AC700",
"H 	c #37A800",
"I 	c #5BD000",
"J 	c #43B700",
"K 	c #2C9A00",
"L 	c #68CA00",
"M 	c #89982C",
"N 	c #766B4B",
"O 	c #684747",
"P 	c #5B974D",
"Q 	c #207669",
"R 	c #3B8F60",
"S 	c #1A6365",
"T 	c #AB6B6B",
"U 	c #0D0A0A",
"V 	c #65A048",
"W 	c #43925A",
"X 	c #82C80B",
"Y 	c #79A614",
"Z 	c #46A302",
"` 	c #3CB400",
" .	c #76AC25",
"..	c #82DB03",
"+.	c #387116",
"@.	c #6EA343",
"#.	c #3B845C",
"$.	c #155D66",
"%.	c #2B1F24",
"&.	c #C88973",
"*.	c #619E4B",
"=.	c #287865",
"-.	c #6A483C",
";.	c #829A1D",
">.	c #825539",
",.	c #55B700",
"'.	c #3C8F61",
").	c #1D6866",
"!.	c #125767",
"~.	c #C38282",
"{.	c #130B0B",
"].	c #318663",
"^.	c #1A6E6B",
"/.	c #AF746B",
"(.	c #BC7C7C",
"_.	c #211212",
":.	c #D49579",
"<.	c #BDF079",
"[.	c #FFFFFF",
"}.	c #98E82D",
"|.	c #8E4D4C",
"1.	c #D8987B",
"2.	c #2A1817",
"3.	c #432222",
"4.	c #9B5A5A",
"5.	c #915050",
"6.	c #2F7D62",
"7.	c #C2846D",
"8.	c #D99882",
"9.	c #BC856E",
"0.	c #8C7939",
"a.	c #967B54",
"b.	c #AA8483",
"c.	c #A37855",
"d.	c #DEA78C",
"e.	c #4B322A",
"f.	c #D89782",
"g.	c #B27171",
"h.	c #A76969",
"i.	c #AB6A5C",
"j.	c #E3A282",
"k.	c #976C57",
"l.	c #8A6657",
"m.	c #462727",
"n.	c #D5AD99",
"o.	c #A26157",
"p.	c #523737",
"q.	c #855858",
"r.	c #562C2C",
"s.	c #332321",
"t.	c #1D0E0E",
"u.	c #C7BCB8",
"v.	c #C3C3C3",
"w.	c #D08F82",
"x.	c #9C6868",
"y.	c #74504D",
"z.	c #936262",
"A.	c #B8B6B6",
"B.	c #663535",
"C.	c #DFC9BE",
"D.	c #F6E0D5",
"E.	c #CDAFA7",
"F.	c #353535",
"G.	c #726C6C",
"H.	c #969696",
"I.	c #AAAAAA",
"J.	c #424242",
"K.	c #595959",
"L.	c #575353",
"M.	c #826E6E",
"N.	c #8E8E8E",
"O.	c #0A0505",
"P.	c #CBCBCB",
"Q.	c #858585",
"R.	c #F5F5F5",
"S.	c #1B1B1B",
"T.	c #CA8982",
"U.	c #6F6F6F",
"V.	c #D7D7D7",
"W.	c #E9E9E9",
"X.	c #797979",
"Y.	c #2C2C2C",
"Z.	c #252525",
"`.	c #93524C",
" +	c #ECC1AC",
".+	c #435723",
"++	c #646464",
"@+	c #773333",
"#+	c #9D9B9D",
"$+	c #170017",
"%+	c #5A8425",
"&+	c #5B3B39",
"*+	c #1C3403",
"=+	c #47561F",
"-+	c #DDDDDD",
";+	c #4C3737",
">+	c #45C500",
",+	c #1A5700",
"'+	c #2B002B",
")+	c #8B2623",
"!+	c #132E02",
"~+	c #1F3273",
"{+	c #173357",
"]+	c #195C97",
"^+	c #124D6B",
"/+	c #495E63",
"(+	c #197E97",
"_+	c #1B8AA6",
":+	c #0F4D5D",
"<+	c #20A2C3",
"[+	c #209AC3",
"}+	c #2065C3",
"|+	c #061327",
"1+	c #103162",
"2+	c #44935A",
"3+	c #2076C3",
"4+	c #4C130C",
"5+	c #154182",
"6+	c #2B2062",
"7+	c #2C4160",
"8+	c #2C0A02",
"9+	c #B53427",
"0+	c #360B00",
"a+	c #378D64",
"b+	c #318865",
"c+	c #418C5B",
"d+	c #8E1C00",
"e+	c #CB3725",
"f+	c #DA3D38",
"g+	c #A22000",
"h+	c #100300",
"i+	c #1F746A",
"j+	c #230700",
"k+	c #DC520F",
"l+	c #44935B",
"m+	c #4F9151",
"n+	c #3E885B",
"o+	c #206663",
"p+	c #699F46",
"q+	c #4A8E54",
"r+	c #AF2913",
"s+	c #70A443",
"t+	c #4C864F",
"u+	c #669E47",
"v+	c #217869",
"w+	c #AA1831",
"x+	c #368360",
"y+	c #509755",
"z+	c #397A58",
"A+	c #2C6E5D",
"B+	c #28695E",
"C+	c #26685E",
"D+	c #145D68",
"E+	c #1C6B67",
"F+	c #631C1C",
"G+	c #330033",
"H+	c #407D54",
"I+	c #1A6465",
"J+	c #1D001D",
"K+	c #330F0F",
"L+	c #E34141",
"M+	c #A82306",
"N+	c #338A64",
"O+	c #9F281C",
"P+	c #821031",
"Q+	c #1F756C",
"R+	c #348B64",
"S+	c #348B63",
"T+	c #247767",
"U+	c #1A6E6C",
"V+	c #3D8F5F",
"W+	c #649A46",
"X+	c #A3A3A3",
"Y+	c #186B6A",
"Z+	c #57954D",
"`+	c #659F48",
" @	c #559651",
".@	c #115A67",
"+@	c #2F7B60",
"                                                                                                                        ",
"                                                            . . . +                                                     ",
"                                                  @         # # # $                                                     ",
"                                            % & % @         $ $ # * = .                                                 ",
"                                            - ; > @           . # # # ,                         @ @ + '                 ",
"                          ) > > )       . > ! ; >             + ~ ~ , >   { ] ] ] {         ' ] ] ] ] ] {               ",
"                        @ ^ ; ; ^       / ; ; ; >                         ( _ _ _ : @       { _ _ _ _ _ <               ",
"                        @ / - ; ^ [ >   ) ; $ - }                         | 1 2 3 4 5 6   7 ] 3 8 8 9 _ <               ",
"                              # # # $ @ / ; -                             0 a b c d e 6   _ | ; ; ; f _ ( @ @           ",
"                              > > > g   % > }           h h           i j k l m / f f < n o o ; ; ; p q r               ",
"                                    @ @ @ @     h h h s t u v h h w   ] e e e 7 6 $ c x y z z A ; ; B C 0               ",
"                                          D E F G h H I u u J K w L M N O P P m Q R & S A T A U V W 2 C 0               ",
"                            @             h L X Y Z ` I u u J Z Z  ...s +.c @.#.e i @ $.%.&.U c *.@ =.C 0               ",
"                        @ $ ^ ^ $ @     -.h L ;.>.t v s u u v ,.X z X J +.z '.+ { ).$.!.%.~.{.. ].$.1 ^.<               ",
"                        @ ^ ; ; * z /.~.(.z _.-.:.z X <.[.[.}.Y |.1.2.3.|.&.~.4.' ).C C 5.~.U   6.C q _ 5               ",
"      = ; ; ; -       $ ; ; ;     7.1.8.&.2.N 9.1.7.0.a.b.9.a.c.(.d./.-.e.f.f.:.g.  @ z h.4.                            ",
"      } ^ ^ ; [ . + @ ! ^ ^ ^   i.j./.k.l.m.9.j.n.j.i.o.o.i.i./.1.n.j.l.p.k.k.&.:.4.A q.T r.                % . . .     ",
"      @   / ; # # ) @ @       i.j.j.s.o t.~.j.n.u.j.j.j.j.1.j.j.d.v.j.w.x.o o y.j.j.|.h.z.o                 ~ ; # # .   ",
"        @ g $ $ $ = @     z &.j.:.o /.j.j.j.u.b.|.d.1.j.j.1.j.j.:.z A.n.j.1.1.-.s.j.j.h.B.o             . W ! ; V $ %   ",
"            @             >.&.j.:.o 9.C.D.D.b.O A e.&.j.j.j.j.k.m.2.q.E.D.D.C.D A j.j.i.r.o             - # # # W       ",
"                          4.&.8.1.F.G.H.I.I.O p.J.K.l.k.k.c.k.N L.J.r.M.I.I.N.L.O j.8.g.-.o             ) ~ ~ ~ .       ",
"                        O.~.~.w.j.b.s.o o o o K.P.[.F.o o O.o Q.R.v.S.o o o O.O T.j.T.~.4.o                             ",
"                        U ~.~.~.~.z _.p.(.z t.U.V.o P.W.v.v.R.X.Y.[.Z.3.5.~.y m.`.~.~.~.z.o                             ",
"                        O.~.~.~.(.z y p.(.z y y.n.o J.H.W.W.U.Y.%. +2.3.|.~.y m.5.~.~.~.z.o                             ",
"                        O.~.~.(.h.r.{.p.(.r..+l.(.o F.H.W.W.++S.2.f.D p.-.~.y A B.T (.~.z.o                             ",
"                        O.~.~.T @+o o p.g.o H.A.g.o #+v.v.v.v.++S.~.u.K.2.~.y o t.z (.~.z.o                             ",
"                        O.z g.h.@+o o o U z $+K.v.v.Y.o o o o ++v.v.S.m.B.o o o _.z (.4.B.O.                            ",
"                          2.%+ .Y o o o {.g.2.K.P.W.A.I.I.I.I.P.W.v.S.&+q.o o o *+F  .=+                                ",
"                          o w I t o       q.p.L.Q.I.-+W.W.W.W.P.#+Q.;+O L.J.J.S.*+u >+,+                                ",
"                          o w I t o       o x.O o o #+v.v.v.v.++o o h.&+Z.v.v.K.*+u >+,+                                ",
"        +                 o ,+H ` o         '+3.)+y.t.o o o o 3.)+|.U ++C.v.v.L.!+>+h !+                                ",
"    @ @ @                   %..+E q.        ~+{+2.2.r.r.r.r.r.3.2.2.o ++v.v.L.D l.E *+                                  ",
"                              ;+~.T A     o ]+^+o o B.z z z z 3.o o {+/+N.v.S.B.g.~.{.                                  ",
"                    @ } } +   ;+(.z _.    o (+^+o o B.z z z y.3.o o _+:+Z.v.S.m.5.&.{.                                  ",
"                      $ # %     o o o     o (+<+[+}+|+o o o o 1+}+<+<+:+Y.v.y o o o                                     ",
"                  2+/ V # .               o ]+3+3+}+|+] ] ] $+1+}+3+3+1+U J.O.4+@+o                                     ",
"                  , ; # # .                 ~+5+5+5+Q _ _ e   6+5+^+5+7+F.o 8+)+9+0+          a+                        ",
"      % - )       , ; , - +     @ ( ( ( 7 7 b+o o o c+3 3 3 ( 7 o o o ++#+o d+e+f+g+h+                  g - . @         ",
"      & # ~       , # &         { e e e _ _ ( K.I.o , c c ; e i+Z.v.S.o j+g+f+k+k+g+h+                  - # / @         ",
"      l+# * ~ g   W > %       n 7 m+f f n+: | o+J.f p+c c ; f q+n J.@ a+O.0+r+e+9+0+                W ~ V ; )           ",
"      g # # # -               _ r s+c c , @ 0 C t+; c ; # # # u+_ v+    O.0+r+w+)+0+    @           ) # # ; >     @ @ @ ",
"        & - # -               _ k 4 x+& y+$ z+C t+; / = A+B+B+C+D+E+@   j+g+f+F+8+g+g+4+G+! ! @     / ; , & %   [ $ $ $ ",
"          > # -               _ e e v+@ / ; H+C t+# =   $.C a C C I+J+Q.P.o o o K+L+M+M+w+; ^     @ > # - @   @ $ ; ; # ",
"      @ @ + % %               { { { {   @ '.' ].+ .     N+].].].i { J+Q.W.Q.Q.F.8+r+e+r+w+; # * ~ @ + . + @ [ ^ @.# & . ",
"                a+a+@ @                                             J+Q.R.V.P.K.j+g+f+O+P+; ; ; $ @         ~ ; ; # .   ",
"          @       a+@ @ @ Q+e _ _ _ v+@                             J+Q.[.[.P.K.j+g+f+F+                        @       ",
"        @ @ R+{ S+N+{ { { =.| | T+U+Q               + V+. . . V+    J+Q.[.[.P.K.o o o o                                 ",
"        @ ] _ _ _ _ _ _ _ u+; ; W+C S               $ @.# # # * @   J+Q.[.[.P.X+++o                                     ",
"      R+: : d d d | v+^.Y+u+; $ Z+C I+          . = `+; ; ; $ !         A.[.-+P.H.o                                     ",
"      : _ m c c c >   I+C W+;   i C I+@         , # # # # ; @   @       F.[.[.-+H.o                                     ",
"      : _ 6.f  @~ - / ).C f ~ =.r q E+          / , ~ ~ , ~             F.[.[.-+H.o                                     ",
"      : _ e _ < ' , c B+C ].  C .@_ v+                                    L.W.R.A.o                                     ",
"      { 7 < < i   ) - +@0 '   0 r n : @                                     #+V.P.o                                     ",
"                                    @                                       $+N.v.o                                     ",
"                                                                                o o                                     ",
"                                                                                                                        ",
"                                                                                                                        ",
"                                                                                                                        ",
"                                                                                                                        ",
"                                                                                                                        "};
