/* XPM */
static char * face2_xpm[] = {
"60 60 253 2",
"  	c #368D63",
". 	c #3D905F",
"+ 	c #3A8F60",
"@ 	c #368C64",
"# 	c #6FA442",
"$ 	c #629E4A",
"% 	c #3D9060",
"& 	c #45925C",
"* 	c #67A147",
"= 	c #44925B",
"- 	c #539953",
"; 	c #70A442",
"> 	c #59595A",
", 	c #5F896A",
"' 	c #64A974",
") 	c #348A63",
"! 	c #499459",
"~ 	c #4B9557",
"{ 	c #5E9C4C",
"] 	c #333334",
"^ 	c #000001",
"/ 	c #083E15",
"( 	c #117B29",
"_ 	c #073713",
": 	c #3D413F",
"< 	c #2C8367",
"[ 	c #328964",
"} 	c #69A146",
"| 	c #4E9754",
"1 	c #070C05",
"2 	c #094317",
"3 	c #1B8429",
"4 	c #1A726C",
"5 	c #2F8665",
"6 	c #287F67",
"7 	c #559951",
"8 	c #0C5B1E",
"9 	c #268D29",
"0 	c #41A429",
"a 	c #288F29",
"b 	c #0D6221",
"c 	c #458B57",
"d 	c #318463",
"e 	c #297F68",
"f 	c #338A65",
"g 	c #298067",
"h 	c #468B57",
"i 	c #37845E",
"j 	c #2A9129",
"k 	c #70A342",
"l 	c #307E62",
"m 	c #1B726C",
"n 	c #267867",
"o 	c #509152",
"p 	c #298068",
"q 	c #469359",
"r 	c #257C69",
"s 	c #549350",
"t 	c #4E8A51",
"u 	c #156069",
"v 	c #257564",
"w 	c #267868",
"x 	c #4C8750",
"y 	c #115666",
"z 	c #247265",
"A 	c #58675C",
"B 	c #65A048",
"C 	c #43925A",
"D 	c #337C5E",
"E 	c #041F0B",
"F 	c #619E4B",
"G 	c #287865",
"H 	c #1C8227",
"I 	c #5F9830",
"J 	c #73B522",
"K 	c #7ABF1D",
"L 	c #6CAC26",
"M 	c #08220B",
"N 	c #318663",
"O 	c #155D66",
"P 	c #166469",
"Q 	c #1A6E6B",
"R 	c #112B0C",
"S 	c #A47B41",
"T 	c #E8DE10",
"U 	c #FFFF00",
"V 	c #D5C21E",
"W 	c #2F7D62",
"X 	c #E4D913",
"Y 	c #A8813E",
"Z 	c #A2783F",
"` 	c #41915D",
" .	c #404041",
"..	c #357B2F",
"+.	c #9D724F",
"@.	c #9B783A",
"#.	c #BB9C31",
"$.	c #4C382E",
"%.	c #B48945",
"&.	c #D2BA25",
"*.	c #5A9B4F",
"=.	c #B69567",
"-.	c #DDC3A2",
";.	c #7A5632",
">.	c #5B361C",
",.	c #5F4D22",
"'.	c #8A5B2F",
").	c #D2A24F",
"!.	c #EDE50D",
"~.	c #E6C439",
"{.	c #E5BD42",
"].	c #EBD229",
"^.	c #DFD117",
"/.	c #B79535",
"(.	c #C9AA32",
"_.	c #695925",
":.	c #BB966A",
"<.	c #D2B184",
"[.	c #887059",
"}.	c #734120",
"|.	c #DEAC52",
"1.	c #E6DB0F",
"2.	c #845627",
"3.	c #784725",
"4.	c #8A5C38",
"5.	c #D5B48B",
"6.	c #EBCEA5",
"7.	c #CBA982",
"8.	c #C19C76",
"9.	c #A57D55",
"0.	c #A9852E",
"a.	c #F0DA25",
"b.	c #CDB624",
"c.	c #DFC824",
"d.	c #C29348",
"e.	c #C29A5D",
"f.	c #BC9764",
"g.	c #C2A158",
"h.	c #A37C2E",
"i.	c #8D6337",
"j.	c #B38B51",
"k.	c #BB9973",
"l.	c #FFE6BD",
"m.	c #BFA32E",
"n.	c #C9A777",
"o.	c #EDE5D9",
"p.	c #9D7A63",
"q.	c #F5D9AB",
"r.	c #966936",
"s.	c #EDE212",
"t.	c #D9CB09",
"u.	c #E1C299",
"v.	c #F5E717",
"w.	c #F5DAB1",
"x.	c #7B4B2A",
"y.	c #E8CB9E",
"z.	c #C5BA91",
"A.	c #7C4B27",
"B.	c #D9A750",
"C.	c #40CBFF",
"D.	c #00BAFF",
"E.	c #7FDC80",
"F.	c #DCD008",
"G.	c #996E39",
"H.	c #E4D9CC",
"I.	c #80DD7F",
"J.	c #405C67",
"K.	c #082636",
"L.	c #7F921A",
"M.	c #B8925A",
"N.	c #FAE1B7",
"O.	c #80890D",
"P.	c #967118",
"Q.	c #797010",
"R.	c #B28B67",
"S.	c #D2B17F",
"T.	c #DDBE95",
"U.	c #4C4E51",
"V.	c #746243",
"W.	c #512E17",
"X.	c #826F5C",
"Y.	c #B29D85",
"Z.	c #E2CAAE",
"`.	c #E9D1B2",
" +	c #6B6A6A",
".+	c #563118",
"++	c #6879A4",
"@+	c #36569D",
"#+	c #9BAACD",
"$+	c #FFFFFF",
"%+	c #FFF8ED",
"&+	c #0C0C0D",
"*+	c #44935A",
"=+	c #599B4F",
"-+	c #293F2F",
";+	c #378D64",
">+	c #355265",
",+	c #93C49F",
"'+	c #3B4216",
")+	c #3C5921",
"!+	c #537B3D",
"~+	c #699555",
"{+	c #3C2215",
"]+	c #434235",
"^+	c #261511",
"/+	c #4D4A4A",
"(+	c #44935B",
"_+	c #647D96",
":+	c #0D420D",
"<+	c #0F6D22",
"[+	c #72584E",
"}+	c #4B2920",
"|+	c #436A4C",
"1+	c #22130A",
"2+	c #606670",
"3+	c #B3B3B3",
"4+	c #2C4213",
"5+	c #137125",
"6+	c #542F20",
"7+	c #286D27",
"8+	c #1E7824",
"9+	c #A08769",
"0+	c #DFC097",
"a+	c #6EA343",
"b+	c #29251D",
"c+	c #312C24",
"d+	c #3B8627",
"e+	c #409521",
"f+	c #2E731D",
"g+	c #359A29",
"h+	c #4B9027",
"i+	c #348B64",
"j+	c #348B63",
"k+	c #338A64",
"l+	c #669E47",
"m+	c #1A6465",
"n+	c #217869",
"o+	c #186B6A",
"p+	c #57954D",
"q+	c #308665",
"r+	c #3B855D",
"s+	c #649A46",
"t+	c #150C0A",
"u+	c #0E4418",
"v+	c #1C641D",
"w+	c #160C07",
"x+	c #559651",
"y+	c #1D6866",
"z+	c #2D7F64",
"A+	c #328763",
"B+	c #1D1009",
"C+	c #28695E",
"D+	c #2F7B60",
"                                                                                                                        ",
"                                                            . . . +                                                     ",
"                                                  @         # # # $                                                     ",
"                                            % & % @         $ $ # * = .                                                 ",
"                                            - ; > , , ' ' ' ' ' ' ' ' , , >                     @ @ + )                 ",
"                          ! ~ ~ !       . ~ { ; ] ^ / ( ( ( ( ( ( ( ( _ ^ : < < < [         ) < < < < < [               ",
"                        @ } ; ; }       | ; ; ; : 1 2 ( ( ( ( ( 3 ( ( 2 ^ : 4 4 4 5 @       [ 4 4 4 4 4 6               ",
"                        @ | - ; } 7 ~   ! ; ^ ^ 8 ( 9 0 0 0 0 0 0 0 0 a ( b ^ ^ c d e f   g < c h h i 4 6               ",
"                              # # # $ @ | ; ^ ^ 8 ( a 0 0 0 0 0 0 0 0 j ( 8 ^ ^ k l m f   4 n ; ; ; o 4 p @ @           ",
"                              ~ ~ ~ q   ] ] b b ( ( ( 3 3 3 3 3 3 3 3 ( ( ( b b ] ]   6 r o s ; ; ; t u v               ",
"                                    @   ^ ^ ( ( ( ( ( ( ( ( ( ( ( ( ( ( ( ( ( ( ^ ^   w m ; ; ; ; ; x y z               ",
"                                      A 2 2 j j j a j j j 9 a a j j j j j j j j 2 2 A     & ! ; B C D y z               ",
"                            @       ^ E ( ( 0 0 0 0 0 0 0 0 0 0 0 0 0 0 0 0 0 0 ( ( E ^     . k F @ G y z               ",
"                        @ $ } } $   ^ E H 9 I I J K K K J I I I I J K L I I I I 9 3 M ^       . N O P Q 6               ",
"                        @ } ; ; *   ^ R 0 0 S S T U U U T S S S S T U V S S S S 0 0 R ^         W y u 4 e               ",
"      = ; ; ; -       $ ; ; ;       ^ R 0 0 S S T U U U X Y Y S S T U V Y Z S S 0 0 R ^                                 ",
"      ` } } ; 7 . + @ { } } }  .^ / ( ..+.Y @.S T U V S #.U U S S T U U U T S S S S ..( / ^  .              % . . .     ",
"      @   | ; # # ! @ @       $.^ 2 ( ..@.%.S S T U &.@.#.U U S S T U U U T S S S S ..( / ^  .              *.; # # .   ",
"        @ q $ $ $ =   =.=.-.-.;.>.>.,.'.).).!.!.~.{.].!.^././.!.!.~.{.(./.(.!.!.S S _.,.>.>.;.-.-.=.:.  . C { ; B $ %   ",
"            @         S S <.<.[.}.}.}.'.|.|.U U ~.|.].U 1.%.S U U ~.|.%.@.#.U U S S 2.}.3.}.4.5.5.S Z   - # # # C       ",
"                      2.'.6.6.7.8.9.'.0.a.a.b.b.].a.c.b.(.Z S U U (.d.e.f.g.b.b.V V h.i.j.k.7.6.6.'.'.  ! *.*.*..       ",
"                      }.}.l.l.l.l.<.S #.U U S S T U &.S Z Z S U U m.Z 8.5.n.S S U U #.S 7.l.o.l.l.}.}.                  ",
"                      p.p.5.5.6.q.8.r.0.X X %.%.s.U X #.#.%.%.t.t.%.j.n.u.5.S S v.v./.S n.w.6.5.5.9.p.                  ",
"                          }.}.k.5.9.}.x.S S |.|.v.U U U v.|.|.}.}.k.5.6.l.y.S S |.|.%.S f.5.k.}.}.                      ",
"                          x.x.k.z.9.A.2.Z Z |.|.v.U U U v.).B.3.3.k.5.6.l.6.S %.B.B.%.Z :.z.k.x.x.                      ",
"                              C.D.E.U F.}.}.|.|.|.|.d.S G.}.}.5.5.q.l.l.l.q.5.5.}.}.F.U E.D.C.                          ",
"                              C.D.E.U F.}.}.|.|.|.|.d.S G.}.}.5.5.q.l.l.H.q.5.5.}.}.F.U I.D.C.                          ",
"                              J.K.L.U T G.G.q.q.M.%.r.x.4.8.8.w.N.n.M.M.j.j.;.4.G.G.T U O.K.J.                          ",
"                              : ^ P.U T Y Z l.l.=.Z 4.}.4.5.5.o.l.M.S S S G.}.}.%.Z 1.U P.^  .                          ",
"                              : ^ Q.].&.'.'.R.R.%.Z 9.j.:.6.6.N.N.S.:.j.S G.}.}.;.'.b.].Q.^  .                          ",
"        +                      .^ _.|.d.}.}.}.}.G.Z :.5.T.l.l.l.l.u.5.f.S G.}.}.}.}.%.|._.^  .                          ",
"    @ @ @                       U.V.+.'.W.W.+.+.[.X.Y.Z.`.l.l.l.l.`.`.8. +[.+.+.W..+i.@.V.U.                            ",
"                                    ^ ^ ^ ^ l.l.++@+#+$+%+l.l.l.l.%+$+#+@+++l.l.^ ^ ^ ^                                 ",
"                    @ ` ` +         &+&+^ ^ N.N.++@+#+$+%+l.l.l.l.%+$+#+@+++N.N.^ ^ &+&+                                ",
"                      $ # %             ^ ^ Z Z y.N.l.l.l.l.l.l.l.l.l.l.l.y.S S ^ ^                                     ",
"                  *+| B # .             ^ 1 Z Z y.N.l.l.l.l.l.l.l.l.l.l.l.y.S S ^ ^                                     ",
"                  =+; # # .             b b A.A.i.[.R.T.T.T.T.T.T.T.T.R.[.'.3.A.b b -+]       ;+                        ",
"      % - !       =+; =+- +     @   ^ E ( ( }.}.}.}.9.5.5.5.5.5.5.5.5.9.}.}.}.}.( ( E ^                 q - . @         ",
"      & # *.      =+# &             K.>+,+,+'+'+)+)+!+~+~+~+~+~+~+~+~+!+)+)+{+'+,+,+]+^+/+              - # | @         ",
"      (+# * *.q   C ~ %         ^ K.J._+$+$+:+:+<+( ( ( ( ( ( ( ( ( ( ( 3 <+:+:+$+$+[+}+^+1 ]       C *.B ; !           ",
"      q # # # -               |+1+] U.2+3+3+4+4+5+( ( ( ( ( ( ( ( ( ( ( ( <+4+4+3+3+[+6+{+1+$.      ! # # ; ~     @ @ @ ",
"        & - # -           ^ ^ .+}.}.3.6+^ ^ }.}.7+( ( ( ( ( ( ( ( ( ( ( ( 7+}.}.^ ^ .+3.}.}..+^ ^   | ; =+& %   7 $ $ $ ",
"          ~ # -           ^ ^ >.3.3.3.>.^ 1 }.}.7+8+( 8+( H H H H ( ( ( 3 7+}.}.^ ^ >.x.3.3.>.^ ^ @ ~ # - @   @ $ ; ; # ",
"      @ @ + % %           ^ ^ 9+5.6.H.0+:+:+0 0 _.}.}.}.P.U U U U P.}.}.}._.0 0 :+:+z.l.6.5.9+^ ^ @ + . + @ 7 } a+# & . ",
"                ;+;+@ @   ^ ^ 9+5.6.l.z.:+:+0 0 _.}.}.}.P.U U U U P.}.}.}._.0 0 :+:+z.l.6.5.9+^ ^ @         *.; ; # .   ",
"          @       ;+@ @ @     /+b+c+c+b+1 1 3 3 d+e+..7+f+e+g+e+e+f+7+..h+d+3 3 1 1 b+c+c+b+/+                  @       ",
"        @ @ i+[ j+k+[ [ [ G n  .^ ^ ^ ^ ^ ^ ( ( g+0 j ( ( ( ( ( ( ( ( a 0 g+( ( ^ ^ ^ ^ ^ ^  .                          ",
"        @ < 4 4 4 4 4 4 4 l+; ; ; ; ; m+^ ^ _ _ 8+a j j j j j j j j j j a 8+_ _ ^ ^                                     ",
"      i+5 5 l l l n n+Q o+l+; $ p+y m+q+^ ^ ^ ^ 8 ( a 0 0 0 0 0 0 0 0 j ( 8 ^ ^ ^ ^                                     ",
"      5 4 r+k k k ~   m+y s+;   q+q+q+q+1+1+t+t+u+8 v+f+f+f+f+f+f+f+f+v+8 u+w+t+1+1+                                    ",
"      5 4 W o x+*.- | y+y o *.z+A+  ^ B+}.}.}+}+w+^ ^ ^ ^ ^ ^ ^ ^ ^ ^ ^ ^ t+}+}+}.}.B+^                                 ",
"      5 4 m 4 6 ) =+k C+y N         ^ B+}.}.}+}+t+^ ^ ^ ^ &+&+&+&+^ ^ ^ 1 t+}+}+}.}.B+^                                 ",
"      [ g 6 6 q+  ! - D+z )     A+  ^ B+}.}.}.}.6+}+^+^  .         .^ ^+}+6+}.}.}.}.B+^                                 ",
"                                    ^ 1+}.}.}.}.6+}+^+^  .         .^ ^+}+W.}.}.}.}.B+^                                 ",
"                                        w+w+w+w+w+1                     w+w+w+w+t+t+                                    ",
"                                        ^ ^ ^ ^ ^ ^                     ^ ^ ^ ^ ^ ^                                     ",
"                                                                                                                        ",
"                                                                                                                        ",
"                                                                                                                        ",
"                                                                                                                        "};
