/* XPM */
static char * face1_xpm[] = {
"60 60 282 2",
"  	c #368D63",
". 	c #3D905F",
"+ 	c #3A8F60",
"@ 	c #368C64",
"# 	c #6FA442",
"$ 	c #629E4A",
"% 	c #3D9060",
"& 	c #45925C",
"* 	c #67A147",
"= 	c #44925B",
"- 	c #539953",
"; 	c #70A442",
"> 	c #59595A",
", 	c #5F896A",
"' 	c #64A974",
") 	c #5E7464",
"! 	c #348A63",
"~ 	c #499459",
"{ 	c #4B9557",
"] 	c #5E9C4C",
"^ 	c #262627",
"/ 	c #000001",
"( 	c #0C4E1A",
"_ 	c #107B29",
": 	c #063111",
"< 	c #2C8367",
"[ 	c #328964",
"} 	c #69A146",
"| 	c #4E9754",
"1 	c #1C4125",
"2 	c #15661F",
"3 	c #238B29",
"4 	c #0C531C",
"5 	c #494B49",
"6 	c #1A726C",
"7 	c #2F8665",
"8 	c #287F67",
"9 	c #559951",
"0 	c #0E6D24",
"a 	c #2D9329",
"b 	c #41A429",
"c 	c #19191A",
"d 	c #458B57",
"e 	c #318463",
"f 	c #297F68",
"g 	c #338A65",
"h 	c #298067",
"i 	c #468B57",
"j 	c #37845E",
"k 	c #031307",
"l 	c #399E29",
"m 	c #152C17",
"n 	c #1B726C",
"o 	c #267867",
"p 	c #509152",
"q 	c #298068",
"r 	c #469359",
"s 	c #020C05",
"t 	c #257C69",
"u 	c #549350",
"v 	c #4E8A51",
"w 	c #156069",
"x 	c #257564",
"y 	c #267868",
"z 	c #4C8750",
"A 	c #115666",
"B 	c #247265",
"C 	c #167527",
"D 	c #3CA029",
"E 	c #309629",
"F 	c #65A048",
"G 	c #43925A",
"H 	c #337C5E",
"I 	c #3F8964",
"J 	c #248133",
"K 	c #70A342",
"L 	c #619E4B",
"M 	c #287865",
"N 	c #17390F",
"O 	c #818939",
"P 	c #B0CD18",
"Q 	c #BCDF0E",
"R 	c #99AC28",
"S 	c #798B37",
"T 	c #061A06",
"U 	c #318663",
"V 	c #155D66",
"W 	c #166469",
"X 	c #1A6E6B",
"Y 	c #9D753D",
"Z 	c #A47B41",
"` 	c #F6F206",
" .	c #FFFF00",
"..	c #DFD117",
"+.	c #F2EB0A",
"@.	c #CAB127",
"#.	c #AC863B",
"$.	c #2F7D62",
"%.	c #295425",
"&.	c #6A9333",
"*.	c #E7D916",
"=.	c #DACA1A",
"-.	c #C4A929",
";.	c #B89635",
">.	c #A98148",
",.	c #164715",
"'.	c #41915D",
").	c #477429",
"!.	c #C4A92B",
"~.	c #28742B",
"{.	c #372923",
"].	c #160C0A",
"^.	c #166E24",
"/.	c #5C6823",
"(.	c #AB8242",
"_.	c #B28F37",
":.	c #F0E414",
"<.	c #FAF40B",
"[.	c #EBE30A",
"}.	c #110B06",
"|.	c #4F7B59",
"1.	c #5A9B4F",
"2.	c #D5B48B",
"3.	c #825433",
"4.	c #734120",
"5.	c #673C23",
"6.	c #956A37",
"7.	c #DEAC52",
"8.	c #E2B648",
"9.	c #F2DE21",
"0.	c #AD883B",
"a.	c #B98B46",
"b.	c #84562C",
"c.	c #784723",
"d.	c #683B1D",
"e.	c #946844",
"f.	c #D0AE83",
"g.	c #BCB4A5",
"h.	c #FFE6BD",
"i.	c #F9DFB6",
"j.	c #F3D8AF",
"k.	c #F1D5AC",
"l.	c #C19C6C",
"m.	c #C4A16A",
"n.	c #C6A477",
"o.	c #F5DAB1",
"p.	c #FFEFD4",
"q.	c #B17F3F",
"r.	c #B29473",
"s.	c #DABA8A",
"t.	c #B4863D",
"u.	c #DFC093",
"v.	c #CDBAAD",
"w.	c #A37A56",
"x.	c #E5C79D",
"y.	c #AB835D",
"z.	c #CA9B4B",
"A.	c #D8BE29",
"B.	c #A68614",
"C.	c #A27F1F",
"D.	c #EBCD31",
"E.	c #CBAB83",
"F.	c #CEBCB1",
"G.	c #9A6F4B",
"H.	c #D3A34C",
"I.	c #EED2A9",
"J.	c #A98563",
"K.	c #82B4B6",
"L.	c #9CA470",
"M.	c #BA9251",
"N.	c #BAAF8A",
"O.	c #8FA8A3",
"P.	c #AB9B93",
"Q.	c #26C4FF",
"R.	c #00BAFF",
"S.	c #99DE5E",
"T.	c #CEBD0B",
"U.	c #7B4B26",
"V.	c #66CD8E",
"W.	c #59C9F3",
"X.	c #26ADDF",
"Y.	c #009ED9",
"Z.	c #D1C00D",
"`.	c #895B39",
" +	c #DABB92",
".+	c #E9CEA7",
"++	c #959108",
"@+	c #8C6B32",
"#+	c #4A2A15",
"$+	c #6B650A",
"%+	c #E5E5E6",
"&+	c #506AA5",
"*+	c #335299",
"=+	c #685648",
"-+	c #5B5562",
";+	c #788AAE",
">+	c #D9D9D9",
",+	c #5A481E",
"'+	c #FFFFFF",
")+	c #FBF8F4",
"!+	c #594B48",
"~+	c #EBEBEB",
"{+	c #4C381D",
"]+	c #3F231B",
"^+	c #28170C",
"/+	c #8A90A8",
"(+	c #C5C5C5",
"_+	c #DAC7B4",
":+	c #6374A2",
"<+	c #DFD1BD",
"[+	c #191714",
"}+	c #B1B8CC",
"|+	c #FBF4EA",
"1+	c #8397C4",
"2+	c #1A130D",
"3+	c #949495",
"4+	c #B9BABA",
"5+	c #44935A",
"6+	c #599B4F",
"7+	c #072A0E",
"8+	c #1C7428",
"9+	c #674A21",
"0+	c #378D64",
"a+	c #213447",
"b+	c #32505E",
"c+	c #6E8595",
"d+	c #E7F2EA",
"e+	c #15420F",
"f+	c #58452E",
"g+	c #4B2920",
"h+	c #2A1915",
"i+	c #44935B",
"j+	c #27352E",
"k+	c #0D420D",
"l+	c #502D20",
"m+	c #523B2D",
"n+	c #644831",
"o+	c #575553",
"p+	c #4F4119",
"q+	c #336726",
"r+	c #553019",
"s+	c #62371B",
"t+	c #0B0605",
"u+	c #626423",
"v+	c #386425",
"w+	c #70B019",
"x+	c #8F7652",
"y+	c #885E1B",
"z+	c #D9C7A1",
"A+	c #CAB390",
"B+	c #6EA343",
"C+	c #0B360C",
"D+	c #6A5322",
"E+	c #DBEB06",
"F+	c #389628",
"G+	c #1F756C",
"H+	c #4BA02B",
"I+	c #348B64",
"J+	c #348B63",
"K+	c #338A64",
"L+	c #669E47",
"M+	c #307E62",
"N+	c #217869",
"O+	c #186B6A",
"P+	c #57954D",
"Q+	c #1A6465",
"R+	c #649479",
"S+	c #3B855D",
"T+	c #649A46",
"U+	c #308665",
"V+	c #311B15",
"W+	c #10340F",
"X+	c #559651",
"Y+	c #1D6866",
"Z+	c #5A3320",
"`+	c #28695E",
" @	c #115A67",
".@	c #666667",
"+@	c #0F0F10",
"@@	c #2F7B60",
"#@	c #45291B",
"$@	c #2F2925",
"                                                                                                                        ",
"                                                            . . . +                                                     ",
"                                                  @         # # # $                                                     ",
"                                            % & % @         $ $ # * = .                                                 ",
"                                            - ;   > , ' ' ' ' ' ' ' ' ) >                       @ @ + !                 ",
"                          ~ { { ~       . { ] ; ^ / ( _ _ _ _ _ _ _ _ : / > < < < [         ! < < < < < [               ",
"                        @ } ; ; }       | ;     1 : 2 3 3 3 3 3 3 3 3 4 : 5     6 7 @       [ 6 6 6 6 6 8               ",
"                        @ | - ; } 9 {   ~   / / 0 _ a b b b b b b b b 3 _ 4 / c d e f g   h < d i i j 6 8               ",
"                              # # # $ @     k k 0 _ a l l l l l l l l 3 _ 4 k m     n g   6 o ; ; ; p 6 q @ @           ",
"                              { { { r   / s _ _ _ _ _ _ _ _ _ _ _ _ _ _ _ _ _ 0 / /   8 t p u ; ; ; v w x               ",
"                                    @   / s _ _ _ _ _ _ _ _ _ _ _ _ _ _ _ _ _ _ / /   y n ; ; ; ; ; z A B               ",
"                                    c m 0 C D D D D D l l l D D D l D D D l D E 0 0 m c   & ~ ; F G H A B               ",
"                            @     I / : _ J b b b b b b l b b b b b b b b b b D _ _ k /     . K L @ M A B               ",
"                        @ $ } } $ I / N E E O O P Q Q Q P O O O O P Q R O S O S a E T /       . U V W X 8               ",
"                        @ } ; ; * I / N b b Y Z `  . . ...Z Z Z Z +. .@.Z Z Z #.D b T /         $.A w 6 f               ",
"      = ; ; ; -       $ ; ; ;     5 : %.&.&.Z Z +. .*.=.=.@.-.Z Z +. ...@.;.#.>.&.&.,.:                                 ",
"      '.} } ; 9 . + @ ] } } } ^ / ( 3 ).Z Z Z Z +. .!.Z -. .` Z Z +. . . ...Z Y Z Z ~._ : /                 % . . .     ",
"      @   | ; # # ~ @         {.].( ^./.(.(._._.:.<.@._.@.+.[._._.:.<.+.+.=._._.Z Z ~.~.N }.|.              1.; # # .   ",
"        @ r $ $ $ =   Z >.2.2.3.4.4.5.6.7.8. . .8.7.9. ...Z 0. . .8.7.a.Z !. .` Z Z b.c.d.d.e.2.f.Z Z   . G ] ; F $ %   ",
"            @         Z Z 2.2.3.d.4.4.6.7.8. . .8.7.9. ...Z 0. . .8.7.a.>.!. .` Z Z c.d.b.5.e.2.f.Z Z   - # # # G       ",
"                    g.c.3.h.i.j.k.l.Y -.<.+.0.0.:.<.@.#.#.Z 0. . .;.(.l.f.m.0._.` +.0.Y n.o.o.i.k.c.c.  ~ 1.1.1..       ",
"                    g.4.3.p.i.h.h.m.q.-. .` Z Z +. .@.Z Z Y #. . ._.Z r.s.l.q.t. . ._.#.u.h.p.i.k.4.4.                  ",
"                      v.v.w.w.s.x.y.b.6.-.!.z.z.<. .:...A.z.z.B.C.r.m.x.k.s.Y Z D.D.#.q.n.x.E.w.w.F.F.                  ",
"                          5.5.n.2.G.4.b.Z (.7.7.<. . . .9.7.H.d.c.n.2.I.h.u.Z (.7.7.Z Y r.s.J.4.3.                      ",
"                          r.r.K.K.L.B.C.6.6.7.7.D.9...=.@.t.q.G.G.u.x.o.h.x.M.M.(.(.!.@.N.K.O.r.P.                      ",
"                              Q.R.S. .T.4.U.7.7.7.7.a.Z 6.5.b.2.2.i.h.h.h.k.2.E.4.4.[. .V.R.W.                          ",
"                              X.Y.S. .Z.c.b.a.a.H.H.a.Y 6.b.`. + +o.i.k..+ +r.r.c.U.[. .V.Y.W.                          ",
"                              ^ / ++ ...q.Y / / @+Z b.4.e.2.s.h.h. +2.G.4.#+/ ].Z Y +. .$+/                             ",
"                              ^ / ++ ...Y 6./ / @+Z b.4.e.2.2.h.p. +2.G.4.#+/ ].Z q.+. .$+/                             ",
"                              ^ / @+8.;.U.3.%+%+&+*+=+c.w.i.h.h.h.e.b.-+*+;+%+>+c.c.H.8.,+/                             ",
"        +                     ^ / @+8.t.4.3.'+)+&+*+!+5.w.h.h.h.h.`.d.-+*+;+'+~+4.4.z.7.,+/                             ",
"    @ @ @                         =+{+]+^+{.p.p.&+*+/+(+_+h.h.h.h.F.v.:+*+;+p.<+^+^+{+{+                                ",
"                                    s s / [+h.p.&+*+}+'+|+h.h.h.h.)+'+1+*+;+h.I./ / / /                                 ",
"                    @ '.'.+             / 2+s.s.3+/+(+|+p.h.p.h.h.|+|+4+/+P. +n./ /                                     ",
"                      $ # %             / }.Z Z I.h.h.h.h.h.h.h.h.h.h.h.h.u.Z 6./ /                                     ",
"                  5+| F # .             k T Z Y x..+o.h.o.j.o.h.i.i.i.I..+f.Y @+k k                                     ",
"                  6+; # # .         / 7+_ 8+5.4.4.c.y.2.2.2.2.2.2.2.2.G.5.4.5.9+_ _ k /       0+                        ",
"      % - ~       6+; 6+- +     @   / 7+_ C 4.4.4.4.J.s.2.2.2.2.2.2.2.w.4.4.4.9+_ _ k /                 r - . @         ",
"      & # 1.      6+# &         c a+b+c+d+>+e+e+C C ~.J J J 8+J J J ~.8+8+2 e+%.d+d+f+g+h+c             - # | @         ",
"      i+# * 1.r   G { %       j+/ a+b+;+'+d+k+k+0 _ _ _ _ _ _ _ _ _ _ _ _ 0 k+%.'+'+!+g+2+/         G 1.F ; ~           ",
"      r # # # -               l+#+m+n+!+> o+p+p+C _ _ _ _ _ _ _ _ _ _ _ _ q+{+p+> > 5.5.r+#+m+      ~ # # ; {     @ @ @ ",
"        & - # -           / / s+4.n+5.#+s t+4.4.8+^.0 _ 3 _ _ _ _ _ _ _ _ q+4.d./ / s+4.4.4.#+/ c   | ; 6+& %   9 $ $ $ ",
"          { # -           / t+=+G.w.J.=+T 7+u+u+).v+).v+).w+w+w+w+).v+v+v+)././.T T x+J.G.G.n+/ c @ { # - @   @ $ ; ; # ",
"      @ @ + % %           / / r. +k.p.L.k+k+D l 9+d.4.d.C. . . . .y+d.4.4.u+l l k+k+z+p..+A+x+/ c @ + . + @ 9 } B+# & . ",
"                0+0+@ @   ^ ^ J.r.2.z+J.C+e+D D D+$+9+,+S E+E+E+E+$+9+9+D+/.F+F+C+C+N.u.E.r.x+j+  @         1.; ; # .   ",
"          @       0+@ @ @ G+n ^ / / / / / k _ _ D D 3 3 _ _ _ 0 3 _ _ E H+E _ 0 / / / / / /                     @       ",
"        @ @ I+[ J+K+[ [ [ M o ^ / / / / / k _ _ D l 3 _ _ _ _ _ J _ _ a b E _ 0 / / / / / /                             ",
"        @ < 6 6 6 6 6 6 6 L+; ; A A A   / / s s 0 3 3 D D E D D D D D 3 J 4 s s / /                                     ",
"      I+7 7 M+M+M+o N+X O+L+; $ P+A Q+R+/ / / / 0 3 l D D D D b D D D 3 _ ( / / / /                                     ",
"      7 6 S+K K K {   Q+A T+;   U+; > !+#+#+V+h+7+7+W+N N N N N N N N : 7+m V+V+#+#+o+>                                 ",
"      7 6 $.p X+1.- | Y+A p 1.M x I / ^+4.5.g+g+t+/ / / / / / / / / / / / ].g+Z+5.5.}./                                 ",
"      7 6 n 6 8 ! 6+K `+A U   A  @I / ^+4.4.Z+Z+h+2+t+/ ^ .@.@.@.@+@/ }.^+V+s+s+5.4.}./                                 ",
"      [ h 8 8 U+  ~ - @@B !   B x I / ^+4.4.4.4.r+g+2+/ >         ^ / h+#@Z+d.b.5.4.}./                                 ",
"                                    ^ {.d.s+s+s+#@#@$@^             ^ {.#@#+d.s+s+s+$@^                                 ",
"                                        / / / / / /                     / / / / / /                                     ",
"                                        / / / / / /                     / / / / / /                                     ",
"                                                                                                                        ",
"                                                                                                                        ",
"                                                                                                                        ",
"                                                                                                                        "};
