/* XPM */
static char *floor1[] = {
/* columns rows colors chars-per-pixel */
"60 60 246 2 ",
"   c #26685E",
".  c #29695D",
"X  c #28695E",
"o  c #2C6E5D",
"O  c #317B5F",
"+  c #337C5E",
"@  c #397A58",
"#  c #115666",
"$  c #105667",
"%  c #115667",
"&  c #125767",
"*  c #115A67",
"=  c #155D66",
"-  c #165D66",
";  c #135C68",
":  c #145D68",
">  c #1A6365",
",  c #196366",
"<  c #1A6366",
"1  c #1B6366",
"2  c #1A6465",
"3  c #1E6B65",
"4  c #1D6866",
"5  c #1C6967",
"6  c #1C6B67",
"7  c #146069",
"8  c #156069",
"9  c #156169",
"0  c #176368",
"q  c #166469",
"w  c #166769",
"e  c #186B6A",
"r  c #1A6E6B",
"t  c #196F6C",
"y  c #1A6E6C",
"u  c #1E7269",
"i  c #1E736B",
"p  c #1F746A",
"a  c #1E756B",
"s  c #1B716C",
"d  c #1A726C",
"f  c #1B726C",
"g  c #1B726D",
"h  c #1F756C",
"j  c #206663",
"k  c #237165",
"l  c #247165",
"z  c #247264",
"x  c #247265",
"c  c #247365",
"v  c #257564",
"b  c #257766",
"n  c #247767",
"m  c #257867",
"M  c #267966",
"N  c #267867",
"B  c #277A67",
"V  c #277B67",
"C  c #2F7B60",
"Z  c #2F7D62",
"A  c #287864",
"S  c #287865",
"D  c #287E67",
"F  c #287F67",
"G  c #2A7F66",
"H  c #2A7F67",
"J  c #2D7F64",
"K  c #207669",
"L  c #217869",
"P  c #21786A",
"I  c #22786A",
"U  c #267868",
"Y  c #257C68",
"T  c #257C69",
"R  c #257C6A",
"E  c #287F68",
"W  c #297F68",
"Q  c #307E62",
"!  c #407D54",
"~  c #35815F",
"^  c #37845E",
"/  c #37845F",
"(  c #3D8259",
")  c #3B845C",
"_  c #3B855D",
"`  c #38845E",
"'  c #3E885B",
"]  c #3C8C5F",
"[  c #3D8F5F",
"{  c #3D905E",
"}  c #3C905F",
"|  c #3D905F",
" . c #3F905E",
".. c #3E905F",
"X. c #3F905F",
"o. c #298067",
"O. c #2A8167",
"+. c #2B8366",
"@. c #2C8165",
"#. c #2F8264",
"$. c #2F8364",
"%. c #2C8366",
"&. c #2C8267",
"*. c #2C8367",
"=. c #2F8665",
"-. c #2E8466",
";. c #2E8566",
":. c #2F8666",
">. c #298068",
",. c #338361",
"<. c #368360",
"1. c #318463",
"2. c #318663",
"3. c #318664",
"4. c #308665",
"5. c #328764",
"6. c #308666",
"7. c #378B61",
"8. c #348A63",
"9. c #348B63",
"0. c #358D62",
"q. c #358C63",
"w. c #358D63",
"e. c #368D62",
"r. c #378D62",
"t. c #368C63",
"y. c #378C63",
"u. c #368D63",
"i. c #378D63",
"p. c #318865",
"a. c #328864",
"s. c #328964",
"d. c #328965",
"f. c #328A64",
"g. c #338A64",
"h. c #338A65",
"j. c #348A64",
"k. c #348B64",
"l. c #358B64",
"z. c #358D64",
"x. c #358D65",
"c. c #368C64",
"v. c #368D64",
"b. c #378D64",
"n. c #388C60",
"m. c #398E61",
"M. c #3A8F60",
"N. c #3B8F60",
"B. c #3A8E61",
"V. c #3B8F61",
"C. c #388E62",
"Z. c #3C8F61",
"A. c #3D9060",
"S. c #4C864F",
"D. c #57954D",
"F. c #5B974D",
"G. c #599B4E",
"H. c #599B4F",
"J. c #5A9B4E",
"K. c #5A9A4F",
"L. c #5A9B4F",
"P. c #5B9B4F",
"I. c #5C9C4D",
"U. c #5E9C4C",
"Y. c #4B8650",
"T. c #4C8650",
"R. c #4C8750",
"E. c #458B57",
"W. c #468B57",
"Q. c #4E8A51",
"!. c #4A8E54",
"~. c #418C5B",
"^. c #4F9151",
"/. c #4B9557",
"(. c #4E9754",
"). c #4F9755",
"_. c #4C9556",
"`. c #4C9557",
"'. c #4C9657",
"]. c #43915B",
"[. c #43925A",
"{. c #43925B",
"}. c #469359",
"|. c #479359",
" X c #44925A",
".X c #44935A",
"XX c #44925B",
"oX c #45925B",
"OX c #44935B",
"+X c #45935B",
"@X c #41915D",
"#X c #42915C",
"$X c #43925C",
"%X c #45925C",
"&X c #489458",
"*X c #499458",
"=X c #489459",
"-X c #499459",
";X c #4A9459",
":X c #4C9558",
">X c #519251",
",X c #509152",
"<X c #509153",
"1X c #549350",
"2X c #559651",
"3X c #509755",
"4X c #519853",
"5X c #539852",
"6X c #539853",
"7X c #539953",
"8X c #559951",
"9X c #579951",
"0X c #579A51",
"qX c #649A46",
"wX c #649A47",
"eX c #659D46",
"rX c #659E47",
"tX c #669E47",
"yX c #699F46",
"uX c #629E49",
"iX c #639F49",
"pX c #629D4B",
"aX c #619E4A",
"sX c #619F4A",
"dX c #619E4B",
"fX c #629E4A",
"gX c #639E4A",
"hX c #659F48",
"jX c #659F49",
"kX c #609D4D",
"lX c #67A147",
"zX c #6EA343",
"xX c #6FA442",
"cX c #68A145",
"vX c #69A145",
"bX c #68A146",
"nX c #69A146",
"mX c #68A047",
"MX c #69A147",
"NX c #6AA146",
"BX c #6CA244",
"VX c #65A048",
"CX c #70A342",
"ZX c #70A441",
"AX c #70A442",
"SX c #70A443",
/* pixels */
"u.u.u.u.u.u.u.u.u.u.u.u.u.u.u.u.u.u.u.u.u.u.u.u.u.u.u.u.u.u.u.u.u.u.u.u.u.u.u.u.u.u.u.u.u.u.u.u.u.u.u.u.u.u.u.u.u.u.u.u.",
"u.u.u.u.u.u.u.u.u.u.u.u.u.u.u.u.u.u.u.u.u.u.u.u.u.u.u.u.u.u.| | | M.u.u.u.u.u.u.u.u.u.u.u.u.u.u.u.u.u.u.u.u.u.u.u.u.u.u.",
"u.u.u.u.u.u.u.u.u.u.u.u.u.u.u.u.u.u.u.u.u.u.u.u.u.c.u.u.u.u.xXxXxXfXu.u.u.u.u.u.u.u.u.u.u.u.u.u.u.u.u.u.u.u.u.u.u.u.u.u.",
"u.u.u.u.u.u.u.u.u.u.u.u.u.u.u.u.u.u.u.u.u.u.A.%XA.c.u.u.u.u.fXfXxXlXXX| u.u.u.u.u.u.u.u.u.u.u.u.u.u.u.u.u.u.u.u.u.u.u.u.",
"u.u.u.u.u.u.u.u.u.u.u.u.u.u.u.u.u.u.u.u.u.u.7XAX/.c.u.u.u.u.u.| xXxXxXH.u.u.u.u.u.u.u.u.u.u.u.u.c.c.M.8.u.u.u.u.u.u.u.u.",
"u.u.u.u.u.u.u.u.u.u.u.u.u.-X/./.-Xu.u.u.| /.U.AX/.u.u.u.u.u.u.M.L.L.H./.u.s.*.*.*.s.u.u.u.u.8.*.*.*.*.*.s.u.u.u.u.u.u.u.",
"u.u.u.u.u.u.u.u.u.u.u.u.c.nXAXAXnXu.u.u.(.AXAXAX/.u.u.u.u.u.u.u.u.u.u.u.u.>.d d d =.c.u.u.u.s.d d d d d F u.u.u.u.u.u.u.",
"u.u.u.u.u.u.u.u.u.u.u.u.c.(.7XAXnX8X/.u.-XAXfX7X@Xu.u.u.u.u.u.u.u.u.u.u.u.N q + E.1.W h.u.o.*.E.W.W.^ d F u.u.u.u.u.u.u.",
"u.u.u.u.u.u.u.u.u.u.u.u.u.u.u.xXxXxXfXc.(.AX7Xu.u.u.u.u.u.u.u.u.u.u.u.u.u.x $ Y.CXQ f h.u.d N AXAXAX,Xd >.c.c.u.u.u.u.u.",
"u.u.u.u.u.u.u.u.u.u.u.u.u.u.u./././.}.u.A./.@Xu.u.u.u.u.u.u.u.u.u.u.u.4.Y i w _ (.,X,XF T ,X1XAXAXAXQ.8 v u.u.u.u.u.u.u.",
"u.u.u.u.u.u.u.u.u.u.u.u.u.u.u.u.u.u.c.c.c.c.u.u.u.u.u.u.u.u.u.u.u.c.u.*.f f f o.h.fXCXU f AXAXAXAXAXR.# x u.u.u.u.u.u.u.",
"u.u.u.u.u.u.u.u.u.u.u.u.u.u.u.u.u.u.u.u.u.u.u.u.u.u.u.u.u.u.u.u.c.4.L ^ F.F.F._ K N.%X> : %X-XAXVX[.+ # x u.u.u.u.u.u.u.",
"u.u.u.u.u.u.u.u.u.u.u.u.u.u.c.u.u.u.u.u.u.u.u.u.u.u.u.u.u.u.u.u.u.=.d _ CXCXzX) f 4.c.= # u.| CXdXc.S # x u.u.u.u.u.u.u.",
"u.u.u.u.u.u.u.u.u.u.u.u.c.fXnXnXfXc.u.u.u.u.u.u.u.u.u.u.u.u.u.u.u.=.d p N 1.Z.M.s.4 = & # u.u.| 2.= q r F u.u.u.u.u.u.u.",
"u.u.u.u.u.u.u.u.u.u.u.u.c.nXAXAXlXc.u.u.u.u.u.u.u.u.u.u.u.u.u.u.u.4.f f f W u.u.8.4 # # * u.u.u.Z # 8 d W u.u.u.u.u.u.u.",
"u.u.u.XXAXAXAX7Xu.u.u.fXAXAXAXu.u.u.u.u.u.u.u.u.u.u.u.u.u.u.u.u.u.u.u.u.u.u.u.u.u.u.c.y.u.u.u.u.u.u.u.u.u.u.u.u.u.u.u.u.",
"u.u.u.@XnXnXAX8X| M.c.U.nXnXnXu.u.u.u.u.u.u.u.u.u.u.u.u.u.u.u.u.u.u.u.u.u.u.u.u.u.u.u.u.u.u.u.u.u.u.u.u.u.u.A.| | | u.u.",
"u.u.u.c.u.(.AXxXxX-Xc.c.u.u.u.u.u.u.u.u.u.u.u.u.u.u.u.u.u.u.u.u.u.u.u.u.u.u.u.u.u.u.u.u.u.u.u.u.u.u.u.u.u.u.L.AXxXxX| u.",
"u.u.u.u.c.}.fXfXfXXXc.u.u.u.u.u.u.u.u.u.u.u.u.u.u.u.u.u.u.u.u.u.u.u.u.u.u.u.u.u.u.u.u.u.u.u.u.u.u.u.u.u.| [.U.AXVXfXA.u.",
"u.u.u.u.u.u.c.u.u.u.u.u.u.u.u.u.u.u.u.u.u.u.u.u.u.u.u.u.u.u.u.u.u.u.u.u.u.u.u.u.u.u.u.u.u.u.u.u.u.u.u.u.7XxXxXxX[.u.u.u.",
"u.u.u.u.u.u.u.u.u.u.u.u.u.u.u.u.u.u.u.u.u.u.u.u.u.u.u.u.u.u.u.u.u.u.u.u.u.u.u.u.u.u.u.u.u.u.u.u.u.u.u.u.-XL.L.L.| u.u.u.",
"u.u.u.u.u.u.u.u.u.u.u.u.u.u.u.u.u.u.u.u.u.u.u.u.u.u.u.u.u.u.u.u.u.u.u.u.u.u.u.u.u.u.u.u.u.u.u.u.u.u.u.u.u.u.u.u.u.u.u.u.",
"u.u.u.u.u.u.u.u.u.u.u.u.u.u.u.u.u.u.u.u.u.u.u.u.u.u.u.u.u.u.u.u.u.u.u.u.u.u.u.u.u.u.u.u.u.u.u.u.u.u.u.u.u.u.u.u.u.u.u.u.",
"u.u.u.u.u.u.u.u.u.u.u.u.u.u.u.u.u.u.u.u.u.u.u.u.u.u.u.u.u.u.u.u.u.u.u.u.u.u.u.u.u.u.u.u.u.u.u.u.u.u.u.u.u.u.u.u.u.u.u.u.",
"u.u.u.u.u.u.u.u.u.u.u.u.u.u.u.u.u.u.u.u.u.u.u.u.u.u.u.u.u.u.u.u.u.u.u.u.u.u.u.u.u.u.u.u.u.u.u.u.u.u.u.u.u.u.u.u.u.u.u.u.",
"u.u.u.u.u.u.u.u.u.u.u.u.u.u.u.u.u.u.u.u.u.u.u.u.u.u.u.u.u.u.u.u.u.u.u.u.u.u.u.u.u.u.u.u.u.u.u.u.u.u.u.u.u.u.u.u.u.u.u.u.",
"u.u.u.u.u.u.u.u.u.u.u.u.u.u.u.u.u.u.u.u.u.u.u.u.u.u.u.u.u.u.u.u.u.u.u.u.u.u.u.u.u.u.u.u.u.u.u.u.u.u.u.u.u.u.u.u.u.u.u.u.",
"u.u.u.u.u.u.u.u.u.u.u.u.u.u.u.u.u.u.u.u.u.u.u.u.u.u.u.u.u.u.u.u.u.u.u.u.u.u.u.u.u.u.u.u.u.u.u.u.u.u.u.u.u.u.u.u.u.u.u.u.",
"u.u.u.u.u.u.u.u.u.u.u.u.u.u.u.u.u.u.u.u.u.u.u.u.u.u.u.u.u.u.u.u.u.u.u.u.u.u.u.u.u.u.u.u.u.u.u.u.u.u.u.u.u.u.u.u.u.u.u.u.",
"u.u.u.u.u.u.u.u.u.u.u.u.u.u.u.u.u.u.u.u.u.u.u.u.u.u.u.u.u.u.u.u.u.u.u.u.u.u.u.u.u.u.u.u.u.u.u.u.u.u.u.u.u.u.u.u.u.u.u.u.",
"u.u.u.u.M.u.u.u.u.u.u.u.u.u.u.u.u.u.u.u.u.u.u.u.u.u.u.u.u.u.u.u.u.u.u.u.u.u.u.u.u.u.u.u.u.u.u.u.u.u.u.u.u.u.u.u.u.u.u.u.",
"u.u.c.c.c.u.u.u.u.u.u.u.u.u.u.u.u.u.u.u.u.u.u.u.u.u.u.u.u.u.u.u.u.u.u.u.u.u.u.u.u.u.u.u.u.u.u.u.u.u.u.u.u.u.u.u.u.u.u.u.",
"u.u.u.u.u.u.u.u.u.u.u.u.u.u.u.u.u.u.u.u.u.u.u.u.u.u.u.u.M.c.c.u.u.u.u.u.u.u.u.u.u.u.u.u.u.u.u.u.u.u.u.u.u.u.u.u.u.u.u.u.",
"u.u.u.u.u.u.u.u.u.u.c.@X@XM.u.u.u.u.u.u.u.u.u.u.u.u.u.u.u.u.c.u.u.u.u.u.u.u.u.u.u.u.u.u.u.u.u.u.u.u.u.u.u.u.u.u.u.u.u.u.",
"u.u.u.u.u.u.u.u.u.u.u.fXxXA.u.u.u.u.u.u.u.u.u.u.u.u.u.u.u.u.u.u.u.u.u.u.u.u.u.u.u.u.u.u.u.u.u.u.u.u.u.u.u.u.u.u.u.u.u.u.",
"u.u.u.u.u.u.u.u.u..X(.VXxX| u.u.u.u.u.u.u.u.u.u.u.c.=.*.*.*.u.u.u.u.u.u.u.u.u.u.u.u.u.u.u.u.u.u.u.u.u.u.u.u.u.u.u.u.u.u.",
"u.u.u.u.u.u.u.u.u.H.AXxXxX| u.u.u.u.u.u.u.u.u.b.u.u.K d d f u.u.u.u.u.u.u.b.u.u.u.u.u.u.u.u.u.b.u.u.u.u.u.u.u.u.u.u.u.u.",
"u.u.u.A.7X-Xu.u.u.H.AXH.7XM.u.u.c.>.>.>.o.o.p.b.=.T ~.E.E.E.>.o.c.u.u.u.u.u.u.u.u.u.u.u.u.u.u.u.u.u.u.u.}.7X| c.u.u.u.u.",
"u.u.u.%XxXL.u.u.u.H.xX%Xu.u.u.u.s.f f f d d >.c.T d H.CXCXAXf p c.c.u.b.u.u.u.u.u.u.u.u.u.u.u.u.u.u.u.u.7XxX(.c.u.u.u.u.",
"u.u.u.OXxXlXL.}.u.[./.A.u.u.u.T o.^.,X,X' =.N j ( ,XyXCXCXAX,X!.T >.c.b.u.u.u.u.u.u.u.u.u.u.u.u.u.u.[.L.VXAX-Xu.u.u.u.u.",
"u.u.u.}.xXxXxX7Xu.u.u.u.u.u.u.d v SXCXCXH.c.x # S.AXCXAXxXxXxXtXd L u.u.u.u.u.u.u.u.u.u.c.u.u.u.u.u.-XxXxXAX/.u.u.c.c.c.",
"u.u.u.u.%X7XxX7Xu.u.u.u.u.u.u.d i 1.<.%X3XfX@ # S.AX(.XXo X X   : 6 c.u.u.u.u.u.u.0XfXfXfXU.U.c.u.u.(.AXH.%XA.u.8XfXfXfX",
"u.u.u.u.u./.xX7Xu.u.u.u.u.u.u.d f f L c.(.AX! # S.xXXXu.= # $ # # 2 u.u.u.u.u.u.u.VXxXxXAXAXnXu.u.c./.xX7Xc.u.c.fXAXAXxX",
"u.u.u.c.c.M.A.A.u.u.u.u.u.u.u.s.s.s.s.u.c.Z.8.2.M.| u.u.g.2.2.2.4.s.u.u.u.u.u.u.u.} } lXAXAXxXlXL.c.M.| M.c.8XnXzXxX%X| ",
"u.u.u.u.u.u.u.u.b.b.c.c.u.u.u.u.u.u.u.u.u.u.u.u.u.u.u.u.u.u.u.u.u.u.u.u.u.u.u.u.u.u.c.nXAXAXAXAXfXc.u.u.u.u.L.AXAXxX| u.",
"u.u.u.u.u.c.u.u.u.b.c.c.c.h f d d d L c.u.u.u.u.u.u.u.u.u.u.u.u.u.u.u.u.u.u.u.u.u.u.u.u.u.u.u.u.u.u.u.u.u.u.u.u.c.u.u.u.",
"u.u.u.u.c.c.k.s.9.g.s.s.s.S N N n y K u.u.u.u.u.u.u.M.[ | | | [ u.u.u.u.u.u.u.u.u.u.u.u.u.u.u.u.u.u.u.u.u.u.u.u.u.u.u.u.",
"u.u.u.u.c.*.d d d d d d d tXAXAXqX# > u.u.u.u.u.u.u.fXzXxXxXxXlXc.u.u.u.u.u.u.u.u.u.u.u.u.u.u.u.u.u.u.u.u.u.u.u.u.u.u.u.",
"u.u.u.k.=.=.Q Q Q N L r e tXAXfXD.# 2 u.u.u.u.u.| XXhXAXAXAXfXU.u.u.u.u.u.u.u.u.u.u.u.u.u.u.u.u.u.u.u.u.u.u.u.u.u.u.u.u.",
"u.u.u.=.d _ CXCXCX/.u.2 # qXAXu.4.# 2 c.u.u.u.u.H.xXxXxXxXAXc.u.c.u.u.u.u.u.u.u.u.u.u.u.u.u.u.u.u.u.u.u.u.u.u.u.u.u.u.u.",
"u.u.u.=.d Z ,X2XL.7X(.4 # ,XL.S v 8 6 u.u.u.u.u.(.H.L.L.H.L.u.u.u.u.u.u.u.u.u.u.u.u.u.u.u.u.u.u.u.u.u.u.u.u.u.u.u.u.u.u.",
"u.u.u.=.d f d F 8.H.CXX # 2.u.# * d L u.u.u.u.u.u.u.u.u.u.u.u.u.u.u.u.u.u.u.u.u.u.u.u.u.u.u.u.u.u.u.u.u.u.u.u.u.u.u.u.u.",
"u.u.u.s.o.F F 4.u.-X7XC x 8.u.x v T =.c.u.u.u.u.u.u.u.u.u.u.u.u.u.u.u.u.u.u.u.u.u.u.u.u.u.u.u.u.u.u.u.u.u.u.u.u.u.u.u.u.",
"u.u.u.u.u.u.u.u.u.u.u.u.u.u.u.u.u.u.c.u.u.u.u.u.u.u.u.u.u.u.u.u.u.u.u.u.u.u.u.u.u.u.u.u.u.u.u.u.u.u.u.u.u.u.u.u.u.u.u.u.",
"u.u.u.u.u.u.u.u.u.u.u.u.u.u.u.u.u.u.u.u.u.u.u.u.u.u.u.u.u.u.u.u.u.u.u.u.u.u.u.u.u.u.u.u.u.u.u.u.u.u.u.u.u.u.u.u.u.u.u.u.",
"u.u.u.u.u.u.u.u.u.u.u.u.u.u.u.u.u.u.u.u.u.u.u.u.u.u.u.u.u.u.u.u.u.u.u.u.u.u.u.u.u.u.u.u.u.u.u.u.u.u.u.u.u.u.u.u.u.u.u.u.",
"u.u.u.u.u.u.u.u.u.u.u.u.u.u.u.u.u.u.u.u.u.u.u.u.u.u.u.u.u.u.u.u.u.u.u.u.u.u.u.u.u.u.u.u.u.u.u.u.u.u.u.u.u.u.u.u.u.u.u.u.",
"u.u.u.u.u.u.u.u.u.u.u.u.u.u.u.u.u.u.u.u.u.u.u.u.u.u.u.u.u.u.u.u.u.u.u.u.u.u.u.u.u.u.u.u.u.u.u.u.u.u.u.u.u.u.u.u.u.u.u.u.",
"u.u.u.u.u.u.u.u.u.u.u.u.u.u.u.u.u.u.u.u.u.u.u.u.u.u.u.u.u.u.u.u.u.u.u.u.u.u.u.u.u.u.u.u.u.u.u.u.u.u.u.u.u.u.u.u.u.u.u.u.",
"u.u.u.u.u.u.u.u.u.u.u.u.u.u.u.u.u.u.u.u.u.u.u.u.u.u.u.u.u.u.u.u.u.u.u.u.u.u.u.u.u.u.u.u.u.u.u.u.u.u.u.u.u.u.u.u.u.u.u.u."
};
