/* XPM */
static char *ladder[] = {
/* columns rows colors chars-per-pixel */
"60 60 99 2 ",
"   c #585C3D",
".  c #7D4E20",
"X  c #5E613B",
"o  c #5E6A3D",
"O  c #786E2D",
"+  c #77742F",
"@  c #79722E",
"#  c #6A6935",
"$  c #626639",
"%  c #65683A",
"&  c #7A6432",
"*  c #736C30",
"=  c #7C6B37",
"-  c #73663A",
";  c #766A3A",
":  c #786D39",
">  c #6F713F",
",  c #737131",
"<  c #2C5455",
"1  c #305F57",
"2  c #26685E",
"3  c #2A6A5D",
"4  c #306157",
"5  c #336959",
"6  c #327C5E",
"7  c #115666",
"8  c #145C66",
"9  c #135D68",
"0  c #1A6366",
"q  c #1C6967",
"w  c #156169",
"e  c #196D6B",
"r  c #1B726C",
"t  c #206663",
"y  c #247365",
"u  c #267967",
"i  c #2B7D65",
"p  c #207669",
"a  c #237969",
"s  c #297F68",
"d  c #307E62",
"f  c #525D41",
"g  c #546140",
"h  c #5A6A49",
"j  c #4D7F4F",
"k  c #557146",
"l  c #597447",
"z  c #5D7748",
"x  c #407555",
"c  c #487D52",
"v  c #437F5A",
"b  c #527F52",
"n  c #667645",
"m  c #687442",
"M  c #607848",
"N  c #845322",
"B  c #8A5623",
"V  c #8E5924",
"C  c #955D26",
"Z  c #87652F",
"A  c #856330",
"S  c #826D34",
"D  c #817835",
"F  c #728D3C",
"G  c #749B3F",
"H  c #36835F",
"J  c #3B855D",
"K  c #3B8A5F",
"L  c #3D905F",
"P  c #2D8466",
"I  c #298068",
"U  c #328563",
"Y  c #368D63",
"T  c #3A8E61",
"R  c #3D9060",
"E  c #57954D",
"W  c #5A9B4E",
"Q  c #4C8553",
"!  c #458B57",
"~  c #4E8B52",
"^  c #43865B",
"/  c #488458",
"(  c #428C5C",
")  c #4C9556",
"_  c #44925B",
"`  c #4A9558",
"'  c #519252",
"]  c #549952",
"[  c #648541",
"{  c #6C9343",
"}  c #659C47",
"|  c #6A9C43",
" . c #629E4A",
".. c #709F40",
"X. c #67A147",
"o. c #6CA244",
"O. c #65A048",
"+. c #70A442",
"@. c #838134",
/* pixels */
"Y Y Y Y Y Y Y Y Y Y Y Y Y Y Y Y Y Y Y Y Y Y Y Y Y Y Y Y Y Y Y Y Y Y Y Y Y Y Y Y Y Y Y Y Y Y Y Y Y Y Y Y Y Y Y Y Y Y Y L ",
"Y Y Y Y Y Y Y Y Y Y Y Y Y Y Y Y Y Y Y Y Y Y Y Y Y Y Y Y Y Y L L _ Y Y Y Y Y Y Y Y Y Y Y Y Y Y Y Y Y Y Y Y Y Y Y Y Y Y Y ",
"Y Y Y Y Y Y Y Y Y Y Y Y Y Y Y Y Y Y Y Y Y Y Y Y Y Y Y Y Y Y +.+.+.O.Y Y Y Y Y Y Y Y Y Y Y Y Y Y Y Y Y Y Y Y Y Y Y Y Y Y ",
"Y Y Y Y Y Y Y Y Y Y Y Y Y Y Y Y Y Y Y Y Y Y ( ( ( Y Y Y Y Y  . .+.} _ ( T J Y Y Y Y Y Y Y Y Y Y Y Y Y Y Y Y Y Y Y Y Y Y ",
"Y Y Y Y Y Y Y Y Y Y Y Y Y Y Y Y Y Y Y Y Y $ . V C ^ Y Y Y Y Y L +.+.@.C N . c Y Y Y Y Y Y Y Y Y Y Y Y Y Y Y Y Y Y Y Y Y ",
"Y Y Y Y Y Y Y Y Y Y Y Y Y ` ) ` ` Y Y Y R # . C C b / / / / / Q { { D C N . x P I Y Y Y Y Y Y P P P I P U Y Y Y Y Y Y Y ",
"Y Y Y Y Y Y Y Y Y Y Y Y Y X.+.+.X.Y Y Y ) O . V C C C C C C C C C C C C B . 5 r r P Y Y Y Y U r r r r r I Y Y Y Y Y Y Y ",
"Y Y Y Y Y Y Y Y Y Y Y R Y ) ] +.o.] ` Y ) @ . V C C V V C V V C V C C C N . 1 6 ! U I Y Y s P ( ( ! H r I Y Y Y Y Y Y Y ",
"Y Y Y Y Y Y Y Y Y Y Y Y Y Y Y +.+.+.O.Y ` + . C C N . . . . . . . . B C B . < Q +.d e Y Y r u o.+.+.' r I Y Y Y Y Y Y Y ",
"Y Y Y Y Y Y Y Y Y Y Y Y Y Y Y ) ) ` _ Y K # . V C % o o o o o o o o & C N . 1 J ) ' ) i s ) E +.+.+.~ w y Y Y Y Y Y Y Y ",
"Y Y Y Y Y Y Y Y Y Y Y Y Y Y Y Y Y Y Y Y Y $ . V C ^ Y Y Y Y Y Y Y Y n C B . 5 P Y  .o.u r +.+.+.+.+.Q 7 y Y Y Y Y Y Y Y ",
"Y Y Y Y Y Y Y Y Y Y Y Y Y Y Y Y Y Y Y Y Y $ . V C ^ Y Y Y Y Y Y Y Y h C N . [ U a K _ 0 8 _ ) +.X._ 6 7 y Y Y Y Y Y Y Y ",
"Y Y Y Y R Y Y Y Y Y Y Y Y Y Y Y Y Y Y Y Y $ . C C ^ Y Y Y Y Y Y Y P h C N . F J e U Y 9 7 Y L o. .K u 7 y K Y Y Y Y Y Y ",
"Y Y Y Y Y Y Y Y Y Y Y Y Y O.X.o.O.Y Y Y Y $ . V C = : : : : : : : - A C B . j T U q 8 9 7 Y K L U 8 w e I Y Y Y Y Y Y Y ",
"Y Y Y Y Y Y Y Y Y Y Y Y Y o.o.+.X.Y Y Y Y $ . V C C C C C C C C C C C C N . c Y Y 0 7 7 7 Y Y Y i 7 w r I Y Y Y Y Y Y Y ",
"Y Y Y _ o.+.+.] Y Y Y O.o.o.+.Y Y Y Y Y Y $ . C C B N . N N N N N N C C N . c Y Y Y Y Y Y Y Y Y Y Y Y Y Y Y Y Y Y Y Y Y ",
"Y Y Y _ o.o.+.] L R Y W X.X.o.Y Y Y Y Y Y $ . V C N . . . . . . . . B C B . c Y Y Y Y Y Y Y Y Y Y Y Y Y Y Y R R R R Y Y ",
"Y Y Y Y Y ) +.o.+.) Y Y Y Y Y Y Y Y Y Y Y $ . V C ^ K T K K K K K Y m C B . c Y Y Y Y Y Y Y Y Y Y Y Y Y Y Y W +.+.o.R Y ",
"Y Y Y Y Y _ O. . ._ Y Y Y Y Y Y Y Y Y Y Y $ . V C ^ Y Y Y Y Y Y Y Y n C N . c Y Y Y Y Y Y Y Y Y Y Y Y Y R _  .o.X.O.R Y ",
"Y Y Y Y Y Y Y Y Y Y Y Y Y Y Y Y Y Y Y Y Y $ . C C ^ Y Y Y Y Y Y Y R n C B . c Y Y Y Y Y Y Y Y Y Y Y Y Y ] o.+.+._ Y Y Y ",
"Y Y Y Y Y Y Y Y Y Y Y Y Y Y Y Y Y Y Y Y Y $ . V C b / / / / / / / / > C N . c Y Y Y Y Y Y Y Y Y Y Y Y Y _ W W W R Y Y Y ",
"Y Y Y Y Y Y Y Y Y Y Y Y Y Y Y Y Y Y Y Y Y $ . V C C C C C C C C C C C C N . c Y Y Y Y Y Y Y Y Y Y Y Y Y Y Y Y Y Y Y Y Y ",
"Y Y Y Y Y Y Y Y Y Y Y Y Y Y Y Y Y Y Y Y Y $ . V C C V V V V C V C V C C N . c Y Y Y Y Y Y Y Y Y Y Y Y Y Y Y Y Y Y Y Y Y ",
"Y Y Y Y Y Y Y Y Y Y Y Y Y Y Y Y Y Y Y Y Y $ . C C N . . . . . . . . B C N . c Y Y Y Y Y Y Y Y Y Y Y Y Y Y Y Y Y Y Y Y Y ",
"Y Y Y Y Y Y Y Y Y Y Y Y Y Y Y Y Y Y Y Y Y $ . C C % % h % o o o h % & C B . c Y Y Y Y Y Y Y Y Y Y Y Y Y Y Y Y Y Y Y Y Y ",
"Y Y Y Y Y Y Y Y Y Y Y Y Y Y Y Y Y Y Y Y Y $ . V C ^ Y Y Y Y Y Y Y Y n C B . c Y Y Y Y Y Y Y Y Y Y Y Y Y Y Y Y Y Y Y Y Y ",
"Y Y Y Y Y Y Y Y Y Y Y Y Y Y Y Y Y Y Y Y Y $ . V C ^ Y Y Y Y Y Y Y Y n C N . Q Y Y Y Y Y Y Y Y Y Y Y Y Y Y Y Y Y Y Y Y Y ",
"Y Y Y Y Y Y Y Y Y Y Y Y Y Y Y Y Y Y Y Y Y $ . V C ^ Y Y Y Y Y Y Y R n C N . c Y Y Y Y Y Y Y Y Y Y Y Y Y Y Y Y Y Y Y Y Y ",
"Y Y Y Y Y Y Y Y Y Y Y Y Y Y Y Y Y Y Y Y Y $ . C C = : : : : : : : : Z C N . c Y Y Y Y Y Y Y Y Y Y Y Y Y Y Y Y Y Y Y Y Y ",
"Y Y Y Y Y Y Y Y Y Y Y Y Y Y Y Y Y Y Y Y Y $ . V C C C C C C C C C C C C N . c Y Y Y Y Y Y Y Y Y Y Y Y Y Y Y Y Y Y Y Y Y ",
"Y Y Y Y Y Y Y Y Y Y Y Y Y Y Y Y Y Y Y Y Y $ . V C B N N . N N N N N V C N . Q Y Y Y Y Y Y Y Y Y Y Y Y Y Y Y Y Y Y Y Y Y ",
"Y Y Y Y Y Y Y Y Y Y Y Y Y Y Y Y Y Y Y Y Y $ . C C . . . . . . . . . B C N . / Y Y Y Y Y Y Y Y Y Y Y Y Y Y Y Y R Y Y Y Y ",
"Y Y Y Y Y Y Y Y Y Y Y Y Y Y Y Y Y Y Y Y Y $ . V C / K K K J T K J T m C B . c Y Y Y Y Y Y Y Y Y Y Y Y Y Y Y Y R Y Y Y Y ",
"Y Y Y Y Y Y Y Y Y Y Y L _ Y Y Y Y Y Y Y Y $ . C C ( Y Y Y Y Y Y Y Y m C N . c Y Y Y Y Y Y Y Y Y Y Y Y Y Y Y Y Y Y Y Y Y ",
"Y Y Y Y Y Y Y Y Y Y Y O.+.R Y Y Y Y Y Y Y $ . V C ^ Y Y Y Y Y Y Y Y n C N . c Y Y Y Y Y Y Y Y Y Y Y Y Y Y Y Y Y Y Y Y Y ",
"Y Y Y Y Y Y Y Y Y _ ` X.+.L Y Y Y Y Y Y Y $ . V C b v v v ^ / / / Q m C B . c Y Y Y Y Y Y Y Y Y Y Y Y Y Y Y Y Y Y Y Y Y ",
"Y Y Y Y Y Y Y Y Y W +.+.+.R Y Y Y Y Y Y Y % . V C C C C C C C C C C C C B . c Y Y Y Y Y Y Y Y Y Y Y Y Y Y Y Y Y Y Y Y Y ",
"Y Y Y R ] ` Y Y Y W +.W ] R Y Y Y i I I I   . C C C V V V C V B V C C C B . c Y T Y Y Y Y Y Y Y Y Y Y Y _ ] L Y Y Y Y Y ",
"Y Y Y _ +.W Y Y Y W +._ Y Y Y Y U r r r r   . V C N . . . . . . N . B C N . c Y Y Y Y Y Y Y Y Y Y Y Y Y ] +.) Y Y Y Y Y ",
"Y Y Y _ +.X.W ` Y _ ) Y Y Y Y I i ' ) ' ( X . V C @ @ + + + + + f f & C N . c Y Y Y Y Y Y Y Y Y Y Y _ W O.+.` Y Y Y Y Y ",
"Y Y Y _ +.o.o.] Y Y Y Y Y Y Y r u +.+.+.W % . V C ..+.+.+.+.+.} r a n C N . c Y Y Y Y Y Y Y Y Y Y Y ` o.+.+.) Y Y Y Y Y ",
"Y Y Y Y _ W o.] Y Y Y Y Y Y Y r r d U _ ' * . C C ..) _ y 3 3 t 9 q n C B . c Y Y ]  .O. . .W Y Y Y ) +.W _ R Y ] W O.O.",
"Y Y Y Y Y ) o.] Y Y Y Y Y Y Y r r r a Y ) O . V C .._ Y 8 7 7 7 7 0 n C N . c Y Y  .+.+.+.+.X.Y Y Y ` o.] Y Y Y O.+.o.o.",
"Y Y Y Y Y R L Y Y Y Y Y Y Y Y Y U Y U Y Y % . C C Z = : - & - - - ; A C B . c Y Y T K o.+.+.+.X.W Y R R R Y ] X.o.+._ R ",
"Y Y Y Y Y Y Y Y Y Y Y Y Y Y Y Y Y Y Y Y Y $ N V C C C C C C C C C C C C N . c Y Y Y Y X.+.+.+.+.O.Y Y Y Y Y W o.+.+.R Y ",
"Y Y Y Y Y Y Y Y Y Y Y Y Y r r r r r a Y Y $ . V C V N B N N N . N N V C B . c Y Y Y Y Y Y Y Y Y Y Y Y Y Y Y Y Y Y Y Y Y ",
"Y Y Y Y Y Y Y Y Y P Y U U s a a u e p Y Y $ . V C N N . . . . N . . B C B . c Y Y Y Y Y Y Y Y Y Y Y Y Y Y Y Y R Y Y Y Y ",
"Y Y Y Y Y I r r r r r r r X.+.+.} 7 8 Y Y $ . V C v } ........| T T n C B . c Y Y Y Y Y Y Y Y Y Y Y Y Y Y Y Y Y Y Y Y Y ",
"Y Y Y Y P P P 6 U u p e e } +. .E 7 0 Y Y $ . V C ' } +.+.+. .W U Y m C V . c Y Y Y Y Y Y Y Y Y Y Y Y Y Y Y Y Y Y R Y Y ",
"Y Y Y Y r H +.+.+._ Y 0 7 } +.Y P 7 0 Y Y $ . C C ..+.+.+.+.Y R Y Y m C V N c Y Y Y Y Y Y Y Y Y Y Y Y Y Y Y Y Y Y Y Y Y ",
"Y Y Y P r i ' E W ] ) q 7 E W y y w q Y Y $ . V C F { { { { / / / / m C N . c Y Y Y Y Y Y Y Y Y Y Y Y Y Y Y Y Y Y Y Y Y ",
"Y Y Y U r r r I K W +.2 7 P Y 7 8 r p Y Y $ . V C C C C C C C C C C C C N . c Y Y Y Y Y Y Y Y Y Y Y Y Y Y Y Y Y Y Y Y Y ",
"Y Y Y Y I I I U Y _ ] 6 y Y Y y y I P Y Y $ . V C C V V V V V V V V C C B . c Y Y Y Y Y Y Y Y Y Y Y Y Y Y Y Y Y Y Y Y Y ",
"Y Y Y Y Y Y Y Y Y Y Y Y Y Y Y Y Y Y Y Y Y $ . C C N . . . . . . . . B C N . c Y Y Y Y Y Y Y Y Y Y Y Y Y Y Y Y Y Y Y Y Y ",
"Y Y Y Y Y Y Y Y Y Y Y Y Y Y Y Y Y Y Y Y Y $ . V C % o o o o o o o o & C N . c Y Y Y Y Y Y Y Y Y Y Y Y Y T Y Y Y Y Y Y Y ",
"Y Y Y Y Y Y Y Y Y Y Y Y Y Y Y Y Y Y Y Y Y $ . V C ( Y Y Y Y Y Y Y Y m C B . c Y Y Y Y Y Y Y Y Y Y Y Y Y Y Y Y Y Y Y Y Y ",
"Y Y Y Y Y Y Y Y Y Y Y Y Y Y Y Y Y Y Y Y Y Q k l z K Y Y Y Y Y Y Y Y Q M l k J Y Y Y Y Y Y Y Y Y Y Y Y Y Y Y Y Y Y Y Y Y ",
"Y Y Y Y Y Y Y Y Y Y Y Y Y Y Y Y Y Y Y Y Y Y K Y Y Y Y Y Y Y Y Y Y Y Y Y Y Y Y Y Y Y Y Y Y Y Y Y Y Y Y Y Y Y Y Y Y Y Y Y ",
"Y Y Y Y Y Y Y Y Y Y Y Y Y Y Y Y Y Y Y Y Y Y Y Y Y Y Y Y Y Y Y Y Y Y Y Y Y Y Y Y Y Y Y Y Y Y Y Y Y Y Y Y Y R Y Y Y Y Y Y ",
"Y Y Y Y Y Y Y Y Y Y Y Y Y Y Y Y Y Y Y Y Y Y Y Y Y Y Y Y Y Y Y Y Y Y Y Y Y Y Y Y Y Y Y Y Y Y Y Y Y Y Y Y Y Y Y Y Y Y Y Y "
};
