/* XPM */
static char * link_d1_xpm[] = {
"60 60 267 2",
"  	c #368D63",
". 	c #3D905F",
"+ 	c #3A8F60",
"@ 	c #368C64",
"# 	c #6FA442",
"$ 	c #629E4A",
"% 	c #3D9060",
"& 	c #45925C",
"* 	c #67A147",
"= 	c #44925B",
"- 	c #539953",
"; 	c #70A442",
"> 	c #4B9557",
", 	c #599B4F",
"' 	c #348A63",
") 	c #499459",
"! 	c #5E9C4C",
"~ 	c #5A9B4F",
"{ 	c #328964",
"] 	c #2C8367",
"^ 	c #69A146",
"/ 	c #4E9754",
"( 	c #298068",
"_ 	c #1A726C",
": 	c #2F8665",
"< 	c #287F67",
"[ 	c #559951",
"} 	c #337C5E",
"| 	c #458B57",
"1 	c #318463",
"2 	c #297F68",
"3 	c #338A65",
"4 	c #298067",
"5 	c #468B57",
"6 	c #37845E",
"7 	c #107B29",
"8 	c #1A8329",
"9 	c #41A429",
"0 	c #379023",
"a 	c #0D420D",
"b 	c #0E4D13",
"c 	c #256C26",
"d 	c #734120",
"e 	c #7D4D27",
"f 	c #A47B41",
"g 	c #B4936A",
"h 	c #4B8650",
"i 	c #70A342",
"j 	c #307E62",
"k 	c #1B726C",
"l 	c #267867",
"m 	c #509152",
"n 	c #248B29",
"o 	c #2C9229",
"p 	c #165413",
"q 	c #368522",
"r 	c #AE9015",
"s 	c #C8B027",
"t 	c #CEB244",
"u 	c #257C69",
"v 	c #549350",
"w 	c #4E8A51",
"x 	c #156069",
"y 	c #257564",
"z 	c #65B126",
"A 	c #FFFF00",
"B 	c #F6ED11",
"C 	c #DEAC52",
"D 	c #D2A24F",
"E 	c #AF8B39",
"F 	c #267868",
"G 	c #4C8750",
"H 	c #115666",
"I 	c #247265",
"J 	c #168029",
"K 	c #409521",
"L 	c #2C7C1E",
"M 	c #256519",
"N 	c #257828",
"O 	c #8DB130",
"P 	c #F7F01C",
"Q 	c #EDDA1F",
"R 	c #DAC91B",
"S 	c #D8C32A",
"T 	c #C79A49",
"U 	c #65A048",
"V 	c #43925A",
"W 	c #214816",
"X 	c #5AA528",
"Y 	c #916534",
"Z 	c #B69534",
"` 	c #ECE40D",
" .	c #9E734C",
"..	c #619E4B",
"+.	c #287865",
"@.	c #0E5919",
"#.	c #0F631D",
"$.	c #155C1C",
"%.	c #559C2E",
"&.	c #EBCD31",
"*.	c #D1B433",
"=.	c #B68A44",
"-.	c #318663",
";.	c #155D66",
">.	c #166469",
",.	c #1A6E6B",
"'.	c #B3813E",
").	c #2F7D62",
"!.	c #36791C",
"~.	c #96C914",
"{.	c #B7915C",
"].	c #B78E58",
"^.	c #A87E49",
"/.	c #C19B3F",
"(.	c #AA8459",
"_.	c #41915D",
":.	c #0F7023",
"<.	c #D5B48B",
"[.	c #C19D76",
"}.	c #87572F",
"|.	c #E5BD42",
"1.	c #E3D906",
"2.	c #8C694D",
"3.	c #BB9037",
"4.	c #AA906F",
"5.	c #469359",
"6.	c #0F6920",
"7.	c #107626",
"8.	c #1A601D",
"9.	c #52752E",
"0.	c #688B2E",
"a.	c #C19D6B",
"b.	c #E6C89F",
"c.	c #DABD96",
"d.	c #452714",
"e.	c #593620",
"f.	c #083912",
"g.	c #FFEBC9",
"h.	c #F5DCB5",
"i.	c #000001",
"j.	c #333334",
"k.	c #082808",
"l.	c #0D6221",
"m.	c #856732",
"n.	c #8F623F",
"o.	c #95896E",
"p.	c #031909",
"q.	c #0A350B",
"r.	c #030D04",
"s.	c #FCF723",
"t.	c #FFE6BD",
"u.	c #CAB391",
"v.	c #1B120C",
"w.	c #5C341A",
"x.	c #6D8E58",
"y.	c #70A664",
"z.	c #566357",
"A.	c #5F6924",
"B.	c #E2D03B",
"C.	c #666666",
"D.	c #58484F",
"E.	c #505133",
"F.	c #63584C",
"G.	c #3D6330",
"H.	c #FFFFFF",
"I.	c #D6DCEB",
"J.	c #31529C",
"K.	c #526699",
"L.	c #173619",
"M.	c #545654",
"N.	c #314925",
"O.	c #DBBB8B",
"P.	c #E2C498",
"Q.	c #FAE0B7",
"R.	c #26180E",
"S.	c #333301",
"T.	c #0D5318",
"U.	c #140F09",
"V.	c #675229",
"W.	c #6E633A",
"X.	c #CDC09B",
"Y.	c #99D4D7",
"Z.	c #7AAAAD",
"`.	c #FFFAE3",
" +	c #E3DCD5",
".+	c #74788F",
"++	c #806C54",
"@+	c #7B6B58",
"#+	c #1C1611",
"$+	c #00BAFF",
"%+	c #0095CC",
"&+	c #69690B",
"*+	c #5D4624",
"=+	c #007099",
"-+	c #00597B",
";+	c #EED2A9",
">+	c #FFFF66",
",+	c #E7E15C",
"'+	c #0A230B",
")+	c #073211",
"!+	c #382B0E",
"~+	c #F2DE21",
"{+	c #CFB91E",
"]+	c #848458",
"^+	c #0B4B19",
"/+	c #2C2317",
"(+	c #071507",
"_+	c #2F1A14",
":+	c #44935A",
"<+	c #4C541D",
"[+	c #197524",
"}+	c #CCCC00",
"|+	c #378D64",
"1+	c #386425",
"2+	c #2C501E",
"3+	c #16231A",
"4+	c #70B07F",
"5+	c #598D65",
"6+	c #80A20D",
"7+	c #CCCCCC",
"8+	c #44935B",
"9+	c #4F9151",
"0+	c #232529",
"a+	c #ADBAC7",
"b+	c #97989A",
"c+	c #70A443",
"d+	c #0C1014",
"e+	c #315273",
"f+	c #27425C",
"g+	c #1E736B",
"h+	c #368360",
"i+	c #4B4B52",
"j+	c #3C3C42",
"k+	c #379828",
"l+	c #346329",
"m+	c #217869",
"n+	c #170D07",
"o+	c #3C8F61",
"p+	c #9A6F4B",
"q+	c #0F0807",
"r+	c #3C905F",
"s+	c #6EA343",
"t+	c #1F756C",
"u+	c #83725C",
"v+	c #483427",
"w+	c #348B64",
"x+	c #348B63",
"y+	c #338A64",
"z+	c #247767",
"A+	c #1A6E6C",
"B+	c #207669",
"C+	c #4B2920",
"D+	c #522E20",
"E+	c #669E47",
"F+	c #649A46",
"G+	c #1A6365",
"H+	c #186B6A",
"I+	c #57954D",
"J+	c #1A6465",
"K+	c #3B855D",
"L+	c #308665",
"M+	c #559651",
"N+	c #1D6866",
"O+	c #1C6B67",
"P+	c #28695E",
"Q+	c #115A67",
"R+	c #2F7B60",
"                                                                                                                        ",
"                                                            . . . +                                                     ",
"                                                  @         # # # $                                                     ",
"                                            % & % @         $ $ # * = .                                                 ",
"                                            - ; > @           . # # # ,                         @ @ + '                 ",
"                          ) > > )       . > ! ; >             + ~ ~ , >   { ] ] ] {         ' ] ] ] ] ] {               ",
"                        @ ^ ; ; ^       / ; ; ; >                         ( _ _ _ : @       { _ _ _ _ _ <               ",
"                        @ / - ; ^ [ >   ) ;                                   } | 1 2 3   4 ] | 5 5 6 _ <               ",
"                              # # # $ @ / ;   7 8 9 9 9 9 9 0 a b 7 c d e f g h i j k 3   _ l ; ; ; m _ ( @ @           ",
"                              > > >           n o 9 9 9 9 9 0 a p n q r r s t         < u m v ; ; ; w x y               ",
"                                      7 7 7 8 9 9 9 9 9 9 9 0 a p 9 z A A A B C D E g F k ; ; ; ; ; G H I               ",
"                                      7 J n o 9 9 9 9 9 K q L M N O O P Q R S T T s t     & ) ; U V } H I               ",
"                            @     a b 7 8 9 9 9 9 9 9 9 0 a W 9 X C C C D f f Y Z A `  .g   . i ..@ +.H I               ",
"                        @ $       @.#.7 J o o 9 9 9 9 9 0 a $.9 %.T D &.*.f =.=.T R R s *.    . -.;.>.,.<               ",
"                        @ ^   a b 7 7 7 7 7 8 9 9 9 9 9 0 a p 9 %.Y Z A ` f '.C D f Z A ` f g   ).H x _ 2               ",
"      = ; ; ; -       $ ; ;   a b 7 7 7 7 7 7 q L L L L L M !.~.O E Z A P {.].^.=.=./.A ` Y (.                          ",
"      _.^ ^ ; [ . + @ ! ^ ^   a b 7 7 7 7 7 :.a a a a a p 9 z A ` f Z A P <.[.d }.C |.A 1.d 2.              % . . .     ",
"      @   / ; # # ) @ @       @.@.7 7 7 7 7 :.@.@.@.@.a p o X A ` f E R S <.<.f f '.3.R *.4.                ~ ; # # .   ",
"        @ 5.$ $ $ = @     a b 7 7 7 7 7 7 7 7 7 7 7 :.a b 7 K A ` f f f (.<.<.<.[.d e f g               . V ! ; U $ %   ",
"            @             a b 7 7 7 7 #.#.#.6.7 7.#.#.@.8.9.0.R R s s ].a.b.c.<.g d.e.                  - # # # V       ",
"                          a b 7 7 7 :.a a a p 7 :.f.b 7 N =.f f 3.A P <.c.g.h.<.4.i.j.                  ) ~ ~ ~ .       ",
"                          k.f.7 7.#.@.k.k.a a #.#.@.$.l.8.m.n.f Z A P b.c.4.o.(.2.i.j.                                  ",
"                          i.p.7 :.a q.i.r.a a a a 7 7.b W d d f Z A s.t.u.i.v.d w.i.j.                                  ",
"                          i.p.#.$.a q.i.r.a W x.x.y.x.z.A.d }.=./.R B.t.b.C.C.D.D.E.F.                                  ",
"                          i.r.a a a q.i.r.a G.t.t.t.h.<.a.d }.C D f {.t.g.H.I.J.K.<.4.i.j.                              ",
"                          i.r.@.b k.L.C.M.k.N.O.P.t.h.P.<.d.d &.*.Y (.Q.g.H.I.J.K.<.4.i.j.                              ",
"                          i.p.7 l.i.j.    i.R.f ].t.t.t.u.i.S.A 1.d n.t.g.H.I.J.K.<.4.i.j.                              ",
"                          i.p.#.T.i.j.    i.U.V.W.u.X.Y.Z.i.S.A 1.d n.t.g.`. +.+.+++@+                                  ",
"                          i.r.f.q.i.j.    i.i.i.#+=.o.$+%+i.S.A 1.d n.t.g.h.h.<.4.i.j.                                  ",
"                            M.k.L.C.      &+&+*+*+*+E.=+-+i.S.A 1.d n.;+;+;+c.@+@+                                      ",
"        +                     i.j.        A ` C E i.i.i.i.i.S.A 1.d }.<.<.<.4.i.j.                                      ",
"    @ @ @                                 >+,+m.V.p.'+)+k.i.!+~+{+d.e.]+x.++@+                                          ",
"                                              i.r.a ^+7 #.i./+C =.i.r.a q.i.j.                                          ",
"                    @ _._.+                   i.(+$.T.^+a _+!+m.V.)+f.@.T.)+N.                                          ",
"                      $ # %                   i.p.7 l.i.v.d w.i.p.7 7 7 7 7 l.i.j.                                      ",
"                  :+/ U # .                   i.p.7 l.i.U.<+<+)+f.T.T.7 7 7 [+&+&+                                      ",
"                  , ; # # .                   i.p.7 l.i.p.7 7 J #.i.p.7 7 7 K A }+i.          |+                        ",
"      % - )       , ; , - +     @ ( ( (       )+f.1+2+i.3+4+Z.y.5+i.(+1+1+1+9.~.6+i.                    5.- . @         ",
"      & # ~       , # &         { k k k   i.p.7 c d w.i.j.H.H.H.7+i.U.d d d V.7.#.i.                    - # / @         ",
"      8+# * ~ 5.  V > %       u 4 9+m m   i.p.7 [+A.<+i.0+a+a+a+b+i.v.A.A.A.9.n [+i.                V ~ U ; )           ",
"      5.# # # -               _ y c+i i   i.p.7 8 9 q i.d+e+e+e+f+i.p.9 9 9 9 9 q i.    @           ) # # ; >     @ @ @ ",
"        & - # -               _ g+1 h+&       ^+$.9 q i.d+i+i+i+j+i.'+o k+9 0 M l+C.  $ $ ! ! @     / ; , & %   [ $ $ $ ",
"          > # -               _ k k m+@ / ;   i.'+9 q i.n+d d d e.i.p.7 8 9 q i.j.U # # ; ; ^     @ > # - @   @ $ ; ; # ",
"      @ @ + % %               { { { {   @ o+      M W i.#+p+p+(.2.i.q+^+T.M l+C.  r+r+* ; ; # * ~ @ + . + @ [ ^ s+# & . ",
"                |+|+@ @                           i.i.i./+<.c.g.u.i.i.i.i.i.j.      @ ^ ; ; ; ; $ @         ~ ; ; # .   ",
"          @       |+@ @ @ t+k _ _ _ m+@               i.#+++u+o.u+#+v.v.R._+v+b+                                @       ",
"        @ @ w+{ x+y+{ { { +.l l z+A+B+                i.i.i.i.i.U.C+C+C+D+d w.i.j.                                      ",
"        @ ] _ _ _ _ _ _ _ E+; ; F+H G+                    i.i.i.q+C+C+e.e.d w.i.j.                                      ",
"      w+: : j j j l m+,.H+E+; $ I+H J+          . =   ;   i.i.i.q+d.D+d d d w.i.j.                                      ",
"      : _ K+i i i >   J+H F+;   L+H J+@         , # # #         M._+_+d.d.d.v+C.                                        ",
"      : _ ).m M+~ - / N+H m ~ +.y x O+          / , ~ ~ , ~       i.i.i.i.i.j.                                          ",
"      : _ k _ < ' , i P+H -.  H Q+_ m+                                                                                  ",
"      { 4 < < L+  ) - R+I '   I y u : @                                                                                 ",
"                                    @                                                                                   ",
"                                                                                                                        ",
"                                                                                                                        ",
"                                                                                                                        ",
"                                                                                                                        ",
"                                                                                                                        ",
"                                                                                                                        "};
