/* XPM */
static char * link_g3_xpm[] = {
"60 60 266 2",
"  	c #368D63",
". 	c #3D905F",
"+ 	c #3A8F60",
"@ 	c #368C64",
"# 	c #6FA442",
"$ 	c #629E4A",
"% 	c #3D9060",
"& 	c #45925C",
"* 	c #67A147",
"= 	c #44925B",
"- 	c #539953",
"; 	c #70A442",
"> 	c #4B9557",
", 	c #599B4F",
"' 	c #348A63",
") 	c #499459",
"! 	c #5E9C4C",
"~ 	c #5A9B4F",
"{ 	c #328964",
"] 	c #2C8367",
"^ 	c #69A146",
"/ 	c #4E9754",
"( 	c #298068",
"_ 	c #1A726C",
": 	c #2F8665",
"< 	c #287F67",
"[ 	c #559951",
"} 	c #B69567",
"| 	c #A2784A",
"1 	c #8D6647",
"2 	c #6F7A4F",
"3 	c #3F834B",
"4 	c #4E8746",
"5 	c #3D683D",
"6 	c #67B654",
"7 	c #57A954",
"8 	c #458B57",
"9 	c #318463",
"0 	c #297F68",
"a 	c #338A65",
"b 	c #298067",
"c 	c #468B57",
"d 	c #37845E",
"e 	c #A87C36",
"f 	c #916534",
"g 	c #734120",
"h 	c #534C33",
"i 	c #107B29",
"j 	c #15671D",
"k 	c #0D420D",
"l 	c #226918",
"m 	c #41A429",
"n 	c #2D9429",
"o 	c #198229",
"p 	c #67AFB5",
"q 	c #307E62",
"r 	c #1B726C",
"s 	c #267867",
"t 	c #509152",
"u 	c #469359",
"v 	c #CAA96C",
"w 	c #E5BD75",
"x 	c #E5CF4F",
"y 	c #ECE40C",
"z 	c #E8D913",
"A 	c #D9ED08",
"B 	c #9DC911",
"C 	c #379C29",
"D 	c #2C7C1D",
"E 	c #3DA129",
"F 	c #257C69",
"G 	c #549350",
"H 	c #4E8A51",
"I 	c #156069",
"J 	c #257564",
"K 	c #C3954A",
"L 	c #DEAC52",
"M 	c #EBCD31",
"N 	c #FFFF00",
"O 	c #B3DB10",
"P 	c #4C8750",
"Q 	c #115666",
"R 	c #247265",
"S 	c #CFB544",
"T 	c #C8B027",
"U 	c #B18643",
"V 	c #B3853E",
"W 	c #B69534",
"X 	c #C19B3F",
"Y 	c #E5BD42",
"Z 	c #BFAA4A",
"` 	c #88A03A",
" .	c #369427",
"..	c #27761D",
"+.	c #175613",
"@.	c #107626",
"#.	c #65A048",
"$.	c #43925A",
"%.	c #337C5E",
"&.	c #A47B41",
"*.	c #DBCA1A",
"=.	c #A98B38",
"-.	c #BB8F48",
";.	c #BBA629",
">.	c #14350D",
",.	c #0F631D",
"'.	c #70A342",
").	c #619E4B",
"!.	c #287865",
"~.	c #D7C51D",
"{.	c #D2A24F",
"].	c #CCAF2E",
"^.	c #F8EE10",
"/.	c #DBC425",
"(.	c #839139",
"_.	c #0F7023",
":.	c #226D2C",
"<.	c #318663",
"[.	c #155D66",
"}.	c #166469",
"|.	c #1A6E6B",
"1.	c #7C8B37",
"2.	c #094316",
"3.	c #2F7D62",
"4.	c #7D4D27",
"5.	c #B19417",
"6.	c #F2DE21",
"7.	c #88562A",
"8.	c #CAA77A",
"9.	c #D9C150",
"0.	c #41915D",
"a.	c #AB8D15",
"b.	c #703F20",
"c.	c #9A6F4B",
"d.	c #D5B48B",
"e.	c #0E5918",
"f.	c #C19D76",
"g.	c #A3CD10",
"h.	c #166823",
"i.	c #0C5319",
"j.	c #8A6539",
"k.	c #C19D6D",
"l.	c #0D6221",
"m.	c #170D07",
"n.	c #69563A",
"o.	c #E3C59B",
"p.	c #F4D9AE",
"q.	c #887632",
"r.	c #52772A",
"s.	c #0E4D12",
"t.	c #000001",
"u.	c #E6C89F",
"v.	c #F6F2D3",
"w.	c #EED2A8",
"x.	c #726E39",
"y.	c #443428",
"z.	c #B8936E",
"A.	c #F7DCB3",
"B.	c #F6EE6A",
"C.	c #4D471C",
"D.	c #082909",
"E.	c #030D04",
"F.	c #462715",
"G.	c #061B06",
"H.	c #0A4B19",
"I.	c #333334",
"J.	c #545754",
"K.	c #B0926C",
"L.	c #DDBE95",
"M.	c #9EA477",
"N.	c #BBB284",
"O.	c #CFD19F",
"P.	c #CFC99B",
"Q.	c #819161",
"R.	c #FFE6BD",
"S.	c #B18A54",
"T.	c #B6905A",
"U.	c #9E940D",
"V.	c #71614C",
"W.	c #083812",
"X.	c #6B3C20",
"Y.	c #999900",
"Z.	c #6A584B",
"`.	c #DABA8C",
" +	c #624A27",
".+	c #063211",
"++	c #2B231A",
"@+	c #0A4C64",
"#+	c #33C3F2",
"$+	c #231B0E",
"%+	c #140F09",
"&+	c #0A230A",
"*+	c #00BAFF",
"=+	c #42A1B3",
"-+	c #3A221B",
";+	c #745E47",
">+	c #121211",
",+	c #07232C",
"'+	c #594522",
")+	c #CCCC00",
"!+	c #686E68",
"~+	c #AB8557",
"{+	c #2F3920",
"]+	c #325127",
"^+	c #293A1A",
"/+	c #69531F",
"(+	c #2E1A0D",
"_+	c #041A09",
":+	c #1C4F29",
"<+	c #174619",
"[+	c #3B2B14",
"}+	c #5E3520",
"|+	c #44935A",
"1+	c #6B6B10",
"2+	c #81AC11",
"3+	c #378D64",
"4+	c #1A3C11",
"5+	c #409521",
"6+	c #5F4D22",
"7+	c #CFE5D4",
"8+	c #7C8980",
"9+	c #2D6C2B",
"0+	c #666667",
"a+	c #FFFFFF",
"b+	c #999999",
"c+	c #44935B",
"d+	c #4F9151",
"e+	c #4B9027",
"f+	c #275617",
"g+	c #312C25",
"h+	c #70A443",
"i+	c #1A4211",
"j+	c #27661A",
"k+	c #4A2920",
"l+	c #2C1914",
"m+	c #1E736B",
"n+	c #368360",
"o+	c #217869",
"p+	c #5B4F40",
"q+	c #3C905F",
"r+	c #6EA343",
"s+	c #8B7353",
"t+	c #1F756C",
"u+	c #53331A",
"v+	c #348B64",
"w+	c #348B63",
"x+	c #338A64",
"y+	c #247767",
"z+	c #1A6E6C",
"A+	c #207669",
"B+	c #669E47",
"C+	c #649A46",
"D+	c #1A6365",
"E+	c #633720",
"F+	c #186B6A",
"G+	c #57954D",
"H+	c #1A6465",
"I+	c #3B855D",
"J+	c #308665",
"K+	c #0F0807",
"L+	c #559651",
"M+	c #1D6866",
"N+	c #1C6B67",
"O+	c #28695E",
"P+	c #115A67",
"Q+	c #2F7B60",
"                                                                                                                        ",
"                                                            . . . +                                                     ",
"                                                  @         # # # $                                                     ",
"                                            % & % @         $ $ # * = .                                                 ",
"                                            - ; > @           . # # # ,                         @ @ + '                 ",
"                          ) > > )       . > ! ; >             + ~ ~ , >   { ] ] ] {         ' ] ] ] ] ] {               ",
"                        @ ^ ; ; ^       / ; ; ; >                         ( _ _ _ : @       { _ _ _ _ _ <               ",
"                        @ / - ; ^ [ >   ) ; $   } | 1 2 3 4 5 4 6 6 6 6 6 7 3   8 9 0 a   b ] 8 c c d _ <               ",
"                              # # # $ @ / ; -   e f g h i j k l m m m m m n o p   q r a   _ s ; ; ; t _ ( @ @           ",
"                              > > > u   } v w x y z A B C D k l m m m m m E C m 3 3 3   F t G ; ; ; H I J               ",
"                                    @   e K L M N N N O E o k l m m m m m m m n o i i   r ; ; ; ; ; P Q R               ",
"                                    } S y T U V W X Y S Z `  ...+...m m m m m m C n i @.5   ) ; #.$.%.Q R               ",
"                            @       &.T N *.&.&.=.-.L L L ;.m D >.l m m m m m m m n i ,.k   . '.).@ !.Q R               ",
"                        @ $ ^   } S y ~.W X {.-.&.].^./.U (.m o k l m m m m m n o o i @._.:.5   <.[.}.|.<               ",
"                        @ ^ ;   &.T N *.&.-.L K e T N *.&.1.E D 2.l m m m m m n i i i i i ,.k   3.Q I _ 0               ",
"      = ; ; ; -       $ ; ; ;   4.5.N 6.{.U 7.| 8.9.N *.&.;.A B  .D +.+.+.+.+.,.i i i i i ,.k                           ",
"      0.^ ^ ; [ . + @ ! ^ ^ ^   g a.N 6.L e b.c.d.x N *.&.T N O E D k k k k k e.i i i i i ,.k               % . . .     ",
"      @   / ; # # ) @ @             W e 7.c.f.d.d.v W =.&.T N g.o h.k i._._._._.i i i i i i _.:.5           ~ ; # # .   ",
"        @ u $ $ $ = @               e j.g c.d.d.d.k.&.&.&.T N B i l.k e.i i i i i i i i i i i ,.k       . $.! ; #.$ %   ",
"            @                           m.n.d.o.p.o.8.9.y ~.W =.q.r.@.,.s.e.i _.s.s.s.e.i i i ,.k       - # # # $.      ",
"                                        t.h d.u.v.w.d.x N *.&.&.U x.i ,.k e.i ,.k k k e.i i i ,.k       ) ~ ~ ~ .       ",
"                                        t.y.U | 1 z.A.B.N *.&.q.4.C.s.e._.,.s.s.k D.E.D.i.e.i i.E.                      ",
"                                        t.F.&.f b.| v.B.N *.&.f g C.>.e.i ,.k k k D.t.G.k i.i H.t.                      ",
"                                    I.J.K.z.8.d.o.o.L.v W K {.e g 1 M.N.O.P.P.Q.k D.t.G.k s.s.D.t.                      ",
"                                    t.h d.d.d.u.A.w.d.z.e -.L U g c.d.u.R.R.R.M.k D.t.G.k k s.D.t.                      ",
"                                    t.h d.8.S.S.T.d.p.d.4.5.^.U.m.V.A.A.R.o.T.n.E.      E.W._.W.t.                      ",
"                                    t.h d.k.&.&.&.k.R.d.X.a.N Y.t.Z.A.A.v.`.e  +t.      t..+i H.t.                      ",
"                                        ++Z.8.`.w.p.R.f.b.a.N Y.t.@+#+p S.x.$+%+t.      t.&+i.D.t.                      ",
"                                        t.h d.u.v.A.A.N.b.a.N Y.t.@+*+=+e  +t.t.t.      t.&+k D.t.                      ",
"                                            -+;+L.L.L.T.g a.N Y.t.>+,+,+$+'+U ;.)+B.      !+E.J.                        ",
"        +                                   t.h d.d.d.~+g a.N Y.t.t.t.t.t.'+L M N B.        t.                          ",
"    @ @ @                                       ++{+]+^+%+/+Y q.t.D.,.i..+>.(+                                          ",
"                                                t._+k D.t.'+L j.t..+i ,.2.D.t.                                          ",
"                    @ 0.0.+                 I.:+l.h._._.l.<+(+[+}+[+_+W._.2.t.                                          ",
"                      $ # %                 t..+i i i i i H.t.(+g F.t..+i H.t.                                          ",
"                  |+/ #.# .             I.1+)+2+i i i i._+W.,.h.:.<+t..+o H.t.                                          ",
"                  , ; # # .             t.1+N B i i i H.t..+i i i H.t..+i i.t.                3+                        ",
"      % - )       , ; , - +     @ ( (   t.4+5+r.6+6+6+[+t.J.7+7+7+8+t.$+6+C.l.:+                        u - . @         ",
"      & # ~       , # &         { r r   t..+i 9+g g g F.t.0+a+a+a+b+t.(+g C.i H.t.                      - # / @         ",
"      c+# * ~ u   $.> %       F b d+t   t.4+C 5+e+e+e+f+t.g+Z.Z.Z.y.t.4+e+ .i H.t.                  $.~ #.; )           ",
"      u # # # -               _ J h+'.  t.i+m m m m m j+t.m.k+k+k+l+t.i+m n i H.t.      @           ) # # ; >     @ @ @ ",
"        & - # -               _ m+9 n+      &+f+m  .o s.t.(+X.X.X.F.t.i+m j+_+      $ $ $ ! ! @     / ; , & %   [ $ $ $ ",
"          > # -               _ r r o+@ /   t.4+m n i H.t.(+b.b.b.F.t.i+m j+t.    #.# # ; ; ^     @ > # - @   @ $ ; ; # ",
"      @ @ + % %               { { { {   @       &+G._+E.t.p+u.d.f.;+t.E.&+        q+q+* ; ; # * ~ @ + . + @ [ ^ r+# & . ",
"                3+3+@ @                         t.t.t.t.t.Z.v.w.d.s+t.t.t.          @ ^ ; ; ; ; $ @         ~ ; ; # .   ",
"          @       3+@ @ @ t+r _ _ _ o+@       y.}+u+-+-+-+-+-+g+++>+t.                                          @       ",
"        @ @ v+{ w+x+{ { { !.s s y+z+A+      t.(+g X.k+k+k+l+t.t.t.t.t.                                                  ",
"        @ ] _ _ _ _ _ _ _ B+; ; C+Q D+      t.(+b.b.X.E+k+l+t.t.t.                                                      ",
"      v+: : q q q s o+|.F+B+; $ G+Q H+      t.++g b.b.E+k+l+t.t.t.                                                      ",
"      : _ I+'.'.'.>   H+Q C+;   J+Q H+@       J.>+>+m.m.K+J.                                                            ",
"      : _ 3.t L+~ - / M+Q t ~ !.J I N+          t.t.t.t.t.                                                              ",
"      : _ r _ < ' , '.O+Q <.  Q P+_ o+                                                                                  ",
"      { b < < J+  ) - Q+R '   R J F : @                                                                                 ",
"                                    @                                                                                   ",
"                                                                                                                        ",
"                                                                                                                        ",
"                                                                                                                        ",
"                                                                                                                        ",
"                                                                                                                        ",
"                                                                                                                        "};
