/* XPM */
static char * link_d2_xpm[] = {
"60 60 278 2",
"  	c #368D63",
". 	c #3D905F",
"+ 	c #3A8F60",
"@ 	c #368C64",
"# 	c #6FA442",
"$ 	c #629E4A",
"% 	c #3D9060",
"& 	c #45925C",
"* 	c #67A147",
"= 	c #44925B",
"- 	c #539953",
"; 	c #70A442",
"> 	c #4B9557",
", 	c #599B4F",
"' 	c #348A63",
") 	c #499459",
"! 	c #5E9C4C",
"~ 	c #5A9B4F",
"{ 	c #328964",
"] 	c #2C8367",
"^ 	c #69A146",
"/ 	c #4E9754",
"( 	c #298068",
"_ 	c #1A726C",
": 	c #2F8665",
"< 	c #287F67",
"[ 	c #559951",
"} 	c #41915D",
"| 	c #267867",
"1 	c #166469",
"2 	c #337C5E",
"3 	c #458B57",
"4 	c #318463",
"5 	c #297F68",
"6 	c #338A65",
"7 	c #298067",
"8 	c #468B57",
"9 	c #37845E",
"0 	c #247265",
"a 	c #105667",
"b 	c #4B8650",
"c 	c #70A342",
"d 	c #307E62",
"e 	c #1B726C",
"f 	c #509152",
"g 	c #469359",
"h 	c #409554",
"i 	c #57A954",
"j 	c #67B654",
"k 	c #4E8746",
"l 	c #3D683D",
"m 	c #3F834B",
"n 	c #6F7A4F",
"o 	c #8D6647",
"p 	c #AA855B",
"q 	c #B29368",
"r 	c #3B855D",
"s 	c #257C69",
"t 	c #549350",
"u 	c #4E8A51",
"v 	c #156069",
"w 	c #257564",
"x 	c #198229",
"y 	c #2D9429",
"z 	c #41A429",
"A 	c #226918",
"B 	c #0D420D",
"C 	c #0F631D",
"D 	c #107B29",
"E 	c #4D471C",
"F 	c #734120",
"G 	c #906434",
"H 	c #A47B41",
"I 	c #267868",
"J 	c #4C8750",
"K 	c #115666",
"L 	c #3DA129",
"M 	c #27761D",
"N 	c #379C29",
"O 	c #9DC712",
"P 	c #ECE40C",
"Q 	c #E4CC4B",
"R 	c #E5BD75",
"S 	c #C9A66A",
"T 	c #1A6365",
"U 	c #145D68",
"V 	c #65A048",
"W 	c #43925A",
"X 	c #2C7C1D",
"Y 	c #B3DB10",
"Z 	c #FFFF00",
"` 	c #EBCD31",
" .	c #DEAC52",
"..	c #BB8F48",
"+.	c #155D66",
"@.	c #619E4B",
"#.	c #287865",
"$.	c #175613",
"%.	c #369427",
"&.	c #88A03A",
"*.	c #BFAA4A",
"=.	c #CFB544",
"-.	c #E5BD42",
";.	c #C19B3F",
">.	c #B69534",
",.	c #A98B38",
"'.	c #B18643",
").	c #C8B027",
"!.	c #F8EE10",
"~.	c #318663",
"{.	c #1A6E6B",
"].	c #9FA942",
"^.	c #DBCA1A",
"/.	c #2F7D62",
"(.	c #226D2C",
"_.	c #0F7023",
":.	c #107626",
"<.	c #DBC425",
"[.	c #CCAF2E",
"}.	c #C3954A",
"|.	c #D2A24F",
"1.	c #D7C51D",
"2.	c #7C8B37",
"3.	c #A2784A",
"4.	c #15671D",
"5.	c #409521",
"6.	c #D9ED08",
"7.	c #BBA629",
"8.	c #C9A67E",
"9.	c #88562A",
"0.	c #B3853E",
"a.	c #F2DE21",
"b.	c #B19417",
"c.	c #7D4D27",
"d.	c #0E5918",
"e.	c #A87C36",
"f.	c #E6D253",
"g.	c #D5B48B",
"h.	c #9A6F4B",
"i.	c #AB8D15",
"j.	c #0E4D12",
"k.	c #A3CD10",
"l.	c #CBA981",
"m.	c #C19D76",
"n.	c #0D6521",
"o.	c #C19D6D",
"p.	c #703F20",
"q.	c #52772A",
"r.	c #887632",
"s.	c #D9C150",
"t.	c #E3C59B",
"u.	c #F7DCB3",
"v.	c #69563A",
"w.	c #170D07",
"x.	c #726E39",
"y.	c #EED2A9",
"z.	c #FFE6BD",
"A.	c #E6C89F",
"B.	c #534C33",
"C.	c #000001",
"D.	c #040D04",
"E.	c #0C5319",
"F.	c #082909",
"G.	c #946836",
"H.	c #A87F5B",
"I.	c #4D3523",
"J.	c #0A4B19",
"K.	c #041A09",
"L.	c #1A3C11",
"M.	c #624A27",
"N.	c #8A6539",
"O.	c #472815",
"P.	c #061B06",
"Q.	c #6E8E6E",
"R.	c #D6C890",
"S.	c #CFC99B",
"T.	c #B7A989",
"U.	c #9EA477",
"V.	c #64594C",
"W.	c #333334",
"X.	c #083812",
"Y.	c #0A230A",
"Z.	c #DBBB8B",
"`.	c #664431",
" +	c #094316",
".+	c #686E68",
"++	c #545754",
"@+	c #B6905A",
"#+	c #FAE0B7",
"$+	c #71614C",
"%+	c #9E940D",
"&+	c #E3D9D2",
"*+	c #8397C4",
"=+	c #485A8A",
"-+	c #988E8B",
";+	c #063211",
">+	c #666667",
",+	c #5F4D22",
"'+	c #999900",
")+	c #FBF7E6",
"!+	c #FFFFFF",
"~+	c #31529C",
"{+	c #8A8886",
"]+	c #5B4F40",
"^+	c #140F09",
"/+	c #231B0E",
"(+	c #67AFB5",
"_+	c #33C3F2",
":+	c #0A4C64",
"<+	c #FFEAC8",
"[+	c #DABE95",
"}+	c #2B2319",
"|+	c #42A1B3",
"1+	c #00BAFF",
"2+	c #7B807C",
"3+	c #F0F066",
"4+	c #CCCC00",
"5+	c #594522",
"6+	c #0B222D",
"7+	c #0D1213",
"8+	c #8B7353",
"9+	c #14350D",
"0+	c #69531F",
"a+	c #325127",
"b+	c #293A1A",
"c+	c #44935A",
"d+	c #3C2A16",
"e+	c #53331A",
"f+	c #174619",
"g+	c #1C4F29",
"h+	c #2E1A0D",
"i+	c #378D64",
"j+	c #829E25",
"k+	c #6B6B10",
"l+	c #44935B",
"m+	c #4F9151",
"n+	c #CFE5D4",
"o+	c #70A443",
"p+	c #999999",
"q+	c #2D6C2B",
"r+	c #1E736B",
"s+	c #368360",
"t+	c #4B9027",
"u+	c #324F6C",
"v+	c #5A758F",
"w+	c #29342D",
"x+	c #275617",
"y+	c #217869",
"z+	c #1A4211",
"A+	c #1D3145",
"B+	c #27661A",
"C+	c #4A2920",
"D+	c #2B1914",
"E+	c #6EA343",
"F+	c #1F756C",
"G+	c #745E47",
"H+	c #348B64",
"I+	c #348B63",
"J+	c #338A64",
"K+	c #247767",
"L+	c #1A6E6C",
"M+	c #207669",
"N+	c #669E47",
"O+	c #649A46",
"P+	c #312C25",
"Q+	c #3A221B",
"R+	c #186B6A",
"S+	c #57954D",
"T+	c #1A6465",
"U+	c #653920",
"V+	c #308665",
"W+	c #559651",
"X+	c #1D6866",
"Y+	c #1C6B67",
"Z+	c #28695E",
"`+	c #115A67",
" @	c #81857E",
".@	c #2F7B60",
"                                                                                                                        ",
"                                                            . . . +                                                     ",
"                                                  @         # # # $                                                     ",
"                                            % & % @         $ $ # * = .                                                 ",
"                                            - ; > @           . # # # ,                         @ @ + '                 ",
"                          ) > > )       . > ! ; >             + ~ ~ , >   { ] ] ] {         ' ] ] ] ] ] {               ",
"                        @ ^ ; ; ^       / ; ; ; >                         ( _ _ _ : @       { _ _ _ _ _ <               ",
"                        @ / - ; ^ [ >   ) ; $ - }                         | 1 2 3 4 5 6   7 ] 3 8 8 9 _ <               ",
"                              # # # $ @ / ; -                             0 a b c d e 6   _ | ; ; ; f _ ( @ @           ",
"                              > > > g   % >   h i j j j j j k l m m n o p q   r / f f < s f t ; ; ; u v w               ",
"                                    @ @ @ @   x y z z z z z A B C D E F G H   7 6 $ c I e ; ; ; ; ; J K 0               ",
"                                      h m m L L L z z z z z A B M N O P P P Q R S q   T U & ) ; V W 2 K 0               ",
"                            @         x D D y z z z z z z z A B X L Y Z Z Z `  ...H   +.K   . c @.@ #.K 0               ",
"                        @ $ ^ ^   l x x y N L z z z z z M $.X %.&.*.=.-.;.>.,.'.).!.=.q       . ~.+.1 {.<               ",
"                        @ ^ ; ;   B C D y z z z z z z z A B X z ]. . . ...H H H ^.Z ).H         /.K v _ 5               ",
"      = ; ; ; -       $ ; ;   l (._.:.D x x y z z z z z A B X z &.H <.!.[.H }.|.>.>.1.P =.q                             ",
"      } ^ ^ ; [ . + @ ! ^ ^   B C D D D D D y z z z z z A B x z 2.H ^.Z ).H }. ...H ^.Z ).3.                % . . .     ",
"      @   / ; # # ) @ @       B C D D D D D 4.$.$.$.$.$.M 5.O 6.7.H ^.Z Q 8.3.9.0.|.a.Z b.c.                ~ ; # # .   ",
"        @ g $ $ $ = @         B C D D D D D d.B B B B B x z Y Z ).e.1.Z f.g.h.F '. .P Z i.F             . W ! ; V $ %   ",
"            @             l (._.:.D D D D D :._._._.j.B A x k.Z ).3.0.>.S g.l.m.3.9.e.>.                - # # # W       ",
"                          B n.D D D D D D D :.D D D d.B C D O Z ).e.H H o.g.g.g.h.p.G e.                ) ~ ~ ~ .       ",
"                          B C D D D C j.j.j.4.D C j.C :.q.r.,.>.1.P s.8.t.u.t.g.v.w.                                    ",
"                          B C D D D d.B B B 4.D d.B C D x.,.H H ^.Z f.g.y.z.A.g.B.C.                                    ",
"                          D.E.D C j.F.D.F.B j.j.C _.d.j.E c.G.H ^.Z f.g.H.G 3.p I.C.                                    ",
"                          C.J.D d.B K.C.F.B B B C x d.L.E M.G H ^.Z f.g.h.F N.H O.C.                                    ",
"                          C.F.j.B B P.C.F.B Q.R.S.S.T.U.N.p.e.|.}.>.R.u.H.F G H p q V.W.                                ",
"                          C.F.X.B B Y.D.Y.B U.z.z.z.A.g.h.F 0. ...H Z.z.p p.G H o.g.`.C.                                ",
"                          C. +:.X.D..+  ++D.v.@+t.z.#+u.$+w.%+!.i.c.l.z.&+&+*+=+-+g.B.C.                                ",
"                          C.J.D ;+C.    >+C.,+e.Z.z.z.z.V.C.'+Z i.F 8.z.)+!+*+~+{+g.]+C.                                ",
"                          C.F.$.P.C.      C.^+/+x.@+(+_+:+C.'+Z i.p.8.z.<+<+[+T.++}+                                    ",
"        +                 C.F.B K.C.      C.C.C.M.H |+1+:+C.'+Z i.F l.u.<+u.A.g.B.C.                                    ",
"    @ @ @                   ++D.2+      3+4+7.'.5+/+6+6+7+C.'+Z i.F q [+[+[+$+}+                                        ",
"                              C.        3+Z `  .5+C.C.C.C.C.'+Z i.F p g.g.g.B.C.                                        ",
"                    @ } } +                 8+}+9+;+E.n.F.C.r.-.0+w.a+a+b+}+                                            ",
"                      $ # %                   C.Y.B C D F.C.N. .5+C.F.B P.C.                                            ",
"                  c+/ V # .                   C. +:.X.K.d+e+O./+f+n.n._.n.n.g+W.                                        ",
"                  , ; # # .                   C.J.D ;+C.O.p.h+C.J.D D D D D ;+C.              i+                        ",
"      % - )       , ; , - +     @ ( ( ( 7 7   C.J.D ;+C.f+(.4.C X.K.E.D D D j+4+k+W.                    g - . @         ",
"      & # ~       , # &         { e e e _ _   C.J.x X.C. +D D D ;+C.J.D D D k.Z k+C.                    - # / @         ",
"      l+# * ~ g   W > %       s 7 m+f f   W.g+n.a+,+/+C.2+n+n+n+++C.d+,+,+M.q.5.L.C.                W ~ V ; )           ",
"      g # # # -               _ w o+c c   C.J.D E F h+C.p+!+!+!+>+C.O.F p.p.q+D ;+C.    @           ) # # ; >     @ @ @ ",
"        & - # -               _ r+4 s+&   C.J.D %.t+L.C.u+v+v+v+w+C.x+t+t+t+5.N L.C.  $ $ ! ! @     / ; , & %   [ $ $ $ ",
"          > # -               _ e e y+@   C.J.D y z z+C.A+u+u+u+6+C.B+z z z z z z+C.  # ; ; ^     @ > # - @   @ $ ; ; # ",
"      @ @ + % %               { { { {         K.B+z z+C.C+`.`.`.D+C.E.x %.z x+Y.      * ; ; # * ~ @ + . + @ [ ^ E+# & . ",
"                i+i+@ @                       C.B+z z+C.O.F F p.}+C.J.D y z L.C.    @ ^ ; ; ; ; $ @         ~ ; ; # .   ",
"          @       i+@ @ @ F+e _ _ _ y+@           Y.D.C.G+m.g.A.]+C.D.K.P.Y.                                    @       ",
"        @ @ H+{ I+J+{ { { #.| | K+L+M+            C.C.C.8+g.y.z.V.C.C.C.C.C.                                            ",
"        @ ] _ _ _ _ _ _ _ N+; ; O+K T                 C.7+}+P+P+Q+Q+Q+Q+e+e+I.W.                                        ",
"      H+: : d d d | y+{.R+N+; $ S+K T+          . =   C.C.C.C.C.D+C+C+C+U+F D+C.                                        ",
"      : _ r c c c >   T+K O+;   V+K T+@         , #       C.C.C.D+C+U+U+p.F h+C.                                        ",
"      : _ /.f W+~ - / X+K f ~ #.w v Y+          / , ~ ~   C.C.C.D+C+U+F F F h+C.                                        ",
"      : _ e _ < ' , c Z+K ~.  K `+_ y+                          ++w.w.w.w.w. @                                          ",
"      { 7 < < V+  ) - .@0 '   0 w s : @                           C.C.C.C.C.                                            ",
"                                    @                                                                                   ",
"                                                                                                                        ",
"                                                                                                                        ",
"                                                                                                                        ",
"                                                                                                                        ",
"                                                                                                                        ",
"                                                                                                                        "};
