/* XPM */
static char * link_back_xpm[] = {
"60 60 288 2",
"  	c #368D63",
". 	c #3D905F",
"+ 	c #3A8F60",
"@ 	c #368C64",
"# 	c #6FA442",
"$ 	c #629E4A",
"% 	c #3D9060",
"& 	c #45925C",
"* 	c #67A147",
"= 	c #44925B",
"- 	c #539953",
"; 	c #70A442",
"> 	c #4B9557",
", 	c #599B4F",
"' 	c #348A63",
") 	c #499459",
"! 	c #5E9C4C",
"~ 	c #5A9B4F",
"{ 	c #328964",
"] 	c #2C8367",
"^ 	c #69A146",
"/ 	c #4E9754",
"( 	c #298068",
"_ 	c #1A726C",
": 	c #2F8665",
"< 	c #287F67",
"[ 	c #559951",
"} 	c #41915D",
"| 	c #267867",
"1 	c #166469",
"2 	c #337C5E",
"3 	c #458B57",
"4 	c #318463",
"5 	c #297F68",
"6 	c #338A65",
"7 	c #298067",
"8 	c #468B57",
"9 	c #37845E",
"0 	c #247265",
"a 	c #105667",
"b 	c #4B8650",
"c 	c #70A342",
"d 	c #307E62",
"e 	c #1B726C",
"f 	c #509152",
"g 	c #469359",
"h 	c #673A20",
"i 	c #895B2F",
"j 	c #99783C",
"k 	c #A47B41",
"l 	c #956A37",
"m 	c #1E736B",
"n 	c #166769",
"o 	c #3B855D",
"p 	c #257C69",
"q 	c #549350",
"r 	c #4E8A51",
"s 	c #156069",
"t 	c #257564",
"u 	c #675A4C",
"v 	c #B38A48",
"w 	c #D0B52B",
"x 	c #E3D60F",
"y 	c #A0763E",
"z 	c #8D6533",
"A 	c #C7AF4A",
"B 	c #EBE251",
"C 	c #267868",
"D 	c #4C8750",
"E 	c #115666",
"F 	c #4E543B",
"G 	c #5A5624",
"H 	c #CFC526",
"I 	c #D8D90E",
"J 	c #E1E423",
"K 	c #DCE609",
"L 	c #AEA82D",
"M 	c #AC9325",
"N 	c #1A6365",
"O 	c #145D68",
"P 	c #65A048",
"Q 	c #43925A",
"R 	c #516A52",
"S 	c #395B24",
"T 	c #496824",
"U 	c #94B12F",
"V 	c #A9D215",
"W 	c #779333",
"X 	c #B89675",
"Y 	c #155D66",
"Z 	c #619E4B",
"` 	c #287865",
" .	c #000001",
"..	c #1A5B14",
"+.	c #358C23",
"@.	c #3EA129",
"#.	c #41A429",
"$.	c #449928",
"%.	c #B6915E",
"&.	c #125767",
"*.	c #318663",
"=.	c #1A6E6B",
"-.	c #535147",
";.	c #2B761D",
">.	c #246A1A",
",.	c #1E6116",
"'.	c #459527",
").	c #659E1E",
"!.	c #CD9D4D",
"~.	c #2F7D62",
"{.	c #2E4833",
"].	c #1D4D24",
"^.	c #378622",
"/.	c #25711B",
"(.	c #196218",
"_.	c #30831F",
":.	c #C5B614",
"<.	c #B7B00B",
"[.	c #0C4C15",
"}.	c #31771E",
"|.	c #438025",
"1.	c #81983F",
"2.	c #858A16",
"3.	c #887B0F",
"4.	c #0A4214",
"5.	c #0E621D",
"6.	c #126B1F",
"7.	c #0D420D",
"8.	c #399826",
"9.	c #145514",
"0.	c #107B29",
"a.	c #073A14",
"b.	c #15170A",
"c.	c #372617",
"d.	c #0A330C",
"e.	c #0E5315",
"f.	c #3C9425",
"g.	c #072A0B",
"h.	c #221B19",
"i.	c #4C433A",
"j.	c #164D16",
"k.	c #172B13",
"l.	c #4E4D4A",
"m.	c #D4C1A6",
"n.	c #ECD3AD",
"o.	c #D6C6B7",
"p.	c #A6A5A4",
"q.	c #06240A",
"r.	c #287B1F",
"s.	c #0E5D1B",
"t.	c #193713",
"u.	c #B19887",
"v.	c #97936C",
"w.	c #19551C",
"x.	c #516E3C",
"y.	c #D4B388",
"z.	c #C9A67B",
"A.	c #C9B6A4",
"B.	c #B3926E",
"C.	c #E2C49B",
"D.	c #D9C49C",
"E.	c #ACA87A",
"F.	c #0F7225",
"G.	c #268A27",
"H.	c #399D29",
"I.	c #127526",
"J.	c #225719",
"K.	c #EACEA3",
"L.	c #CCB194",
"M.	c #9D7A63",
"N.	c #CCBCB0",
"O.	c #A98769",
"P.	c #265B24",
"Q.	c #957051",
"R.	c #BDA379",
"S.	c #0F6D23",
"T.	c #1B7724",
"U.	c #2C9229",
"V.	c #734120",
"W.	c #716B34",
"X.	c #1C8529",
"Y.	c #0D5726",
"Z.	c #3C4A1A",
"`.	c #885C37",
" +	c #736B51",
".+	c #0D91A5",
"++	c #0E7866",
"@+	c #0A3C12",
"#+	c #031205",
"$+	c #349929",
"%+	c #348F91",
"&+	c #77581B",
"*+	c #23B7C5",
"=+	c #208471",
"-+	c #0D6521",
";+	c #0A1A08",
">+	c #289B9C",
",+	c #653A1D",
"'+	c #968E89",
")+	c #604C39",
"!+	c #77DA88",
"~+	c #4B311A",
"{+	c #559050",
"]+	c #6F9D62",
"^+	c #5E9864",
"/+	c #A89A93",
"(+	c #4C4823",
"_+	c #4D4D01",
":+	c #FFFF00",
"<+	c #22150C",
"[+	c #78562E",
"}+	c #694B2C",
"|+	c #0B551C",
"1+	c #685722",
"2+	c #3B3727",
"3+	c #7A4D2B",
"4+	c #5A4B28",
"5+	c #361E0F",
"6+	c #5A523C",
"7+	c #523A28",
"8+	c #38351A",
"9+	c #083511",
"0+	c #080C08",
"a+	c #5D411D",
"b+	c #252424",
"c+	c #2B5333",
"d+	c #0A290A",
"e+	c #051B09",
"f+	c #0B3C0E",
"g+	c #44935A",
"h+	c #2A6934",
"i+	c #2E8042",
"j+	c #37434A",
"k+	c #181616",
"l+	c #88AEA1",
"m+	c #47617A",
"n+	c #378D64",
"o+	c #150D09",
"p+	c #4B2D1E",
"q+	c #D0CFCF",
"r+	c #B6C6B6",
"s+	c #FBF9F6",
"t+	c #223951",
"u+	c #47332C",
"v+	c #554738",
"w+	c #316D23",
"x+	c #136B21",
"y+	c #593B1C",
"z+	c #44935B",
"A+	c #7B5032",
"B+	c #463728",
"C+	c #2B2518",
"D+	c #2D2F26",
"E+	c #0D0A06",
"F+	c #18240D",
"G+	c #40601F",
"H+	c #474C1D",
"I+	c #3C3835",
"J+	c #A57C57",
"K+	c #203813",
"L+	c #536D2C",
"M+	c #887B65",
"N+	c #3D2312",
"O+	c #F1E8DD",
"P+	c #706B64",
"Q+	c #807F7D",
"R+	c #508626",
"S+	c #7D7974",
"T+	c #6EA343",
"U+	c #1F756C",
"V+	c #341D15",
"W+	c #348B64",
"X+	c #348B63",
"Y+	c #338A64",
"Z+	c #247767",
"`+	c #669E47",
" @	c #649A46",
".@	c #217869",
"+@	c #186B6A",
"@@	c #57954D",
"#@	c #1A6465",
"$@	c #308665",
"%@	c #559651",
"&@	c #1D6866",
"*@	c #1C6B67",
"=@	c #28695E",
"-@	c #115A67",
";@	c #2F7B60",
"                                                                                                                        ",
"                                                            . . . +                                                     ",
"                                                  @         # # # $                                                     ",
"                                            % & % @         $ $ # * = .                                                 ",
"                                            - ; > @           . # # # ,                         @ @ + '                 ",
"                          ) > > )       . > ! ; >             + ~ ~ , >   { ] ] ] {         ' ] ] ] ] ] {               ",
"                        @ ^ ; ; ^       / ; ; ; >                         ( _ _ _ : @       { _ _ _ _ _ <               ",
"                        @ / - ; ^ [ >   ) ; $ - }                         | 1 2 3 4 5 6   7 ] 3 8 8 9 _ <               ",
"                              # # # $ @ / ; -                             0 a b c d e 6   _ | ; ; ; f _ ( @ @           ",
"                              > > > g   % > }       h i j k k k k l h     m n o / f f < p f q ; ; ; r s t               ",
"                                    @ @ @ @       u v w x x x w v y z A B B     / $ c C e ; ; ; ; ; D E 0               ",
"                                                F G A H I J K L M j j H J J v     / & N O & ) ; P Q 2 E 0               ",
"                            @                 R S T U U V V V U W W W H K x k X   / @ Y E   . c Z @ ` E 0               ",
"                        @ $ ^ ^ $ @          ...+.@.@.@.@.@.@.#.#.$.#.V K K k k %.  Y &.E     . *.Y 1 =.<               ",
"                        @ ^ ; ; * @       -.;.>.,.,.,.....,.,.,.,...,.'.).L !.H H w             ~.E s _ 5               ",
"      = ; ; ; -       $ ; ; ;           {.].^./.(....................._.$.W A w :.<.                                    ",
"      } ^ ^ ; [ . + @ ! ^ ^ ^         R ].[.;./././././././././././././.}.|.1.2.2.3.i                       % . . .     ",
"      @   / ; # # ) @ @              .4.5.6.7.;.8.@.#.#.#.@.#.#.#.#.#./.9.9.0.a.b.c.y                       ~ ; # # .   ",
"        @ g $ $ $ = @                .d.e.,._.8.@.#.#.#.#.#.#.#.#.#.@.f._.;.e.g.h.i.                    . Q ! ; P $ %   ",
"            @                        .d.[.(.+.8.$.#.#.#.#.#.#.#.#.#.#.8.+.;.j.g.k.l.                    - # # # Q       ",
"                            m.n.o.p.q.7.e.(.;.f.$.@.#.#.#.#.#.#.#.#.@.+.r.>.s.a.t.l.n.n.o.              ) ~ ~ ~ .       ",
"                          n.k %.u.v.7.5.6.(.7./.f.#.#.#.#.#.#.#.#.@.@./.9.e.0.s.w.x.y.X %.z.                            ",
"                      A.B.B.C.n.D.E.7.s.F.F.6.G.H.@.@.#.#.#.#.#.#.@.#.G.I.I.0.s.J.x.n.K.y.L.M.N.                        ",
"                      N.O.M.C.K.D.E.4.5.F.0.F.G.8.@.@.@.#.#.@.@.@.@.@.G.I.F.0.s.P.x.K.K.C.y.Q.                          ",
"                        L.u.R.z.R.v.7.s.S.F.5.T.U.8.@.#.#.#.@.@.@.@.G.I.6.6.0.s.J.T y.z.z.X u.                          ",
"                          n.V.z z W.7.s.S.S.7.5.I.X.@.@.#.#.@.@.@.U.X.s.e.9.0.Y.w.Z.k i `.M.                            ",
"                            o.O. +R .+++Y.@+#+[.S.X.X.$+@.@.@.$+X.X.0.4.q.q.9.++.+%+&+B.N.                              ",
"                              B. +R *+=+Y.d. .4.-+X.X.G.$+@.@.G.X.X.0.@+;+;+j.=+>+%+,+u.                                ",
"                              '+)+F !+R S c. .4.S.0.0.X.G.U.U.X.X.0.0.a.;+;+~+{+]+^+c./+                                ",
"                                (+_+:+<.&+~+ .4.-+0.0.0.0.X.0.0.0.0.0.a.b.<+V.:.K <. .                                  ",
"        +                           _+&+[+}+ .g.|+-+0.0.0.0.0.0.F.F.e.q.b.h.l 1+G W.                                    ",
"    @ @ @                           2+}+3+4+ .g.@+[.0.0.0.0.0.0.F.-+7.;+;+5+z 4+6+                                      ",
"                                      u 7+8+ .#+q.9+0.0.0.0.0.0.F.-+q.#+0+<+a+u                                         ",
"                    @ } } +             b+ . . .0+q.0.0.0.0.0.0.S.|+ . . . . .                                          ",
"                      $ # %         l.c+|+e.d+e+#+e+e.-+F.0.0.-+e.f+ .e+g.@+s.c+                                        ",
"                  g+/ P # .         b+c+h+h+f+q.e+q.f+s.F.0.0.s.7.d.#+q.@+].i+c+j+                                      ",
"                  , ; # # .         k+R ]+^+7.f+@+9+q.|+S.0.0.[.9+g.a.4.j.h+l+m+j+j+          n+                        ",
"      % - )       , ; , - +     b+o+p+/+q+r+7.s.5.|+ .4.S.0.0.a.e+g.0.s.P.R s+l+m+t+ .                  g - . @         ",
"      & # ~       , # &     l.u+p+7+h v+l.F (+w+x+e. .d+7.9.e.q.e+q.I.S (+4+-.-.i.7+y+7+                - # / @         ",
"      z+# * ~ g   Q > %     k+7+}+3+A+B+C+D+}+S P.w.E+d+f+f+7.q.b.F+T.G+H+(+k.7+}+3+3+B+I+          Q ~ P ; )           ",
"      g # # # -              .)+M.J+J+(+K+K+L+T G+H+5+F+q.q.q.<+c.8+S T T G+;+}+Q.J+%.4+D+          ) # # ; >     @ @ @ ",
"        & - # -              .M+C.n.y. +P.,.#.L+&+V.h 5+E+ . .N+,+V.V.L+'.^.@+{+y.C.O+P+u+  ! @     / ; , & %   [ $ $ $ ",
"          > # -               Q+-.u+u+b+F+f+#.R+R+R+R+}.}.;.;.|.R+R+R+'.^.}.0+C+D+u+l.S+    ^     @ > # - @   @ $ ; ; # ",
"      @ @ + % %                 l.2+k+o+b.t.'.f.$.$.$.'.$.f.8.$.$.$.'.'.}.>.E+0+k+k+I+      # * ~ @ + . + @ [ ^ T+# & . ",
"                n+n+@ @               o+k+C+..r.+.$+#.#.#.#.#.#.H.H.U.;.J.t.<+E+o+b+      ; ; ; $ @         ~ ; ; # .   ",
"          @       n+@ @ @ U+e _         N+V+ .4.6.X.#.#.#.#.#.#.H.U.0.9+;+o+p+<+b+                              @       ",
"        @ @ W+{ X+Y+{ { { ` | | Z+      b+o+V+8+H+G 1+Z.t.d.d.H+G 1+G ~+V+<+o+                                          ",
"        @ ] _ _ _ _ _ _ _ `+; ;  @E     i.b+c.~+y+y+a+B+D+D+D+~+y+a+a+p+p+b+b+                                          ",
"      W+: : d d d | .@=.+@`+; $ @@E #@      <+V+N+N+N+-.      -.p+N+c.c.c.                                              ",
"      : _ o c c c >   #@E  @;   $@E #@@      . . . . .    ; @   b+ . . .k+                                              ",
"      : _ ~.f %@~ - / &@E f ~ ` t s *@                  , ~                                                             ",
"      : _ e _ < ' , c =@E *.  E -@_ .@                                                                                  ",
"      { 7 < < $@  ) - ;@0 '   0 t p : @                                                                                 ",
"                                    @                                                                                   ",
"                                                                                                                        ",
"                                                                                                                        ",
"                                                                                                                        ",
"                                                                                                                        ",
"                                                                                                                        ",
"                                                                                                                        "};
