/* XPM */
static char * link_g2_xpm[] = {
"60 60 256 2",
"  	c #368D63",
". 	c #3D905F",
"+ 	c #3A8F60",
"@ 	c #368C64",
"# 	c #6FA442",
"$ 	c #629E4A",
"% 	c #3D9060",
"& 	c #45925C",
"* 	c #67A147",
"= 	c #44925B",
"- 	c #539953",
"; 	c #70A442",
"> 	c #4B9557",
", 	c #599B4F",
"' 	c #348A63",
") 	c #499459",
"! 	c #5E9C4C",
"~ 	c #5A9B4F",
"{ 	c #328964",
"] 	c #2C8367",
"^ 	c #69A146",
"/ 	c #4E9754",
"( 	c #298068",
"_ 	c #1A726C",
": 	c #2F8665",
"< 	c #287F67",
"[ 	c #559951",
"} 	c #B69567",
"| 	c #977052",
"1 	c #8E6948",
"2 	c #508C52",
"3 	c #3E974B",
"4 	c #3E7142",
"5 	c #3D683D",
"6 	c #5FA74F",
"7 	c #67B654",
"8 	c #489C54",
"9 	c #409554",
"0 	c #458B57",
"a 	c #318463",
"b 	c #297F68",
"c 	c #338A65",
"d 	c #298067",
"e 	c #468B57",
"f 	c #37845E",
"g 	c #A47B41",
"h 	c #7D4D27",
"i 	c #734120",
"j 	c #246F27",
"k 	c #107B29",
"l 	c #0E4D13",
"m 	c #0D420D",
"n 	c #379023",
"o 	c #41A429",
"p 	c #1A8329",
"q 	c #70A342",
"r 	c #307E62",
"s 	c #1B726C",
"t 	c #267867",
"u 	c #509152",
"v 	c #D0AB70",
"w 	c #E5BD75",
"x 	c #E9DB22",
"y 	c #EDE50D",
"z 	c #E5DB08",
"A 	c #E3D906",
"B 	c #5AA822",
"C 	c #379C29",
"D 	c #175513",
"E 	c #257C69",
"F 	c #549350",
"G 	c #4E8A51",
"H 	c #156069",
"I 	c #257564",
"J 	c #D2A24F",
"K 	c #DEAC52",
"L 	c #F8EE10",
"M 	c #FFFF00",
"N 	c #67B621",
"O 	c #4C8750",
"P 	c #115666",
"Q 	c #247265",
"R 	c #BC9938",
"S 	c #B08544",
"T 	c #B69534",
"U 	c #E5BD42",
"V 	c #C9A44A",
"W 	c #BFA74F",
"X 	c #559A2D",
"Y 	c #1E6116",
"Z 	c #346A39",
"` 	c #65A048",
" .	c #43925A",
"..	c #337C5E",
"+.	c #60A631",
"@.	c #619E4B",
"#.	c #287865",
"$.	c #E4D61D",
"%.	c #C1A52C",
"&.	c #B28A42",
"*.	c #228A29",
"=.	c #107225",
"-.	c #318663",
";.	c #155D66",
">.	c #166469",
",.	c #1A6E6B",
"'.	c #2F7D62",
").	c #DBB53F",
"!.	c #916E34",
"~.	c #88562A",
"{.	c #C19D76",
"].	c #C9A67C",
"^.	c #F7F01C",
"/.	c #CED614",
"(.	c #D9ED08",
"_.	c #57A31E",
":.	c #41915D",
"<.	c #D4B387",
"[.	c #D1AF87",
"}.	c #B58F45",
"|.	c #A8803E",
"1.	c #479724",
"2.	c #0D571A",
"3.	c #0F661F",
"4.	c #0F7023",
"5.	c #469359",
"6.	c #D5B48B",
"7.	c #AE8650",
"8.	c #423831",
"9.	c #160D07",
"0.	c #AE9871",
"a.	c #F0D4AB",
"b.	c #F7DCB3",
"c.	c #1C7F29",
"d.	c #104F13",
"e.	c #333334",
"f.	c #000001",
"g.	c #AA906F",
"h.	c #FFE6BD",
"i.	c #DDBE95",
"j.	c #2B7928",
"k.	c #8F623F",
"l.	c #966A44",
"m.	c #85552B",
"n.	c #041608",
"o.	c #030E04",
"p.	c #0B3E0F",
"q.	c #06280D",
"r.	c #875936",
"s.	c #F5EE19",
"t.	c #0A350B",
"u.	c #031909",
"v.	c #5C5C5C",
"w.	c #937D63",
"x.	c #A57F4A",
"y.	c #6B3C20",
"z.	c #CDC699",
"A.	c #CFD19F",
"B.	c #345627",
"C.	c #E3C59E",
"D.	c #B6905A",
"E.	c #3D6330",
"F.	c #646C8A",
"G.	c #485A8A",
"H.	c #C4C0C4",
"I.	c #E3D9D2",
"J.	c #FEE8C5",
"K.	c #E0CE15",
"L.	c #463415",
"M.	c #CBB695",
"N.	c #2A2518",
"O.	c #2B332C",
"P.	c #526699",
"Q.	c #31529C",
"R.	c #D6DCEB",
"S.	c #FFFFFF",
"T.	c #333301",
"U.	c #191D0D",
"V.	c #0D6321",
"W.	c #4B4640",
"X.	c #938E72",
"Y.	c #B4A08E",
"Z.	c #299CC2",
"`.	c #33C3F2",
" +	c #21190E",
".+	c #0095CC",
"++	c #00BAFF",
"@+	c #594F30",
"#+	c #001E2A",
"$+	c #002534",
"%+	c #C7BF0D",
"&+	c #CCCC00",
"*+	c #334330",
"=+	c #2E260E",
"-+	c #195B23",
";+	c #0F6B21",
">+	c #54311B",
",+	c #5C341A",
"'+	c #44935A",
")+	c #ADAD0B",
"!+	c #368A22",
"~+	c #1F6D26",
"{+	c #409521",
"]+	c #378D64",
"^+	c #33781A",
"/+	c #5F4D22",
"(+	c #0A1A07",
"_+	c #A6B7AA",
":+	c #CFE5D4",
"<+	c #30342E",
"[+	c #CCCCCC",
"}+	c #44935B",
"|+	c #4F9151",
"1+	c #4B9027",
"2+	c #0D2109",
"3+	c #6E544D",
"4+	c #130F08",
"5+	c #3C7320",
"6+	c #70A443",
"7+	c #348321",
"8+	c #3B211A",
"9+	c #4A2920",
"0+	c #1E736B",
"a+	c #368360",
"b+	c #10340F",
"c+	c #579A51",
"d+	c #217869",
"e+	c #B89E7E",
"f+	c #271F18",
"g+	c #3C905F",
"h+	c #6EA343",
"i+	c #1F756C",
"j+	c #522D20",
"k+	c #342D25",
"l+	c #090707",
"m+	c #348B64",
"n+	c #348B63",
"o+	c #338A64",
"p+	c #247767",
"q+	c #1A6E6C",
"r+	c #207669",
"s+	c #0F0807",
"t+	c #669E47",
"u+	c #649A46",
"v+	c #1A6365",
"w+	c #186B6A",
"x+	c #57954D",
"y+	c #1A6465",
"z+	c #3B855D",
"A+	c #308665",
"B+	c #559651",
"C+	c #1D6866",
"D+	c #1C6B67",
"E+	c #28695E",
"F+	c #115A67",
"G+	c #2F7B60",
"                                                                                                                        ",
"                                                            . . . +                                                     ",
"                                                  @         # # # $                                                     ",
"                                            % & % @         $ $ # * = .                                                 ",
"                                            - ; > @           . # # # ,                         @ @ + '                 ",
"                          ) > > )       . > ! ; >             + ~ ~ , >   { ] ] ] {         ' ] ] ] ] ] {               ",
"                        @ ^ ; ; ^       / ; ; ; >                         ( _ _ _ : @       { _ _ _ _ _ <               ",
"                        @ / - ; ^ [ >   ) ; $   } | 1 2 3 4 5 6 7 7 7 7 7 8 9   0 a b c   d ] 0 e e f _ <               ",
"                              # # # $ @ / ; - } g h i j k l m n o o o o o p k   q r s c   _ t ; ; ; u _ ( @ @           ",
"                              > > >     } v w x y z A B C D m n o o o o o C C 3 9 9 9   E u F ; ; ; G H I               ",
"                                    @ } g J K L M M M N o D m n o o o o o o o p k k k   s ; ; ; ; ; O P Q               ",
"                                    } x z R S T T U U V W X n Y D n o o o o o C C p k Z 5   ) ; `  ...P Q               ",
"                            @     } g y M T g g g J K K K +.o D m n o o o o o o o p k l m   . q @.@ #.P Q               ",
"                        @ $ ^   } $.y %.T J J g g $.L R &.X o D m n o o o o o *.p k k =.=.Z 5   -.;.>.,.<               ",
"                        @ ^ ; } g y M T g J K S g y M T g X o D m n o o o o o p k k k k k l m   '.P H _ b               ",
"      = ; ; ; -       $ ; ; ; | h z M ).J !.~.{.].^.M T g /.(._.n Y D D D D D =.k k k k k l m                           ",
"      :.^ ^ ; [ . + @ ! ^ ^ ^ | i A M U K ~.i {.<.^.M T g y M N o D m m m m m =.k k k k k l m               % . . .     ",
"      @   / ; # # ) @ @           W R ~.~.} {.[.<.}.T |.g y M 1.p 2.m 3.4.4.4.k k k k k k 4.4.Z 5           ~ ; # # .   ",
"        @ 5.$ $ $ = @             } g h i {.6.6.6.7.g g g y M n k l m 4.k k k k k k k k k k k l m       .  .! ; ` $ %   ",
"            @                         8.9.0.6.a.b.<.].x y %.T g !.c.4.d.l =.k 2.l l l =.k k k l m       - # # #  .      ",
"                                      e.f.g.6.b.h.i.6.^.M T g g g j.p l m 4.k l m m m 4.k k k l m       ) ~ ~ ~ .       ",
"                                      e.f.k.7.l.k.].6.^.M T g m.h D l 3.=.d.l m m n.o.p.l =.k q.o.                      ",
"                                      e.f.r.g h i {.6.s.M T g m.i m m 4.k d.m m m o.f.t.m 4.k u.f.                      ",
"                                  v.e.w.g.x.g h y.i.b.V T V V ~.i 7.0.z.A.z.z.B.m o.f.t.m l l o.f.                      ",
"                                  e.f.g.6.7.g h i C.h.D.g J K ~.i {.6.b.h.h.h.E.m o.f.t.m m m o.f.                      ",
"                                  e.f.g.6.F.G.H.I.J.h.l.h K.L L.9.M.b.h.h.{.D.N.o.    O.o.2.4.u.f.                      ",
"                                  e.f.g.6.P.Q.R.S.J.h.k.y.z M T.f.M.h.h.J.D.S U.f.    e.f.V.k u.f.                      ",
"                                      W.N.X.Y.J.J.h.h.k.i z M T.f.Z.`.X.D.L. +f.f.    e.f.p.l o.f.                      ",
"                                      e.f.g.[.b.h.h.h.k.i A M T.f..+++X.S U.f.f.f.    e.f.t.m o.f.                      ",
"                                          @+N.Y.i.i.i.r.i A M T.f.#+$+U. +!.&.%+&+        O.o.                          ",
"        +                                 e.f.g.M.[.6.r.i z M T.f.f.f.f.f.|.K L M         e.f.                          ",
"    @ @ @                                     @+N.*+B.U.9.R U =+f.l V.p.t.N.=+                                          ",
"                                              e.f.t.m o.f.&.K N.f.V.p l m o.f.                                          ",
"                    @ :.:.+               v.e.-+V.;+4.V.V.N.=+>+,+U.u.2.4.u.f.                                          ",
"                      $ # %               e.f.V.k k k k k u.f.,+y.9.f.V.k u.f.                                          ",
"                  '+/ ` # .           v.e.)+&+!+k k k q.u.2.V.~+j n.f.V.k u.f.                                          ",
"                  , ; # # .           e.f.&+M {+p p k u.f.V.k k k u.f.;+k u.f.                ]+                        ",
"      % - )       , ; , - +     @ ( ( e.f.^+n /+/+/+/+(+f._+:+:+:+O.f.>+/+-+V.<+e.                      5.- . @         ",
"      & # ~       , # &         { s s e.f.3.k /+i i y.9.f.[+S.S.S.e.f.,+i j k u.f.                      - # / @         ",
"      }+# * ~ 5.   .> %       E d |+u e.f.j.C 1+1+1+1+2+f.@+3+3+3+4+f.5+1+p k u.f.                   .~ ` ; )           ",
"      5.# # # -               _ I 6+q e.f.7+o o o o o U.f.8+9+9+9+9.f.7+o p k u.f.      @           ) # # ; >     @ @ @ ",
"        & - # -               _ 0+a a+    *+2+n o *.p u.f.>+y.y.y.9.f.7+o b+u.    c+$ $ $ ! ! @     / ; , & %   [ $ $ $ ",
"          > # -               _ s s d+@ / e.f.7+o p k u.f.,+y.i i 9.f.7+o 2+f.    ` # # ; ; ^     @ > # - @   @ $ ; ; # ",
"      @ @ + % %               { { { {         *+2+u.u.f.f.e+C.].{.f+f.(+2+        g+g+* ; ; # * ~ @ + . + @ [ ^ h+# & . ",
"                ]+]+@ @                       e.f.f.f.f.f.M.J.i.6.N.f.f.f.          @ ^ ; ; ; ; $ @         ~ ; ; # .   ",
"          @       ]+@ @ @ i+s _ _ _ d+@   v.e.j+,+9+8+8+8+k+k+k+N.l+f.                                          @       ",
"        @ @ m+{ n+o+{ { { #.t t p+q+r+    e.f.,+i j+9+9+9+s+f.f.f.f.f.                                                  ",
"        @ ] _ _ _ _ _ _ _ t+; ; u+P v+    e.f.,+i i y.j+9+s+f.f.f.                                                      ",
"      m+: : r r r t d+,.w+t+; $ x+P y+    e.f.,+i i i j+9+s+f.f.f.                                                      ",
"      : _ z+q q q >   y+P u+;   A+P y+@       e.9.9.9.s+s+                                                              ",
"      : _ '.u B+~ - / C+P u ~ #.I H D+        e.f.f.f.f.f.                                                              ",
"      : _ s _ < ' , q E+P -.  P F+_ d+                                                                                  ",
"      { d < < A+  ) - G+Q '   Q I E : @                                                                                 ",
"                                    @                                                                                   ",
"                                                                                                                        ",
"                                                                                                                        ",
"                                                                                                                        ",
"                                                                                                                        ",
"                                                                                                                        ",
"                                                                                                                        "};
