/* XPM */
static char *link_floor1[] = {
/* columns rows colors chars-per-pixel */
"60 60 229 2 ",
"   c #000100",
".  c #090605",
"X  c #060D06",
"o  c #090E0B",
"O  c #130D0B",
"+  c #0B1006",
"@  c #0C180C",
"#  c #1A170C",
"$  c #1C1A18",
"%  c #0F1C1F",
"&  c #261B17",
"*  c #15251E",
"=  c #172B15",
"-  c #1A371B",
";  c #2A211A",
":  c #352519",
">  c #263718",
",  c #312509",
"<  c #17292F",
"1  c #232926",
"2  c #232323",
"3  c #392922",
"4  c #2B3530",
"5  c #243E33",
"6  c #35372D",
"7  c #4E3906",
"8  c #492F11",
"9  c #412D26",
"0  c #4B3527",
"q  c #513E35",
"w  c #1E441F",
"e  c #2E421D",
"r  c #1C4733",
"t  c #1C4833",
"y  c #1F4420",
"u  c #284939",
"i  c #314539",
"p  c #395334",
"a  c #30532A",
"s  c #357938",
"d  c #367637",
"f  c #366B36",
"g  c #574913",
"h  c #684415",
"j  c #494E34",
"k  c #61443A",
"l  c #6A4B3D",
"z  c #734F30",
"x  c #486529",
"c  c #506F2E",
"v  c #4D6B34",
"b  c #7F7B33",
"n  c #113344",
"m  c #394D44",
"M  c #364D42",
"N  c #36594A",
"B  c #2B5254",
"V  c #2A6247",
"C  c #37634E",
"Z  c #3C6D57",
"A  c #37795A",
"S  c #3A7459",
"D  c #2C645E",
"F  c #115666",
"G  c #155D66",
"H  c #186769",
"J  c #1B726C",
"K  c #2B7D64",
"L  c #257666",
"P  c #307E62",
"I  c #286A66",
"U  c #1D424A",
"Y  c #42504A",
"T  c #6E4E41",
"R  c #755345",
"E  c #785446",
"W  c #775C44",
"Q  c #6A5540",
"!  c #44735B",
"~  c #4F6749",
"^  c #766E4B",
"/  c #457C61",
"(  c #487B62",
")  c #72706E",
"_  c #8D560F",
"`  c #B06B0A",
"'  c #845D3D",
"]  c #96693A",
"[  c #8D6536",
"{  c #AB7830",
"}  c #81601F",
"|  c #C47707",
" . c #C97D1B",
".. c #835C49",
"X. c #896849",
"o. c #936D4F",
"O. c #B77D49",
"+. c #AC7952",
"@. c #8F7963",
"#. c #3B843E",
"$. c #508B3B",
"%. c #6A963B",
"&. c #6FA93F",
"*. c #3A875E",
"=. c #3D905F",
"-. c #2D8466",
";. c #298068",
":. c #368D63",
">. c #3B8C63",
",. c #3A8463",
"<. c #3D9060",
"1. c #5A9B4E",
"2. c #589449",
"3. c #488A54",
"4. c #4C9557",
"5. c #44925B",
"6. c #499458",
"7. c #519352",
"8. c #549952",
"9. c #5A9956",
"0. c #4B9648",
"q. c #629E4A",
"w. c #679849",
"e. c #708E47",
"r. c #4BAE4F",
"t. c #4AA34C",
"y. c #53A64D",
"u. c #55B14E",
"i. c #4CAE50",
"p. c #54AB52",
"a. c #57B159",
"s. c #6DA343",
"d. c #68A547",
"f. c #70A442",
"g. c #7AAB45",
"h. c #69B74C",
"j. c #6CB84C",
"k. c #64B64D",
"l. c #7CBD4A",
"z. c #76B84A",
"x. c #62B257",
"c. c #4C866A",
"v. c #468968",
"b. c #4C916E",
"n. c #72A37A",
"m. c #7D9479",
"M. c #93882F",
"N. c #B78728",
"B. c #A7992E",
"V. c #83B438",
"C. c #B2B92B",
"Z. c #CF8C16",
"A. c #FF9700",
"S. c #FE9C01",
"D. c #F39209",
"F. c #EA8C05",
"G. c #DABD16",
"H. c #DEAA10",
"J. c #FDA604",
"K. c #FDBE06",
"L. c #F8BA0A",
"P. c #EDB310",
"I. c #C08E23",
"U. c #CAB228",
"Y. c #E6BF24",
"T. c #FDC006",
"R. c #FCC109",
"E. c #FDD31F",
"W. c #D6D238",
"Q. c #FCD825",
"!. c #F4DE3D",
"~. c #E0CE3C",
"^. c #FDE02F",
"/. c #FEEA3B",
"(. c #FDE333",
"). c #89954C",
"_. c #B18E4B",
"`. c #81B347",
"'. c #83BC49",
"]. c #BA936D",
"[. c #AF8E65",
"{. c #A5BD72",
"}. c #999568",
"|. c #D6935A",
" X c #C88952",
".X c #E1AD5E",
"XX c #C99A6F",
"oX c #D5A679",
"OX c #CDB177",
"+X c #FDAC61",
"@X c #F7AD67",
"#X c #FCB46D",
"$X c #FDB975",
"%X c #FDBB78",
"&X c #EEB378",
"*X c #8AC149",
"=X c #85C04A",
"-X c #BFC17A",
";X c #DBDE40",
":X c #DEC97F",
">X c #C0C27C",
",X c #1967A7",
"<X c #2C6D92",
"1X c #1F79C3",
"2X c #3A83B3",
"3X c #4E9B88",
"4X c #4BA0B5",
"5X c #2095F2",
"6X c #389AC3",
"7X c #43A2DC",
"8X c #AF9D94",
"9X c #B6AE96",
"0X c #95BA93",
"qX c #E7BA8A",
"wX c #DFB384",
"eX c #ABC798",
"rX c #B3DBB4",
"tX c #FCC588",
"yX c #FDCB92",
"uX c #F7C891",
"iX c #EFCA8F",
"pX c #FCDDB7",
"aX c #E3C7A7",
"sX c #D2D2CF",
"dX c #E5DACD",
"fX c #F5E4CA",
"gX c #FDFEFD",
"hX c #F6F6F6",
"jX c #F3F1E9",
/* pixels */
":.:.:.:.:.:.:.:.:.:.:.:.:.:.:.:.:.:.:.:.:.:.:.:.:.:.:.:.:.:.:.:.:.:.:.:.:.:.:.:.:.:.:.:.:.:.:.:.:.:.:.:.:.:.:.:.:.:.:.:.",
":.:.:.:.:.:.:.:.:.:.:.:.:.:.:.:.:.:.:.:.:.:.A t t t t t t t t t t t t t t >.:.:.:.:.:.:.:.:.:.:.:.:.:.:.:.:.:.:.:.:.:.:.",
":.:.:.:.:.:.:.:.:.:.:.:.:.:.:.:.:.:.:.:.<.:.t                           o v.:.:.:.:.:.:.:.:.:.:.:.:.:.:.:.:.:.:.:.:.:.:.",
":.:.:.:.:.:.:.:.:.:.:.:.:.:.:.:.:.:.:.:.b.b.u X X + + + + + + + + + + X @ b.b.b.:.:.:.:.:.:.:.:.:.:.:.:.:.:.:.:.:.:.:.:.",
":.:.:.:.:.:.:.:.:.:.:.:.:.:.:.:.:.:.:.:.o   a r.i.*X*X*X*X*X*X*X*X*Xz.r.r.+   u :.:.:.:.:.:.:.:.:.:.:.:.:.:.:.:.:.:.:.:.",
":.:.:.:.:.:.:.:.:.:.:.:.:.6.4.4.4.:.:.-.o   a r.u.*X*X*X*X*X*X*X*X*Xz.r.r.+   B ;.:.:.:.:.:.:.-.;.-.-.-.:.:.:.:.:.:.:.:.",
":.:.:.:.:.:.:.:.:.:.:.:.:.d.s.f.d.S 6 M f d 0.l.z.*X*X*X*X*X*X*X*X*X'.l.j.d d p i N ,.:.:.:.-.J J J J J ;.:.:.:.:.:.:.:.",
":.:.:.:.:.:.:.:.:.:.:.:.:.4.8.s.s.f   . t.r.j.'.*X*X*X*X*X*X*X*X*X*X*X*X'.r.r.a   $ K :.:.K -.v.3.3.-.J ;.:.:.:.:.:.:.:.",
":.:.:.:.:.:.:.:.:.:.:.:.:.:.:.e.e.v = = u.u.j.=Xl.l.l.l.l.l.l.l.l.l.l.l.l.u.x.f = 4 I / v.J L s.s.f.7.J K :.:.:.:.:.:.:.",
":.:.:.:.:.:.:.:.:.:.:.:.:.:.:.*   w r.r.=X=Xj.r.r.r.r.r.r.r.r.r.r.r.r.r.r.*X'.h.r.0.    Z 7.7.f.s.f.3.H L :.:.:.:.:.:.:.",
":.:.:.:.:.:.:.:.:.:.:.:.:.:.:.*   - r.r.=X*Xj.r.r.r.r.r.r.r.r.r.r.r.r.r.u.=X=Xj.r.t.    D w.f.f.f.f.3.F L :.:.:.:.:.:.:.",
":.:.:.:.:.:.:.:.:.:.:.:.:.:.:.*   e l.=X^ ^ _.;X;X;X;X;X;XW.G.G.G.G.G.G.G.[ ^ f.l.s.    B 6.6.f.w.5.A F L :.:.:.:.:.:.:.",
":.:.:.:.:.:.:.:.:.:.:.:.:.:.:.*   e =X'.W R _././././././.^.T.T.T.T.T.T.L.W R ).=Xg.    B :.>.f.q.:.L F L :.:.:.:.:.:.:.",
":.:.:.:.:.:.:.:.:.:.:.:.,.~ ~ a y x ).).B._.U.^.E.^.Q.Q.^.E.T.T.T.T.T.T.R.N.{ M.).%.y y M C / :.*.G H J L :.:.:.:.:.:.:.",
":.:.:.:.:.:.:.:.:.:.:.:.A     #.i.7.E E !./.E.T.T.T.T.T.T.T.T.T.T.T.R.R.T.T.T.N.R W r.r.-   4 :.K F H J K :.:.:.:.:.:.:.",
":.:.:.5.f.f.f.8.:.:.:.d.%.    #.y.w.W z (./.E.T.T.T.T.T.T.T.T.T.K.T.L.R.L.T.T.N.W W r.y.-   4 5.>.>.:.:.:.:.:.:.:.:.:.:.",
":.:.:.5.d.s.f.9.<.,.:.9.2.    . o g L.P.T.R.L.A.J.K.T.T.T.T.T.T.J.A.Z.' ' L.K.E.!.;X.   .   9 #X#Xn.:.:.:.:.:.=.=.=.:.:.",
":.:.:.:.:.6.f.f.f.6.:.,.S         g K.K.T.T.J.A.A.K.T.T.T.T.T.T.A.A. .E E P.K.Q./.~.        9 +X+Xn.:.:.:.:.1.f.f.f.<.:.",
":.:.:.:.:.5.y.w.j p m.eX9X@.@.q 0 z T.K.N.N.H.J.J.T.T.T.T.T.T.T. .{ {  X X{ N.G.Q.Y.9 9 R X.[.%X%X~ u Z 5.5.q.s.d.1.<.:.",
":.:.:.:.:.:.:.>.X   }.fXpXpXpX@.z { T.T...E N.T.T.T.T.T.T.T.T.T.X.E +.+X+X..E I.K.P.E E oXyXtXyXyX&   m 8.s.f.s.5.:.:.:.",
":.:.:.:.:.:.:.b.2 $ }.aXaXpXpXo.l ] P.P.] ' I.T.K.K.K.K.T.L.H.H.] X.O.@X@X..E I.K.P.E E oXqXtXwXwX6 2 Y 6.1.1.1.5.:.:.:.",
":.:.:.:.:.:.:.:.:.:.5   & +X+X, X ; E z D.A.J.T.T.K.K.J.A.|      X+X$XyXuX..E I.K.P...z |.+XO.    c.:.>.:.:.:.:.:.:.:.:.",
":.:.:.:.:.:.:.:.:.:.5   : +X+X:   , E ..D.A.J.T.T.T.K.J.A.|      X+X%XyXtX..E I.K.P.E ..|.+XO.    c.:.:.:.:.:.:.:.:.:.:.",
":.:.:.:.:.:.:.:.:.:.<X,X<X0 8 ` ` h & & F.A.S.J.S.{ { h 8 7 O.O.&XtXtXyXyX|.|.[ 7 g Z. .z 8 Y ,X,X3X:.:.:.:.:.:.:.:.:.:.",
":.:.:.:.:.:.:.:.:.:.6X5X1X    ` A.`     F.A.A.A.D.R z :   : +X+XtXyXyXyXyX+X#Xz   # A.A.8   < 5X5X3X:.:.:.:.:.:.:.:.:.:.",
":.:.:.:.:.:.:.:.:.:.4X7X2X    Z.S.` $ & ` `  .Z.Z.o.o.k 9 z #X#XyXyXqXwXoX|.|.z & : J.J.7   n 7X7X3X:.:.:.:.:.:.:.:.:.:.",
":.:.:.:.:.:.:.:.:.:.:.:.A     Z.T.Z.E E .   3 E ..+X+X+X+X#XyXyXyXyXXXE E E E E R ' T.T.7   4 :.>.:.:.:.:.:.:.:.:.:.:.:.",
":.:.>.:.:.:.:.:.:.:.:.:.A     Z.K.U.E E .   3 R ..+X+X+X+X#XyXyXyXyXXXE E E E E E ' T.T.7   4 :.:.:.:.:.:.:.:.:.:.:.:.:.",
":.:.:.:.:.:.:.:.:.:.:.:.A   X U.^.B.O O sXsX0Xt.1.X...oXtXtXyXyX+.o.^ y.p.sXdX) O : (.(.g   4 :.:.:.:.:.:.:.:.:.:.:.:.:.",
":.:.:.:.:.:.:.:.:.:.:.:.A     C./.B.    jXgXeXr.y.E E oXyXyXyXyXo.E ( u.p.jXhX)   # /./.g   4 :.:.:.:.:.:.:.:.:.:.:.:.:.",
":.:.:.:.:.:.:.:.:.:.:.:.,.m M [ M.g     dXfXeXi.p.8X8XqXyXyXyXyX9X8X}.r.p.fXfX)   O M.M.~ Y ! :.:.:.:.:.:.:.:.:.:.:.:.:.",
":.:.:.:.:.:.:.:.:.:.:.:.:.:.:.* .       qXyX{.i.a.gXgXpXyXyXyXyXhXgXrXr.r.iXyXW         Z :.:.:.:.:.:.:.:.:.:.:.:.:.:.:.",
":.:.:.:.:.:.:.:.:.:.:.:.:.:.:.*         qXyX{.r.a.gXgXpXyXyXyXyXjXgXrXu.p.iXyXW         ! :.:.:.:.:.:.:.:.:.:.:.:.:.:.:.",
":.:.:.:.:.:.:.:.:.:.:.5.5.:.:.:.:.V     T E ].yXyXyXyXyXyXyXyXyXyXyXyXyXiXX.E 3   $ :.:.:.:.:.:.:.:.:.:.:.:.:.:.:.:.:.:.",
":.:.:.:.:.:.:.:.:.:.:.q.f.<.:.:.:.V     T E ].yXyXyXyXyXyXyXyXyXyXyXyXyXiX..W :   2 :.:.:.:.:.:.:.:.:.:.:.:.:.:.:.:.:.:.",
":.:.:.:.:.:.:.:.:.5.6.d.f.<.>.N N j c c 3 : q l W %X%X%X$X$X$X$X$X$XXXQ l 3 : j v v m m v.:.:.:.:.:.:.:.:.:.:.:.:.:.:.:.",
":.:.:.:.:.:.:.:.,.1.f.f.f.5.:.* X e *X*X+       O +X+X+X+X+X+X+X+X+X] X       x *Xg.    Z ,.:.:.:.:.:.:.:.:.:.:.:.:.:.:.",
":.:.>.<.8.5.:.:.:.1.f.1.9.c.c.5 # a *X*X= @ @ @ = .X.X.X.X.X.X.X.X.X] @ @ @ = c *Xg.= # ! c.v.:.:.:.:.:.5.8.5.:.:.:.:.:.",
":.:.:.5.f.1.:.:.:.1.f.5.A     %.*X*X*X*Xu.r.r.r.r.r.r.u.r.r.r.r.r.r.r.r.r.r.r.j.*X*X*X*X>   4 :.:.:.:.:.8.s.6.:.:.:.:.:.",
":.:.:.5.f.d.1.6.:.5.4.=.A     %.*X*X*X*Xr.r.r.r.r.r.r.r.r.r.r.r.r.r.r.r.r.r.r.j.*X*X*X*Xe   4 :.:.:.5.1.d.f.6.:.:.:.:.:.",
":.:.:.5.f.f.s.8.:.:.N 4 j ].].OX:X}.> > = = d r.r.r.r.r.r.r.r.r.r.r.r.r.r.- = - > e iX:X].].}.4 4 v.4.f.f.f.6.>.:.:.:.:.",
":.:.:.>.5.8.f.8.:.:.5   3 uXyXyXuX[.        a r.r.r.r.r.r.r.r.r.r.r.r.r.r.+       & yXyXyXyX].    c.4.f.1.6.<.:.1.q.1.d.",
":.:.:.:.:.6.s.8.:.:.u   : tXtXyXyX].- - > > a #.s s s d.=X=Xg.V.$.s s s d > > > - e yXyXtXtX[.    c.6.s.8.:.:.:.q.f.s.s.",
":.:.:.:.:.:.5.:.:.:.5   : +X+XtXyX{.r.r.=X*Xx       X B./.^.T.R.,       . `.*Xh.r.x.yXyX#X+XO.    c.:.<.>.:.8.d.s.s.5.<.",
":.:.:.:.:.:.:.:.:.:.5   : +X+XtXyX{.p.i.=X*Xx         B./.^.T.T.,       . `.*Xh.i.x.uXyX#X+XO.    c.:.:.:.:.1.f.f.f.<.:.",
":.:.:.:.:.:.:.:.:.:.>.,.S # # # $ # # @ `.*Xl.g.g.t.0.C.R.K.S.S.%.0.y.g.g.*X*Xx + @ $ & # # 6 v.v.>.:.:.:.:.:.:.:.:.:.:.",
":.:.:.:.:.:.-.:.-.:.:.:.A               g.*X=X=X=Xr.r.U.T.K.A.A.&.r.k.*X'.*X*Xa             4 >.:.:.:.:.:.:.:.:.:.:.:.:.",
":.:.:.:.:.-.J J J J J J I a j j p <     x x %.j.j.h.u.C.U.U.U.U.g.h.j.j.z.c x >   O u u u u Z >.:.:.:.:.:.:.:.:.:.:.:.:.",
":.:.:.:.-.-.A -.A K J J H d.f.d.8.n         a r.u.'.*X*X*X*X*X*X*X*Xz.r.t.X       $ :.,.:.:.:.:.:.:.:.:.:.:.:.:.:.:.:.:.",
":.:.:.-.J *.f.f.f.4.:.H F q.f.v.,.U . . . . a t.t.l.`.`.`.`.'.g.`.'.h.t.t.o . .   2 >.>.>.:.:.:.:.:.:.:.:.:.:.:.:.:.:.:.",
":.:.:.-.J K 7.2.1.8.4.H F 7.2.* X 2 E E R R 3 X   . .   . .   X .   X   . T R R R l . . / :.:.:.:.:.:.:.:.:.:.:.:.:.:.:.",
":.:.:.:.J J J K :.2.f.D F -.:.%   & E E R E 3                             T R R R T     Z :.:.:.:.:.:.:.:.:.:.:.:.:.>.:.",
":.:.:.:.;.;.;.-.:.6.8.P J :.:.*   & E E R E k 0 9     u C C C C $   $ 0 0 E E E E T     Z :.:.:.:.:.:.:.:.:.:.:.:.:.:.:.",
":.:.:.:.:.:.:.>.:.:.:.:.:.:.:.*   & E E E E E E T     V :.:.:.:.1   ; E E E E E R T     ! :.:.:.:.:.:.:.:.:.:.:.:.:.:.:.",
":.:.:.:.:.:.:.:.:.:.:.:.:.:.:.i 1 6 k k k k k k k 2 1 S :.:.:.:.Y 2 6 k k k k k k k 1 1 / :.:.:.:.:.:.:.:.:.:.:.:.:.:.:.",
":.:.:.:.:.:.:.:.:.:.:.:.:.:.:.:.,.V             o :.:.:.:.:.:.:.:.:.C             $ :.:.:.:.:.:.:.:.:.:.:.:.:.:.:.:.:.:.",
":.:.:.:.:.:.:.:.:.:.:.:.:.:.:.:.:.V             o :.:.:.:.:.:.:.:.:.C             $ :.:.:.:.:.:.:.:.:.:.:.:.:.:.:.:.:.:.",
":.:.:.:.:.:.:.:.:.:.:.:.:.:.:.:.:.>.( ( / ( ( / / :.:.:.:.:.:.:.:.:.v.( / / / / / c.:.:.:.:.:.:.:.:.:.:.:.:.:.:.:.:.:.:.",
":.:.:.:.:.:.:.:.:.:.:.:.:.:.:.:.:.:.:.:.:.:.:.:.:.:.:.:.:.:.:.:.:.:.:.:.:.:.:.:.:.:.:.:.:.:.:.:.:.:.:.:.:.:.:.:.:.:.:.:.",
":.:.:.:.:.:.:.:.:.:.:.:.:.:.:.:.:.:.:.:.:.:.:.:.:.:.:.:.:.:.:.:.:.:.:.:.:.:.:.:.:.:.:.:.:.:.:.:.:.:.:.:.:.:.:.:.:.:.:.:."
};
