/* XPM */
static char * link_g1_xpm[] = {
"60 60 177 2",
"  	c #368D63",
". 	c #3D905F",
"+ 	c #3A8F60",
"@ 	c #368C64",
"# 	c #6FA442",
"$ 	c #629E4A",
"% 	c #3D9060",
"& 	c #45925C",
"* 	c #67A147",
"= 	c #44925B",
"- 	c #539953",
"; 	c #70A442",
"> 	c #4B9557",
", 	c #599B4F",
"' 	c #348A63",
") 	c #499459",
"! 	c #5E9C4C",
"~ 	c #5A9B4F",
"{ 	c #328964",
"] 	c #2C8367",
"^ 	c #69A146",
"/ 	c #4E9754",
"( 	c #298068",
"_ 	c #1A726C",
": 	c #2F8665",
"< 	c #287F67",
"[ 	c #559951",
"} 	c #B69567",
"| 	c #8F674D",
"1 	c #409554",
"2 	c #3D683D",
"3 	c #67B654",
"4 	c #166469",
"5 	c #337C5E",
"6 	c #458B57",
"7 	c #318463",
"8 	c #297F68",
"9 	c #338A65",
"0 	c #298067",
"a 	c #468B57",
"b 	c #37845E",
"c 	c #A47B41",
"d 	c #734120",
"e 	c #107B29",
"f 	c #0D420D",
"g 	c #41A429",
"h 	c #105667",
"i 	c #4B8650",
"j 	c #70A342",
"k 	c #307E62",
"l 	c #1B726C",
"m 	c #267867",
"n 	c #509152",
"o 	c #E5BD75",
"p 	c #EDE50D",
"q 	c #E3D906",
"r 	c #379C29",
"s 	c #257C69",
"t 	c #549350",
"u 	c #4E8A51",
"v 	c #156069",
"w 	c #257564",
"x 	c #DEAC52",
"y 	c #FFFF00",
"z 	c #267868",
"A 	c #4C8750",
"B 	c #115666",
"C 	c #247265",
"D 	c #B08544",
"E 	c #B69534",
"F 	c #E5BD42",
"G 	c #BFAA4A",
"H 	c #379023",
"I 	c #175613",
"J 	c #145D68",
"K 	c #65A048",
"L 	c #43925A",
"M 	c #619E4B",
"N 	c #287865",
"O 	c #D2A24F",
"P 	c #F8EE10",
"Q 	c #1A8329",
"R 	c #0F7023",
"S 	c #318663",
"T 	c #155D66",
"U 	c #1A6E6B",
"V 	c #2F7D62",
"W 	c #7D4D27",
"X 	c #88562A",
"Y 	c #CBA97C",
"Z 	c #D9ED08",
"` 	c #41915D",
" .	c #D5B48B",
"..	c #C19D76",
"+.	c #469359",
"@.	c #170D07",
"#.	c #F7DCB3",
"$.	c #867B3C",
"%.	c #0E4D13",
"&.	c #000001",
"*.	c #FFE6BD",
"=.	c #875835",
"-.	c #332E27",
";.	c #030D03",
">.	c #333334",
",.	c #AA906F",
"'.	c #3E4F83",
").	c #CCCCCC",
"!.	c #AD9D72",
"~.	c #CFD19F",
"{.	c #CFC59A",
"].	c #31529C",
"^.	c #FFFFFF",
"/.	c #B6905A",
"(.	c #2B241D",
"_.	c #B4A08E",
":.	c #FFEBCA",
"<.	c #33C3F2",
"[.	c #21190E",
"}.	c #00BAFF",
"|.	c #DDBE95",
"1.	c #002534",
"2.	c #B28A42",
"3.	c #CCCC00",
"4.	c #355926",
"5.	c #0D6221",
"6.	c #0A350B",
"7.	c #2C2211",
"8.	c #FFFFCC",
"9.	c #5C341A",
"0.	c #031909",
"a.	c #44935A",
"b.	c #246F27",
"c.	c #378D64",
"d.	c #409521",
"e.	c #5F4D22",
"f.	c #CFE5D4",
"g.	c #3E3922",
"h.	c #3B211A",
"i.	c #4A2920",
"j.	c #44935B",
"k.	c #4F9151",
"l.	c #4B9027",
"m.	c #6E544D",
"n.	c #1C6B27",
"o.	c #70A443",
"p.	c #1E736B",
"q.	c #0D2109",
"r.	c #6B3C20",
"s.	c #438B27",
"t.	c #579A51",
"u.	c #217869",
"v.	c #E3C59E",
"w.	c #3C905F",
"x.	c #6EA343",
"y.	c #1F756C",
"z.	c #348B64",
"A.	c #348B63",
"B.	c #338A64",
"C.	c #247767",
"D.	c #1A6E6C",
"E.	c #207669",
"F.	c #669E47",
"G.	c #649A46",
"H.	c #1A6365",
"I.	c #186B6A",
"J.	c #57954D",
"K.	c #1A6465",
"L.	c #3B855D",
"M.	c #308665",
"N.	c #0F0807",
"O.	c #559651",
"P.	c #1D6866",
"Q.	c #1C6B67",
"R.	c #28695E",
"S.	c #115A67",
"T.	c #2F7B60",
"                                                                                                                        ",
"                                                            . . . +                                                     ",
"                                                  @         # # # $                                                     ",
"                                            % & % @         $ $ # * = .                                                 ",
"                                            - ; > @           . # # # ,                         @ @ + '                 ",
"                          ) > > )       . > ! ; >             + ~ ~ , >   { ] ] ] {         ' ] ] ] ] ] {               ",
"                        @ ^ ; ; ^       / ; ; ; >                         ( _ _ _ : @       { _ _ _ _ _ <               ",
"                        @ / - ; ^ [ >   ) ; } } | | 1 1 2 2 3 3 3 3 3 3 1 1 4 5 6 7 8 9   0 ] 6 a a b _ <               ",
"                              # # # $ @ / ; c c d d e e f f g g g g g g e e h i j k l 9   _ m ; ; ; n _ ( @ @           ",
"                              > > > } } o o p p q q r r f f g g g g g g r r 1 1 1 1 n < s n t ; ; ; u v w               ",
"                                    c c x x y y y y g g f f g g g g g g g g e e e e j z l ; ; ; ; ; A B C               ",
"                                } } p p D D E E F F G G H H I I g g g g g g r r e e 2 2 J & ) ; K L 5 B C               ",
"                            @   c c y y c c c c x x x x g g f f g g g g g g g g e e f f B   . j M @ N B C               ",
"                        @ $ } } p p E E O O c c P P D D g g f f g g g g g g Q Q e e R R 2 2   . S T 4 U <               ",
"                        @ ^ c c y y c c x x c c y y c c g g f f g g g g g g e e e e e e f f     V B v _ 8               ",
"      = ; ; ; -       $ ; ; W W y y O O X X Y Y y y c c Z Z H H I I I I I I e e e e e e f f                             ",
"      ` ^ ^ ; [ . + @ ! ^ ^ d d y y x x d d  . .y y c c y y g g f f f f f f e e e e e e f f                 % . . .     ",
"      @   / ; # # ) @ @         E E X X .... . .E E c c y y Q Q f f R R R R e e e e e e R R 2 2             ~ ; # # .   ",
"        @ +.$ $ $ = @           c c d d  . . . .c c c c y y e e f f e e e e e e e e e e e e f f         . L ! ; K $ %   ",
"            @                       @.@. . .#.#.Y Y p p E E $.$.R R %.%.e e %.%.%.%.e e e e f f         - # # # L       ",
"                                    &.&. . .*.*. . .y y c c c c e e f f e e f f f f e e e e f f         ) ~ ~ ~ .       ",
"                                    &.&.=.=.-.-.#.#.y y c c W W %.%.R R %.%.f f ;.;.%.%.e e ;.;.                        ",
"                                    &.&.d d &.&.*.*.y y c c d d f f e e f f f f &.&.f f e e &.&.                        ",
"                                >.>.,.,.'.'.).).*.*.E E O O d d !.!.~.~.{.{.f f &.&.f f %.%.&.&.                        ",
"                                &.&. . .].].^.^.*.*.c c x x d d  . .*.*.*.*.f f &.&.f f f f &.&.                        ",
"                                &.&. . .].].^.^.*.*.W W P P @.@.#.#.*.*././.;.;.    ;.;.R R &.&.                        ",
"                                &.&. . .].].^.^.*.*.d d y y &.&.*.*.*.*.c c &.&.    &.&.e e &.&.                        ",
"                                    (.(._._.:.:.*.*.d d y y &.&.<.<././.[.[.&.&.    &.&.%.%.&.&.                        ",
"                                    &.&. . .*.*.*.*.d d y y &.&.}.}.c c &.&.&.&.    &.&.f f &.&.                        ",
"                                        (.(.|.|.|.|.d d y y &.&.1.1.[.[.2.2.3.3.        ;.;.                            ",
"        +                               &.&. . . . .d d y y &.&.&.&.&.&.x x y y         &.&.                            ",
"    @ @ @                                   (.(.4.4.@.@.F F &.&.5.5.6.6.7.7.8.8.                                        ",
"                                            &.&.f f &.&.x x &.&.e e f f &.&.                                            ",
"                    @ ` ` +             >.>.5.5.R R 5.5.7.7.9.9.0.0.R R &.&.                                            ",
"                      $ # %             &.&.e e e e e e &.&.d d &.&.e e &.&.                                            ",
"                  a./ K # .         >.>.3.3.e e e e 0.0.5.5.b.b.&.&.e e &.&.                                            ",
"                  , ; # # .         &.&.y y e e e e &.&.e e e e &.&.e e &.&.                  c.                        ",
"      % - )       , ; , - +     @ ( &.&.d.d.e.e.e.e.&.&.f.f.f.f.&.&.g.g.h.h.>.>.                        +.- . @         ",
"      & # ~       , # &         { l &.&.e e d d d d &.&.^.^.^.^.&.&.i.i.i.i.&.&.                        - # / @         ",
"      j.# * ~ +.  L > %       s 0 k.&.&.r r l.l.l.l.&.&.m.m.m.m.&.&.i.i.n.n.&.&.                    L ~ K ; )           ",
"      +.# # # -               _ w o.&.&.g g g g g g &.&.i.i.i.i.&.&.i.i.e e &.&.        @           ) # # ; >     @ @ @ ",
"        & - # -               _ p.7     q.q.g g Q Q &.&.r.r.r.r.&.&.s.s.0.0.      t.$ $ $ ! ! @     / ; , & %   [ $ $ $ ",
"          > # -               _ l l u.@ &.&.g g e e &.&.d d d d &.&.g g &.&.      K # # ; ; ^     @ > # - @   @ $ ; ; # ",
"      @ @ + % %               { { { {       q.q.0.0.&.&.v.v.....&.&.q.q.          w.w.* ; ; # * ~ @ + . + @ [ ^ x.# & . ",
"                c.c.@ @                     &.&.&.&.&.&.*.*. . .&.&.&.&.            @ ^ ; ; ; ; $ @         ~ ; ; # .   ",
"          @       c.@ @ @ y.l _ _ _ u.@ >.>.9.9.h.h.h.h.-.-.(.(.&.&.                                            @       ",
"        @ @ z.{ A.B.{ { { N m m C.D.E.  &.&.d d i.i.i.i.&.&.&.&.&.&.                                                    ",
"        @ ] _ _ _ _ _ _ _ F.; ; G.B H.  &.&.d d r.r.i.i.&.&.&.&.                                                        ",
"      z.: : k k k m u.U I.F.; $ J.B K.  &.&.d d d d i.i.&.&.&.&.                                                        ",
"      : _ L.j j j >   K.B G.;   M.B K.@     @.@.@.@.N.N.        @                                                       ",
"      : _ V n O.~ - / P.B n ~ N w v Q.      &.&.&.&.&.&., ~                                                             ",
"      : _ l _ < ' , j R.B S   B S._ u.                                                                                  ",
"      { 0 < < M.  ) - T.C '   C w s : @                                                                                 ",
"                                    @                                                                                   ",
"                                                                                                                        ",
"                                                                                                                        ",
"                                                                                                                        ",
"                                                                                                                        ",
"                                                                                                                        ",
"                                                                                                                        "};
