/* XPM */
static char * link_d3_xpm[] = {
"60 60 264 2",
"  	c #368D63",
". 	c #3D905F",
"+ 	c #3A8F60",
"@ 	c #368C64",
"# 	c #6FA442",
"$ 	c #629E4A",
"% 	c #3D9060",
"& 	c #45925C",
"* 	c #67A147",
"= 	c #44925B",
"- 	c #539953",
"; 	c #70A442",
"> 	c #4B9557",
", 	c #599B4F",
"' 	c #348A63",
") 	c #499459",
"! 	c #5E9C4C",
"~ 	c #5A9B4F",
"{ 	c #328964",
"] 	c #2C8367",
"^ 	c #69A146",
"/ 	c #4E9754",
"( 	c #298068",
"_ 	c #1A726C",
": 	c #2F8665",
"< 	c #287F67",
"[ 	c #559951",
"} 	c #337C5E",
"| 	c #458B57",
"1 	c #318463",
"2 	c #297F68",
"3 	c #338A65",
"4 	c #298067",
"5 	c #468B57",
"6 	c #37845E",
"7 	c #348F42",
"8 	c #107B29",
"9 	c #379C29",
"0 	c #41A429",
"a 	c #175613",
"b 	c #0D420D",
"c 	c #0F7024",
"d 	c #5D4A22",
"e 	c #734120",
"f 	c #9A6F3A",
"g 	c #A47B41",
"h 	c #70A342",
"i 	c #307E62",
"j 	c #1B726C",
"k 	c #267867",
"l 	c #509152",
"m 	c #469359",
"n 	c #409554",
"o 	c #238B29",
"p 	c #3B9F29",
"q 	c #147725",
"r 	c #979A15",
"s 	c #C7AB2A",
"t 	c #257C69",
"u 	c #549350",
"v 	c #4E8A51",
"w 	c #156069",
"x 	c #257564",
"y 	c #3DA129",
"z 	c #369124",
"A 	c #D8EC08",
"B 	c #FFFF00",
"C 	c #E5BD42",
"D 	c #DEAC52",
"E 	c #B08544",
"F 	c #4C8750",
"G 	c #115666",
"H 	c #247265",
"I 	c #338421",
"J 	c #2C7B1E",
"K 	c #236B19",
"L 	c #72A826",
"M 	c #80A739",
"N 	c #DBD326",
"O 	c #F2DE21",
"P 	c #DBCB1A",
"Q 	c #CCA449",
"R 	c #C8984A",
"S 	c #CAB226",
"T 	c #65A048",
"U 	c #43925A",
"V 	c #0B4615",
"W 	c #A17839",
"X 	c #EDE50D",
"Y 	c #B69534",
"Z 	c #619E4B",
"` 	c #287865",
" .	c #2E6E2F",
"..	c #0E5A19",
"+.	c #2D9429",
"@.	c #B19552",
"#.	c #B99457",
"$.	c #E9CA33",
"%.	c #B3853E",
"&.	c #B98D46",
"*.	c #D3BD22",
"=.	c #318663",
"-.	c #155D66",
";.	c #166469",
">.	c #1A6E6B",
",.	c #9A863B",
"'.	c #2F7D62",
").	c #0F641D",
"!.	c #257921",
"~.	c #96C914",
"{.	c #B8925F",
"].	c #A78329",
"^.	c #906434",
"/.	c #41915D",
"(.	c #3D683D",
"_.	c #0E4D12",
":.	c #DDC36F",
"<.	c #D5B48B",
"[.	c #875835",
"}.	c #6C3D20",
"|.	c #F5EB0F",
"1.	c #8F671A",
"2.	c #2A8727",
"3.	c #D6B874",
"4.	c #A77E59",
"5.	c #9A6F4B",
"6.	c #AD7E40",
"7.	c #B89667",
"8.	c #CFE508",
"9.	c #C8A679",
"0.	c #0F6921",
"a.	c #527232",
"b.	c #BEBA1F",
"c.	c #DDBE94",
"d.	c #E3C59E",
"e.	c #442714",
"f.	c #AD9474",
"g.	c #867B3C",
"h.	c #F6DDB4",
"i.	c #FFE6BD",
"j.	c #232529",
"k.	c #000001",
"l.	c #2E512D",
"m.	c #082808",
"n.	c #063111",
"o.	c #0C3D0C",
"p.	c #785833",
"q.	c #EBD37F",
"r.	c #E6C89F",
"s.	c #CDAE88",
"t.	c #C29E73",
"u.	c #271B15",
"v.	c #333334",
"w.	c #020D04",
"x.	c #0A340B",
"y.	c #5D461C",
"z.	c #FFF58E",
"A.	c #EDE5D9",
"B.	c #2A190E",
"C.	c #0C5018",
"D.	c #5A6B51",
"E.	c #64885C",
"F.	c #70A664",
"G.	c #644829",
"H.	c #EED2A9",
"I.	c #AB835F",
"J.	c #50502E",
"K.	c #D4C598",
"L.	c #D9BA8B",
"M.	c #2B2419",
"N.	c #183619",
"O.	c #0D6221",
"P.	c #041909",
"Q.	c #866435",
"R.	c #EBCEA5",
"S.	c #352B25",
"T.	c #CCCC00",
"U.	c #071607",
"V.	c #4F3B20",
"W.	c #A0D2D0",
"X.	c #867255",
"Y.	c #806C54",
"Z.	c #21ADD9",
"`.	c #00BAFF",
" +	c #0F2830",
".+	c #575954",
"++	c #858533",
"@+	c #666601",
"#+	c #0A6C8E",
"$+	c #05131C",
"%+	c #EDD1A4",
"&+	c #96856B",
"*+	c #FFFF33",
"=+	c #FFFF66",
"-+	c #1B2614",
";+	c #062D0F",
">+	c #C1B11A",
",+	c #6C7749",
"'+	c #858659",
")+	c #0A4A19",
"!+	c #263209",
"~+	c #083A13",
"{+	c #5C341A",
"]+	c #170D07",
"^+	c #44935A",
"/+	c #3C471D",
"(+	c #4C541D",
"_+	c #378D64",
":+	c #1C4F29",
"<+	c #27571C",
"[+	c #386425",
"}+	c #131314",
"|+	c #70B07F",
"1+	c #CCCCCC",
"2+	c #FFFFFF",
"3+	c #44935B",
"4+	c #4F9151",
"5+	c #3E885B",
"6+	c #5F6924",
"7+	c #97989A",
"8+	c #ADBAC7",
"9+	c #70A443",
"0+	c #0D2109",
"a+	c #27425C",
"b+	c #315273",
"c+	c #1E736B",
"d+	c #368360",
"e+	c #509755",
"f+	c #3C3C42",
"g+	c #4B4B52",
"h+	c #276219",
"i+	c #217869",
"j+	c #407D54",
"k+	c #593220",
"l+	c #3C8F61",
"m+	c #346329",
"n+	c #3C905F",
"o+	c #6EA343",
"p+	c #1F756C",
"q+	c #685742",
"r+	c #1B120C",
"s+	c #348B64",
"t+	c #348B63",
"u+	c #338A64",
"v+	c #247767",
"w+	c #1A6E6C",
"x+	c #207669",
"y+	c #3B211A",
"z+	c #4A2920",
"A+	c #669E47",
"B+	c #649A46",
"C+	c #1A6365",
"D+	c #186B6A",
"E+	c #57954D",
"F+	c #1A6465",
"G+	c #659F48",
"H+	c #3B855D",
"I+	c #308665",
"J+	c #559651",
"K+	c #1D6866",
"L+	c #1C6B67",
"M+	c #28695E",
"N+	c #115A67",
"O+	c #2F7B60",
"                                                                                                                        ",
"                                                            . . . +                                                     ",
"                                                  @         # # # $                                                     ",
"                                            % & % @         $ $ # * = .                                                 ",
"                                            - ; > @           . # # # ,                         @ @ + '                 ",
"                          ) > > )       . > ! ; >             + ~ ~ , >   { ] ] ] {         ' ] ] ] ] ] {               ",
"                        @ ^ ; ; ^       / ; ; ; >                         ( _ _ _ : @       { _ _ _ _ _ <               ",
"                        @ / - ; ^ [ >   ) ; $                                 } | 1 2 3   4 ] | 5 5 6 _ <               ",
"                              # # # $ @ / ; - 7 8 9 0 0 0 0 0 a b c c d e f g   h i j 3   _ k ; ; ; l _ ( @ @           ",
"                              > > > m         n o p 0 0 0 0 0 a b q o r r s s         < t l u ; ; ; v w x               ",
"                                    @ 7 8 8 o 9 y y 0 0 0 y 0 a b z 0 A B B B C D E g   j ; ; ; ; ; F G H               ",
"                                      o 8 o o 9 0 0 0 0 0 I J K K L M N O P P Q R s S     & ) ; T U } G H               ",
"                            @       V c 8 y 0 0 0 0 0 0 0 a b z p Q D D D E W g g X B Y W   . h Z @ ` G H               ",
"                        @ $ ^      ...q 8 o +.y 0 0 0 0 0 ..b z y @.#.$.$.%.g &.&.*.P S S     . =.-.;.>.<               ",
"                        @ ^ ;     c 8 8 8 8 8 9 0 0 0 y y a b z 0 ,.,.X B Y g D D E g X B Y g   '.G w _ 2               ",
"      = ; ; ; -       $ ; ; ;   b ).8 8 8 8 8 !.J J I J I K K L ~.,.g X B Q {.E E &.&.X B ].^.                          ",
"      /.^ ^ ; [ . + @ ! ^ ^ ^ (.b c 8 8 8 8 8 _.b b b b b z y A B Y g X B :.<.[.}.R D |.B 1.e               % . . .     ",
"      @   / ; # # ) @ @        ...8 8 8 8 8 8 ).......b b 2.+.A B Y g *.P 3.<.4.5.6.6.P P 7.                ~ ; # # .   ",
"        @ m $ $ $ = @       b c 8 8 8 8 8 8 8 8 8 o 8 _.b c 8 8.B Y g g g 9.<.<.<.[.e f g               . U ! ; T $ %   ",
"            @               b c 8 8 8 0.).).).c 8 ).)..... .a.b.P S S #.{.c.d.<.<.}.e.f.                - # # # U       ",
"                            b c 8 8 8 _.b b b c 8 _.b c o g.g g g X B :.<.h.i.c.<.j.k.                  ) ~ ~ ~ .       ",
"                          l.m.0.8 0.).n.m.o.b ..).....).).p.^.W g X B q.r.s.9.t.t.u.k.                                  ",
"                          v.k.).8 _.b w.k.x.b b b 0.o _.b y.e W g X B z.A.^.e 5.g B.k.                                  ",
"                          v.k.C.).V b w.k.x.b D.E.F.F.a.a.G.e W R *.P d.H.7.4.R I.p.J.                                  ",
"                          v.k.x.b b b w.k.x.b K.i.i.i.c.L.[.e R D E W 9.<.h.i.c.<.<.<.M.k.                              ",
"                          v.k.V ..x.m.    N.m.f.K.h.i.H.r.G.e.S $.W ^.<.r.c.L.9.t.s.<.M.k.                              ",
"                          v.k.O.8 P.k.    v.k.Q.g R.i.i.i.S.k.T.B 1.e d.i.#.g g 6.9.L.M.k.                              ",
"                          v.k.C.).U.k.    v.k.V.d 9.L.W.W.j.k.T.B 1.e d.i.<.9.7.{.X.Y.                                  ",
"                          v.k.x.b w.k.    v.k.k.k.Q.g Z.`. +k.T.B 1.e d.i.i.i.L.<.M.k.                                  ",
"                              N.m..+      ++@+d d G.d #+#+$+k.T.B 1.}.<.H.H.%+&+Y.                                      ",
"        +                     v.k.        *+B C D M.k.k.k.k.k.T.B 1.e t.<.<.<.M.k.                                      ",
"    @ @ @                                 z.=+E p.-+P.;+n.w.k.>+O y.e.,+'+X.Y.                                          ",
"                                              v.w.x.b c 8 P.k.Y D M.k.x.b w.k.                                          ",
"                    @ /./.+                   v.k._...C.)+M.B.p.Q.!+n._...~+n.                                          ",
"                      $ # %                   v.k.O.8 U.k.{+e ]+k.O.8 8 8 8 8 P.k.                                      ",
"                  ^+/ T # .                   v.k.O.8 P.k./+(+N.n.V )+c 8 8 8 @+@+                                      ",
"                  , ; # # .                   v.k.O.8 P.k.O.o 8 8 m.k.).8 8 8 T.B !+k.        _+                        ",
"      % - )       , ; , - +     @ ( ( ( 4     :+n.<+[+}+k.E.|+|+|+$+k.l.[+[+[+~.~.!+k.                  m - . @         ",
"      & # ~       , # &         { j j j _ v.k.).8 y.e ]+k.1+2+2+2+v.k.{+e e e !.8 P.k.                  - # / @         ",
"      3+# * ~ m   U > %       t 4 4+l l 5+v.k.).8 a.6+}+k.7+8+8+8+j.k.(+6+6+6+I o P.k.              U ~ T ; )           ",
"      m # # # -               _ x 9+h h , v.k.O.8 9 0 0+k.a+b+b+b+$+k.I 0 0 0 0 0 P.k.  @           ) # # ; >     @ @ @ ",
"        & - # -               _ c+1 d+& e+    :+)+z 0 0+k.f+g+g+g+}+k.!.+.y 0 [+h+      $ ! ! @     / ; , & %   [ $ $ $ ",
"          > # -               _ j j i+@ / ; j+v.k.I 0 0+k.k+}.e e ]+k.O.8 9 0 0+k.  # # ; ; ^     @ > # - @   @ $ ; ; # ",
"      @ @ + % %               { { { {   @ l+'     m+h+U.k.p.5.4.I.u.k.~+)+<+h+      n+* ; ; # * ~ @ + . + @ [ ^ o+# & . ",
"                _+_+@ @                           v.k.k.k.f.<.h.i.S.k.k.k.k.k.      @ ^ ; ; ; ; $ @         ~ ; ; # .   ",
"          @       _+@ @ @ p+j _ _ _ i+@               }+k.q+Y.&+&+S.r+r+B.B.B.                                  @       ",
"        @ @ s+{ t+u+{ { { ` k k v+w+x+              + v.k.k.k.k.k.y+z+z+z+}.e ]+k.                                      ",
"        @ ] _ _ _ _ _ _ _ A+; ; B+G C+              $     }+k.k.k.y+z+k+k+}.e ]+k.                                      ",
"      s+: : i i i k i+>.D+A+; $ E+G F+          . = G+; ; v.k.k.k.y+z+}.}.e e ]+k.                                      ",
"      : _ H+h h h >   F+G B+;   I+G F+@         , # # # #         S.B.e.e.e.e.                                          ",
"      : _ '.l J+~ - / K+G l ~ ` x w L+          / , ~ ~ , ~         k.k.k.k.k.                                          ",
"      : _ j _ < ' , h M+G =.  G N+_ i+                                                                                  ",
"      { 4 < < I+  ) - O+H '   H x t : @                                                                                 ",
"                                    @                                                                                   ",
"                                                                                                                        ",
"                                                                                                                        ",
"                                                                                                                        ",
"                                                                                                                        ",
"                                                                                                                        ",
"                                                                                                                        "};
