/* XPM */
static char * rubis_floor2_xpm[] = {
"60 60 90 1",
" 	c #368D63",
".	c #3D9060",
"+	c #6DA344",
"@	c #70A442",
"#	c #629E4A",
"$	c #44925B",
"%	c #5A9B4E",
"&	c #67A147",
"*	c #65A048",
"=	c #549952",
"-	c #4C9557",
";	c #3D905F",
">	c #4A9558",
",	c #328563",
"'	c #2D8466",
")	c #298068",
"!	c #1B4732",
"~	c #1B726C",
"{	c #196D6B",
"]	c #297F68",
"^	c #26FF17",
"/	c #296B4B",
"(	c #267967",
"_	c #166369",
":	c #317D5B",
"<	c #418C5B",
"[	c #458B57",
"}	c #247365",
"|	c #115666",
"1	c #4C8650",
"2	c #2B7D65",
"3	c #519252",
"4	c #207669",
"5	c #1A6366",
"6	c #57954D",
"7	c #4E8A51",
"8	c #135C68",
"9	c #237969",
"0	c #5B974D",
"a	c #3A8E61",
"b	c #659C47",
"c	c #3A845D",
"d	c #145C66",
"e	c #1D6967",
"f	c #1DBF11",
"g	c #307E62",
"h	c #2F7B57",
"i	c #07120C",
"j	c #000000",
"k	c #2C7351",
"l	c #0D450E",
"m	c #0A2B0D",
"n	c #0A4006",
"o	c #0E2319",
"p	c #22E715",
"q	c #22583E",
"r	c #135E16",
"s	c #0E6009",
"t	c #25F716",
"u	c #143525",
"v	c #1DC312",
"w	c #166A1A",
"x	c #13800C",
"y	c #21DF14",
"z	c #189F0E",
"A	c #12780B",
"B	c #20D713",
"C	c #11720A",
"D	c #052003",
"E	c #1AAF10",
"F	c #158F0D",
"G	c #17970E",
"H	c #3D8E5F",
"I	c #1E6555",
"J	c #0E3936",
"K	c #105C21",
"L	c #17631F",
"M	c #1B5C54",
"N	c #0A3641",
"O	c #0D4F1D",
"P	c #165D1D",
"Q	c #062026",
"R	c #36825D",
"S	c #397A58",
"T	c #3A6D46",
"U	c #547B31",
"V	c #1B4F10",
"W	c #124A18",
"X	c #1C2911",
"Y	c #28695E",
"                                                            ",
"                              ....                          ",
"                       .      +@@#                          ",
"                      .$.    .%&@*$.                        ",
"                      =@-      ;@@@%                        ",
"             >-->   .>%+-       %%%- ,'''      ')'',,       ",
"             ++@+   >@@+-      !     )~~~'    ,~~~{~]       ",
"             -=@+=> -@*=$     !^/    (_:<,]  ]'<[<,~]       ",
"               @@@# -+=       !^/    }|1@2{  {(@@@3~(       ",
"               >>>$ $>$      !^^!  ,(45,-33](-6@@@789       ",
"                             /^!   ,~~~' #+(~@@@@@1|}       ",
"                            /^^/ '9,000,9a$58>-@b$:|}       ",
"                  !         /^^  '~c@@@c{' d| ;@* (|}       ",
"             *&+* ^!        !^/  '~4(,.a ed||  ;,85{]       ",
"     .       ++@&!^f/       !!   ,~~{]   5|||   g|_~]       ",
"   $@@+=   *++@   /^^!                      !!              ",
"   $++@=.  %&&+    !f^      :hhh           !^^!       ;;;;  ",
"     -@+@>          /^!     ijji           /^/!       %@@+; ",
"     $###>           !!   k/lmnl/k        /^^!      ;;%@*#; ",
"                          ojp^^pjo       !^^!       %@@+;   ",
"                        /qrst^^psrq/    !^//        >%%%;   ",
"                        ujf^^^^^^vju    !!              ;   ",
"                      /!wxy^^^^^^yxw!/          ;           ",
"                      !jz^^^^^^^^^^zj!                      ",
"                    /uwzAsB^CssC^BsAzwu/     !!//!          ",
"          /!!!      qjx^sjf^DjjD^fjs^xjq   !/^^^^/          ",
"         !^^^//     qjx^BfsnEfvEnsfB^xjq  /^^^^/!           ",
"          !/^^^/!   qjx^^^njy^^yjn^^^Ajq !^^//!             ",
"            /!/^^!  qjx^CDEyt^^yjn^^^xjq  !!                ",
"               !!   qjA^sjf^^^^yjn^^^Fjq                    ",
"                    qjx^sjf^^^^yjn^^^xjq                    ",
"                    qjx^sjf^^^^yjn^^^xjq                    ",
"                    qjx^sjv^^^^yjn^^^xjq                    ",
"           .$       qjx^Fmzvt^^yjn^^^Ajq                    ",
"           *@. !!   qjA^^^njy^^yjm^^^xjq  !//               ",
"         $-&@/!^^!  qjx^vzCsGzzGsCzv^xjq !^^^/!             ",
"         %@@!^^/!   qjx^sjf^DjjD^vjs^xjq  !/^^^! ;   H      ",
"   .=-   %@!^^!  ]]]IJKxxAy^FxxF^pxAxL!k    !/^!    ;=;     ",
"   $@%   %/^^/   ~~~~~Jjz^^^^^^^^^^zj!        !^!   =@>     ",
"   $@&%> !^!/  9]73-<'MNOsB^^^^^^BsPqk         !!;;%&@>     ",
"   $@@+=  !    ~(@@@% }|Qjv^^^^^^fju              >@@@>     ",
"   .$=@=       ~~2R$-*S|TUVnp^^pmW/h     %####%   >+%;; =###",
"     -+=       ~~~~ -+S|1@Xjy^^pjo       #++@@&   >+%   #@@@",
"     ..             .;H,HHRRmiDmRR  .    .;+@@@&% ;;; =&+@;;",
"                            ijjiH    !     &@@@@% ;   %+@+; ",
"             ~~~~~~H                !^!                 ;   ",
"       ,   ' ((((~~      HH!;;;;    !^/           ;         ",
"     )~~~{~~~&@+b|5       !^!@+&     /^!                    ",
"    ','gg(9{{b@#6|5     ;$/^!@*%     !^^/                   ",
"   '~c@++> 5|b@ ,|5     %!^/@@        /^/                   ",
"   '~g3=%=-5|-02}_e     /^^/%%        /^^!                  ",
"   ,~~~] 0@Y|, ||~9     /^/            !^/                  ",
"    ]]]' >=:}  }})'     !^!             /^/                 ",
"                       !^/               !                 H",
"                        !                   H               ",
"                                                            ",
"                                                            ",
"                                                            ",
"                                                            ",
"                                                            "};
