/* XPM */
static char *rubis_floor1[] = {
/* columns rows colors chars-per-pixel */
"60 60 93 2 ",
"   c black",
".  c #07120C",
"X  c #052003",
"o  c #0A2B0D",
"O  c #0E2319",
"+  c #1C2911",
"@  c #062026",
"#  c #143525",
"$  c #0E3936",
"%  c #0A4006",
"&  c #0D450E",
"*  c #0D4F1D",
"=  c #1B4F10",
"-  c #124A18",
";  c #135E16",
":  c #165D1D",
">  c #0E6009",
",  c #11720A",
"<  c #12780B",
"1  c #17631F",
"2  c #166A1A",
"3  c #105C21",
"4  c #1B4732",
"5  c #22583E",
"6  c #547B31",
"7  c #0A3641",
"8  c #1B5C54",
"9  c #1E6555",
"0  c #296B4B",
"q  c #3A6D46",
"w  c #28695E",
"e  c #2C7351",
"r  c #2F7B57",
"t  c #317D5B",
"y  c #397A58",
"u  c #115666",
"i  c #145C66",
"p  c #135C68",
"a  c #1A6366",
"s  c #1D6967",
"d  c #166369",
"f  c #196D6B",
"g  c #1B726C",
"h  c #206663",
"j  c #247365",
"k  c #267967",
"l  c #2B7D65",
"z  c #207669",
"x  c #237969",
"c  c #297F68",
"v  c #307E62",
"b  c #407D54",
"n  c #13800C",
"m  c #158F0D",
"M  c #17970E",
"N  c #189F0E",
"B  c #1AAF10",
"V  c #1DBF11",
"C  c #1DC312",
"Z  c #20D713",
"A  c #21DF14",
"S  c #22E715",
"D  c #23EB15",
"F  c #25F716",
"G  c #26FF17",
"H  c #36825D",
"J  c #3A845D",
"K  c #3D8E5F",
"L  c #3D905F",
"P  c #2D8466",
"I  c #298068",
"U  c #328563",
"Y  c #368D63",
"T  c #3A8E61",
"R  c #3D9060",
"E  c #57954D",
"W  c #5B974D",
"Q  c #5A9B4E",
"!  c #4C8650",
"~  c #458B57",
"^  c #4E8A51",
"/  c #418C5B",
"(  c #4C9557",
")  c #44925B",
"_  c #4A9558",
"`  c #519252",
"'  c #549952",
"]  c #659C47",
"[  c #629E4A",
"{  c #67A147",
"}  c #6DA344",
"|  c #65A048",
" . c #70A442",
/* pixels */
"Y Y Y Y Y Y Y Y Y Y Y Y Y Y Y Y Y Y Y Y Y Y Y Y Y Y Y Y Y Y Y Y Y Y Y Y Y Y Y Y Y Y Y Y Y Y Y Y Y Y Y Y Y Y Y Y Y Y Y Y ",
"Y Y Y Y Y Y Y Y Y Y Y Y Y Y Y Y Y Y Y Y Y Y Y Y Y Y Y Y Y Y R R R R Y Y Y Y Y Y Y Y Y Y Y Y Y Y Y Y Y Y Y Y Y Y Y Y Y Y ",
"Y Y Y Y Y Y Y Y Y Y Y Y Y Y Y Y Y Y Y Y Y Y Y R Y Y Y Y Y Y }  . .[ Y Y Y Y Y Y Y Y Y Y Y Y Y Y Y Y Y Y Y Y Y Y Y Y Y Y ",
"Y Y Y Y Y Y Y Y Y Y Y Y Y Y Y Y Y Y Y Y Y Y R ) R Y Y Y Y R Q {  .| ) R Y Y Y Y Y Y Y Y Y Y Y Y Y Y Y Y Y Y Y Y Y Y Y Y ",
"Y Y Y Y Y Y Y Y Y Y Y Y Y Y Y Y Y Y Y Y Y Y '  .( Y Y Y Y Y Y L  . . .Q Y Y Y Y Y Y Y Y Y Y Y Y Y Y Y Y Y Y Y Y Y Y Y Y ",
"Y Y Y Y Y Y Y Y Y Y Y Y Y _ ( ( _ Y Y Y R _ Q } ( Y Y Y Y Y Y Y Q Q Q ( Y U P P P Y Y Y Y Y Y P I P P U U Y Y Y Y Y Y Y ",
"Y Y Y Y Y Y Y Y Y Y Y Y Y } }  .} Y Y Y _  . .} ( Y Y Y Y Y Y Y Y Y Y Y Y I g g g P Y Y Y Y U g g g f g c Y Y Y Y Y Y Y ",
"Y Y Y Y Y Y Y Y Y Y Y Y Y ( '  .} ' _ Y (  .| ' ) Y Y Y Y Y Y Y Y Y Y Y Y k d t / U c Y Y c P / ~ / U g c Y Y Y Y Y Y Y ",
"Y Y Y Y Y Y Y Y Y Y Y Y Y Y Y  . . .[ Y ( } ' Y Y Y Y Y Y Y Y Y Y Y Y Y Y j u !  .l f Y Y f k  . . .` g k Y Y Y Y Y Y Y ",
"Y Y Y Y Y Y Y Y Y Y Y Y Y Y Y _ _ _ ) Y ) _ ) Y Y Y Y Y Y Y Y Y Y Y Y U k z a U ( ` ` c k ( E  . . .^ p x Y Y Y Y Y Y Y ",
"Y Y Y Y Y Y Y Y Y Y Y Y Y Y Y Y Y Y Y Y Y Y Y Y Y Y Y Y Y Y Y Y Y Y Y U g g g P Y [ } k g  . . . . .! u j Y Y Y Y Y Y Y ",
"Y Y Y Y Y Y Y Y Y Y Y Y Y Y Y Y Y Y Y Y Y Y Y Y Y Y Y Y Y Y Y Y Y P x U W W W U x T ) a p _ (  .] ) t u j Y Y Y Y Y Y Y ",
"Y Y Y Y Y Y Y Y Y Y Y Y Y Y Y Y Y Y Y Y Y Y Y Y Y Y Y Y Y Y Y Y Y P g J  . . .J f P Y i u Y L  .| Y k u j Y Y Y Y Y Y Y ",
"Y Y Y Y Y Y Y Y Y Y Y Y Y | { } | Y Y Y Y Y Y Y Y Y Y Y Y Y Y Y Y P g z k U R T Y s i u u Y Y L U p a f c Y Y Y Y Y Y Y ",
"Y Y Y Y Y R Y Y Y Y Y Y Y } }  .{ Y Y Y Y Y Y Y Y Y Y Y Y Y Y Y Y U g g f c Y Y Y a u u u Y Y Y v u d g c Y Y Y Y Y Y Y ",
"Y Y Y )  . .} ' Y Y Y | } }  .Y Y Y Y Y Y Y Y Y Y Y Y Y Y Y Y Y Y Y Y Y Y Y Y Y Y Y Y Y Y Y Y Y Y Y Y Y Y Y Y Y Y Y Y Y ",
"Y Y Y ) } }  .' R Y Y Q { { } Y Y Y Y Y Y Y Y Y Y Y Y Y t r r r Y Y Y Y Y Y Y Y Y Y Y Y Y Y Y Y Y Y Y Y Y Y L L L L Y Y ",
"Y Y Y Y Y (  .}  ._ Y Y Y Y Y Y Y Y Y Y Y Y Y Y Y Y Y Y .     . Y Y Y Y Y Y Y Y Y Y Y Y Y Y Y Y Y Y Y Y Y Y Q  . .} L Y ",
"Y Y Y Y Y ) [ [ [ _ Y Y Y Y Y Y Y Y Y Y Y Y Y Y Y Y e 0 & o % & 0 e Y Y Y Y Y Y Y Y Y Y Y Y Y Y Y Y Y Y L L Q  .| [ L Y ",
"Y Y Y Y Y Y Y Y Y Y Y Y Y Y Y Y Y Y Y Y Y Y Y Y Y Y O   S G G S   O Y Y Y Y Y Y Y Y Y Y Y Y Y Y Y Y Y Y Q  . .} L Y Y Y ",
"Y Y Y Y Y Y Y Y Y Y Y Y Y Y Y Y Y Y Y Y Y Y Y Y 0 5 ; > F G G S > ; 5 0 Y Y Y Y Y Y Y Y Y Y Y Y Y Y Y Y _ Q Q Q L Y Y Y ",
"Y Y Y Y Y Y Y Y Y Y Y Y Y Y Y Y Y Y Y Y Y Y Y Y #   V G G G G G G C   # Y Y Y Y Y Y Y Y Y Y Y Y Y Y Y Y Y Y Y Y L Y Y Y ",
"Y Y Y Y Y Y Y Y Y Y Y Y Y Y Y Y Y Y Y Y Y Y 0 4 2 n A G G G G G G A n 2 4 0 Y Y Y Y Y Y Y Y Y Y L Y Y Y Y Y Y Y Y Y Y Y ",
"Y Y Y Y Y Y Y Y Y Y Y Y Y Y Y Y Y Y Y Y Y Y 4   N G G G G G G G G G G N   4 Y Y Y Y Y Y Y Y Y Y Y Y Y Y Y Y Y Y Y Y Y Y ",
"Y Y Y Y Y Y Y Y Y Y Y Y Y Y Y Y Y Y Y Y 0 # 2 N < > Z G , > > , G Z > < N 2 # 0 Y Y Y Y Y Y Y Y Y Y Y Y Y Y Y Y Y Y Y Y ",
"Y Y Y Y Y Y Y Y Y Y Y R Y Y Y Y Y Y Y Y 5   n G >   V G X     X G V   > G n   5 Y Y Y Y Y Y Y Y Y Y Y Y Y Y Y Y Y Y Y Y ",
"Y Y Y Y Y Y Y Y Y Y Y Y Y Y Y Y Y Y Y Y 5   n G Z V > % B V C B % > V Z G n   5 Y Y Y Y Y Y Y Y Y Y Y Y Y Y Y Y Y Y Y Y ",
"Y Y Y Y Y Y Y Y Y Y Y Y Y Y Y Y Y Y Y Y 5   n G G G %   A G G A   % G G G <   5 Y Y Y Y Y Y Y Y Y Y Y Y Y Y Y Y Y Y Y Y ",
"Y Y Y Y Y Y Y Y Y Y Y Y Y Y Y Y Y Y Y Y 5   n G , X B A F G G A   % G G G n   5 Y Y Y Y Y Y Y Y Y Y Y Y Y Y Y Y Y Y Y Y ",
"Y Y Y Y Y Y Y Y Y Y Y Y Y Y Y Y Y Y Y Y 5   < G >   V G G G G A   % G G G m   5 Y Y Y Y Y Y Y Y Y Y Y Y Y Y Y Y Y Y Y Y ",
"Y Y Y Y Y Y Y Y Y Y Y Y Y Y Y Y Y Y Y Y 5   n G >   V G G G G A   % G G G n   5 Y Y Y Y Y Y Y Y Y Y Y Y Y Y Y Y Y Y Y Y ",
"Y Y Y Y Y Y Y Y Y Y Y Y Y Y Y Y Y Y Y Y 5   n G >   V G G G G A   % G G G n   5 Y Y Y Y Y Y Y Y Y Y Y Y Y Y Y Y Y Y Y Y ",
"Y Y Y Y Y Y Y Y Y Y Y Y Y Y Y Y Y Y Y Y 5   n G >   C G G G G A   % G G G n   5 Y Y Y Y Y Y Y Y Y Y Y Y Y Y Y Y Y Y Y Y ",
"Y Y Y Y Y Y Y Y Y Y Y R ) Y Y Y Y Y Y Y 5   n G m o N C F G G A   % G G G <   5 Y Y Y Y Y Y Y Y Y Y Y Y Y Y Y Y Y Y Y Y ",
"Y Y Y Y Y Y Y Y Y Y Y |  .R Y Y Y Y Y Y 5   < G G G %   A G G A   o G G G n   5 Y Y Y Y Y Y Y Y Y Y Y Y Y Y Y Y Y Y Y Y ",
"Y Y Y Y Y Y Y Y Y ) ( {  .R Y Y Y Y Y Y 5   n G C N , > M N N M > , N C G n   5 Y Y Y Y Y Y Y Y Y Y Y Y Y Y Y Y Y Y Y Y ",
"Y Y Y Y Y Y Y Y Y Q  . . .R Y Y Y Y Y Y 5   n G >   V G X     X G C   > G n   5 Y Y Y Y Y Y Y Y Y L Y Y Y K Y Y Y Y Y Y ",
"Y Y Y R ' ( Y Y Y Q  .Q ' R Y Y Y c c c 9 $ 3 n n < A G m n n m G S n < n 1 4 e Y Y Y Y Y Y Y Y Y Y Y Y L ' L Y Y Y Y Y ",
"Y Y Y )  .Q Y Y Y Q } ) Y Y Y Y Y g g g g g $   N G G G G G G G G G G N   4 Y Y Y Y Y Y Y Y Y Y Y Y Y Y '  ._ Y Y Y Y Y ",
"Y Y Y )  .{ Q _ Y ) _ R Y Y Y x c ^ ` ( / P 8 7 * > Z G G G G G G Z > : 5 e Y Y Y Y Y Y Y Y Y Y Y L L Q {  ._ Y Y Y Y Y ",
"Y Y Y )  . .} ' Y Y Y Y Y Y Y g k  . . .Q Y j u @   C G G G G G G V   # Y Y Y Y Y Y Y Y Y Y Y Y Y Y _  . . ._ Y Y Y Y Y ",
"Y Y Y R ) '  .' Y Y Y Y Y Y Y g g l H ) ( | y u q 6 = % S G G S o - 0 r Y Y Y Y Y Q [ [ [ [ Q Y Y Y _ } Q L L Y ' [ [ [ ",
"Y Y Y Y Y ( } ' Y Y Y Y Y Y Y g g g g Y ( } y u !  .+   A G G S   O Y Y Y Y Y Y Y [ } }  . .{ Y Y Y _ } Q Y Y Y [  . . .",
"Y Y Y Y Y R R Y Y Y Y Y Y Y Y Y Y Y Y Y R L K U K K H H o . X o H H Y Y R Y Y Y Y R L }  . . .{ Q Y L L L Y ' { }  .L L ",
"Y Y Y Y Y Y Y Y Y Y Y Y Y Y Y Y Y Y Y Y Y Y Y Y Y Y Y Y .     . K Y Y Y Y Y Y Y Y Y Y {  . . . .Q Y L Y Y Y Q }  .} L Y ",
"Y Y Y Y Y Y Y Y Y Y Y Y Y g g g g g g K Y Y Y Y Y Y Y Y Y Y Y Y Y Y Y Y Y Y Y Y Y Y Y Y Y Y Y Y Y Y Y Y Y Y Y Y L Y Y Y ",
"Y Y Y Y Y Y Y U Y Y Y P Y k k k k g g Y Y Y Y Y Y K K L L L L L Y Y Y Y Y Y Y Y Y Y Y Y Y Y Y Y Y Y L Y Y Y Y Y Y Y Y Y ",
"Y Y Y Y Y I g g g f g g g {  .} ] u a Y Y Y Y Y Y Y Q }  . .} { Y Y Y Y Y Y Y Y Y Y Y Y Y Y Y Y Y Y Y Y Y Y Y Y Y Y Y Y ",
"Y Y Y Y P U P v v k x f f ]  .[ E u a Y Y Y Y Y L ) {  . . .| Q Y Y Y Y Y Y Y Y Y Y Y Y Y Y Y Y Y Y Y Y Y Y Y Y Y Y Y Y ",
"Y Y Y P g J  .} } _ Y a u ]  .Y U u a Y Y Y Y Y Q  .}  . . .Y Y Y Y Y Y Y Y Y Y Y Y Y Y Y Y Y Y Y Y Y Y Y Y Y Y Y Y Y Y ",
"Y Y Y P g v ` ' Q ' ( a u ( W l j d s Y Y Y Y Y ( Q Q Q Q Q Y Y Y Y Y Y Y Y Y Y Y Y Y Y Y Y Y Y Y Y Y Y Y Y Y Y Y Y Y Y ",
"Y Y Y U g g g c Y W  .w u U Y u u g x Y Y Y Y Y Y Y Y Y Y Y Y Y Y Y Y Y Y Y Y Y Y Y Y Y Y Y Y Y Y Y Y Y Y Y Y Y Y Y Y Y ",
"Y Y Y Y c c c P Y _ ' t j Y Y j j I P Y Y Y Y Y Y Y Y Y Y Y Y Y Y Y Y Y Y Y Y Y Y Y Y Y Y Y Y Y Y Y Y Y Y Y Y Y Y Y Y Y ",
"Y Y Y Y Y Y Y Y Y Y Y Y Y Y Y Y Y Y Y Y Y Y Y Y Y Y Y Y Y Y Y Y Y Y Y Y Y Y Y Y Y Y Y Y Y Y Y Y Y Y Y Y Y Y Y Y Y Y Y K ",
"Y Y Y Y Y Y Y Y Y Y Y Y Y Y Y Y Y Y Y Y Y Y Y Y Y Y Y Y Y Y Y Y Y Y Y Y Y Y Y Y Y Y Y Y K Y Y Y Y Y Y Y Y Y Y Y Y Y Y Y ",
"Y Y Y Y Y Y Y Y Y Y Y Y Y Y Y Y Y Y Y Y Y Y Y Y Y Y Y Y Y Y Y Y Y Y Y Y Y Y Y Y Y Y Y Y Y Y Y Y Y Y Y Y Y Y Y Y Y Y Y Y ",
"Y Y Y Y Y Y Y Y Y Y Y Y Y Y Y Y Y Y Y Y Y Y Y Y Y Y Y Y Y Y Y Y Y Y Y Y Y Y Y Y Y Y Y Y Y Y Y Y Y Y Y Y Y Y Y Y Y Y Y Y ",
"Y Y Y Y Y Y Y Y Y Y Y Y Y Y Y Y Y Y Y Y Y Y Y Y Y Y Y Y Y Y Y Y Y Y Y Y Y Y Y Y Y Y Y Y Y Y Y Y Y Y Y Y Y Y Y Y Y Y Y Y ",
"Y Y Y Y Y Y Y Y Y Y Y Y Y Y Y Y Y Y Y Y Y Y Y Y Y Y Y Y Y Y Y Y Y Y Y Y Y Y Y Y Y Y Y Y Y Y Y Y Y Y Y Y Y Y Y Y Y Y Y Y ",
"Y Y Y Y Y Y Y Y Y Y Y Y Y Y Y Y Y Y Y Y Y Y Y Y Y Y Y Y Y Y Y Y Y Y Y Y Y Y Y Y Y Y Y Y Y Y Y Y Y Y Y Y Y Y Y Y Y Y Y Y "
};
